NotoSerif.glyphspackage
{
category = Punctuation;
glyphname = asterisk;
kernLeft = quoteright;
kernRight = P;
layers = (
{
layerId = "E17BEC9D-CAAD-449F-91D9-03766E30097E";
shapes = (
{
closed = 1;
nodes = (
(319,350,l),
(279,515,l),
(425,403,l),
(478,518,l),
(321,559,l),
(478,593,l),
(425,709,l),
(279,598,l),
(321,761,l),
(191,761,l),
(229,595,l),
(83,711,l),
(31,594,l),
(190,559,l),
(31,517,l),
(83,402,l),
(228,517,l),
(191,350,l)
);
}
);
width = 503;
},
{
layerId = UUID0;
shapes = (
{
closed = 1;
nodes = (
(291,378,l),
(263,536,l),
(418,443,l),
(453,520,l),
(284,569,l),
(453,618,l),
(418,696,l),
(263,602,l),
(291,760,l),
(204,760,l),
(230,601,l),
(76,698,l),
(41,619,l),
(209,569,l),
(41,519,l),
(76,441,l),
(229,536,l),
(204,378,l)
);
}
);
width = 500;
},
{
layerId = "58AAA307-6DE9-4107-B80A-C255AE991657";
shapes = (
{
closed = 1;
nodes = (
(308,367,l),
(272,528,l),
(422,424,l),
(467,524,l),
(311,563,l),
(467,603,l),
(422,703,l),
(272,598,l),
(308,760,l),
(196,760,l),
(228,597,l),
(80,703,l),
(35,604,l),
(191,563,l),
(35,523,l),
(80,424,l),
(228,529,l),
(196,367,l)
);
}
);
width = 502;
},
{
layerId = "75A83886-EED5-4C31-9670-660514D8A4F6";
shapes = (
{
closed = 1;
nodes = (
(266,363,l),
(232,526,l),
(354,420,l),
(398,524,l),
(276,561,l),
(398,599,l),
(354,703,l),
(232,596,l),
(267,760,l),
(159,760,l),
(191,594,l),
(69,705,l),
(26,600,l),
(148,561,l),
(26,523,l),
(69,418,l),
(190,528,l),
(159,363,l)
);
}
);
width = 419;
},
{
layerId = "C91144B6-58F5-45F2-9CE4-7ED6CE127FD4";
shapes = (
{
closed = 1;
nodes = (
(191,382,l),
(178,550,l),
(287,464,l),
(303,509,l),
(180,571,l),
(303,633,l),
(287,678,l),
(178,592,l),
(191,760,l),
(149,760,l),
(161,593,l),
(52,680,l),
(35,634,l),
(158,571,l),
(35,508,l),
(52,462,l),
(161,549,l),
(149,382,l)
);
}
);
width = 343;
},
{
layerId = "1D4F67F9-897D-45AD-B7F0-CA61A6862C03";
shapes = (
{
closed = 1;
nodes = (
(231,378,l),
(217,554,l),
(352,469,l),
(369,506,l),
(219,569,l),
(369,632,l),
(352,672,l),
(217,584,l),
(229,760,l),
(186,760,l),
(200,585,l),
(66,674,l),
(47,633,l),
(197,569,l),
(47,505,l),
(66,467,l),
(199,554,l),
(186,378,l)
);
}
);
width = 420;
},
{
layerId = "A0CCC833-A561-4F2A-AF73-A35187C9FE5B";
shapes = (
{
closed = 1;
nodes = (
(224,374,l),
(201,541,l),
(316,445,l),
(345,516,l),
(222,567,l),
(345,618,l),
(316,689,l),
(201,594,l),
(224,760,l),
(153,760,l),
(174,593,l),
(60,691,l),
(31,619,l),
(154,567,l),
(31,515,l),
(60,443,l),
(174,541,l),
(153,374,l)
);
}
);
width = 376;
},
{
layerId = "BD18C76C-096B-4C52-83B4-518A374966BE";
shapes = (
{
closed = 1;
nodes = (
(248,368,l),
(219,533,l),
(337,431,l),
(375,521,l),
(253,564,l),
(375,607,l),
(337,697,l),
(219,595,l),
(248,760,l),
(156,760,l),
(184,594,l),
(65,699,l),
(28,608,l),
(151,564,l),
(28,520,l),
(65,429,l),
(184,534,l),
(156,368,l)
);
}
);
width = 400;
}
);
script = "";
subCategory = Other;
unicode = 42;
}
{
category = Punctuation;
glyphname = hyphen;
kernLeft = hyphen;
kernRight = hyphen;
layers = (
{
layerId = "E17BEC9D-CAAD-449F-91D9-03766E30097E";
shapes = (
{
closed = 1;
nodes = (
(285,209,l),
(285,336,l),
(25,336,l),
(25,209,l)
);
}
);
width = 310;
},
{
layerId = UUID0;
shapes = (
{
closed = 1;
nodes = (
(285,235,l),
(285,310,l),
(25,310,l),
(25,235,l)
);
}
);
width = 310;
},
{
layerId = "58AAA307-6DE9-4107-B80A-C255AE991657";
shapes = (
{
closed = 1;
nodes = (
(285,220,l),
(285,325,l),
(25,325,l),
(25,220,l)
);
}
);
width = 310;
},
{
layerId = "75A83886-EED5-4C31-9670-660514D8A4F6";
shapes = (
{
closed = 1;
nodes = (
(238,216,l),
(238,329,l),
(21,329,l),
(21,216,l)
);
}
);
width = 259;
},
{
layerId = "C91144B6-58F5-45F2-9CE4-7ED6CE127FD4";
shapes = (
{
closed = 1;
nodes = (
(216,259,l),
(216,287,l),
(20,287,l),
(20,259,l)
);
}
);
width = 236;
},
{
layerId = "1D4F67F9-897D-45AD-B7F0-CA61A6862C03";
shapes = (
{
closed = 1;
nodes = (
(285,259,l),
(285,287,l),
(25,287,l),
(25,259,l)
);
}
);
width = 310;
},
{
layerId = "A0CCC833-A561-4F2A-AF73-A35187C9FE5B";
shapes = (
{
closed = 1;
nodes = (
(226,236,l),
(226,309,l),
(20,309,l),
(20,236,l)
);
}
);
width = 246;
},
{
layerId = "BD18C76C-096B-4C52-83B4-518A374966BE";
shapes = (
{
closed = 1;
nodes = (
(233,225,l),
(233,320,l),
(21,320,l),
(21,225,l)
);
}
);
width = 253;
}
);
script = "";
subCategory = Dash;
unicode = 45;
}
{
category = Punctuation;
glyphname = period;
kernLeft = period;
kernRight = comma;
layers = (
{
layerId = "E17BEC9D-CAAD-449F-91D9-03766E30097E";
shapes = (
{
closed = 1;
nodes = (
(214,-9,o),
(259,13,o),
(259,80,cs),
(259,148,o),
(214,169,o),
(163,169,cs),
(109,169,o),
(67,148,o),
(67,80,cs),
(67,13,o),
(109,-9,o),
(163,-9,cs)
);
}
);
width = 326;
},
{
layerId = UUID0;
shapes = (
{
closed = 1;
nodes = (
(159,-7,o),
(188,10,o),
(188,61,cs),
(188,113,o),
(159,129,o),
(125,129,cs),
(90,129,o),
(62,113,o),
(62,61,cs),
(62,10,o),
(90,-7,o),
(125,-7,cs)
);
}
);
width = 250;
},
{
layerId = "58AAA307-6DE9-4107-B80A-C255AE991657";
shapes = (
{
closed = 1;
nodes = (
(191,-8,o),
(229,12,o),
(229,72,cs),
(229,133,o),
(191,152,o),
(147,152,cs),
(101,152,o),
(65,133,o),
(65,72,cs),
(65,12,o),
(101,-8,o),
(147,-8,cs)
);
}
);
width = 294;
},
{
layerId = "75A83886-EED5-4C31-9670-660514D8A4F6";
shapes = (
{
closed = 1;
nodes = (
(179,-8,o),
(217,12,o),
(217,74,cs),
(217,136,o),
(179,156,o),
(136,156,cs),
(91,156,o),
(56,136,o),
(56,74,cs),
(56,12,o),
(91,-8,o),
(136,-8,cs)
);
}
);
width = 273;
},
{
layerId = "C91144B6-58F5-45F2-9CE4-7ED6CE127FD4";
shapes = (
{
closed = 1;
nodes = (
(94,-6,o),
(107,4,o),
(107,33,cs),
(107,63,o),
(94,73,o),
(80,73,cs),
(63,73,o),
(50,63,o),
(50,33,cs),
(50,4,o),
(63,-6,o),
(80,-6,cs)
);
}
);
width = 157;
},
{
layerId = "1D4F67F9-897D-45AD-B7F0-CA61A6862C03";
shapes = (
{
closed = 1;
nodes = (
(113,-5,o),
(126,4,o),
(126,35,cs),
(126,65,o),
(113,73,o),
(97,73,cs),
(82,73,o),
(68,65,o),
(68,35,cs),
(68,4,o),
(82,-5,o),
(97,-5,cs)
);
}
);
width = 194;
},
{
layerId = "A0CCC833-A561-4F2A-AF73-A35187C9FE5B";
shapes = (
{
closed = 1;
nodes = (
(131,-7,o),
(155,8,o),
(155,55,cs),
(155,102,o),
(131,117,o),
(104,117,cs),
(75,117,o),
(52,102,o),
(52,55,cs),
(52,8,o),
(75,-7,o),
(104,-7,cs)
);
}
);
width = 207;
},
{
layerId = "BD18C76C-096B-4C52-83B4-518A374966BE";
shapes = (
{
closed = 1;
nodes = (
(158,-7,o),
(190,10,o),
(190,66,cs),
(190,121,o),
(158,139,o),
(122,139,cs),
(84,139,o),
(54,121,o),
(54,66,cs),
(54,10,o),
(84,-7,o),
(122,-7,cs)
);
}
);
width = 244;
}
);
script = "";
subCategory = Other;
unicode = 46;
}
{
category = Number;
glyphname = zero;
layers = (
{
layerId = "E17BEC9D-CAAD-449F-91D9-03766E30097E";
shapes = (
{
closed = 1;
nodes = (
(472,-10,o),
(538,137,o),
(538,358,cs),
(538,580,o),
(472,724,o),
(286,724,cs),
(89,724,o),
(31,580,o),
(31,359,cs),
(31,137,o),
(89,-10,o),
(285,-10,cs)
);
},
{
closed = 1;
nodes = (
(227,63,o),
(223,172,o),
(223,358,cs),
(223,544,o),
(227,651,o),
(286,651,cs),
(342,651,o),
(345,544,o),
(345,358,cs),
(345,172,o),
(342,63,o),
(285,63,cs)
);
}
);
width = 569;
},
{
layerId = UUID0;
shapes = (
{
closed = 1;
nodes = (
(437,-10,o),
(514,137,o),
(514,358,cs),
(514,580,o),
(437,724,o),
(281,724,cs),
(115,724,o),
(45,580,o),
(45,359,cs),
(45,137,o),
(115,-10,o),
(280,-10,cs)
);
},
{
closed = 1;
nodes = (
(183,44,o),
(149,160,o),
(149,358,cs),
(149,556,o),
(183,670,o),
(281,670,cs),
(377,670,o),
(410,556,o),
(410,358,cs),
(410,160,o),
(377,44,o),
(280,44,cs)
);
}
);
width = 559;
},
{
layerId = "58AAA307-6DE9-4107-B80A-C255AE991657";
shapes = (
{
closed = 1;
nodes = (
(454,-10,o),
(525,137,o),
(525,358,cs),
(525,580,o),
(454,724,o),
(281,724,cs),
(97,724,o),
(34,580,o),
(34,359,cs),
(34,137,o),
(97,-10,o),
(280,-10,cs)
);
},
{
closed = 1;
nodes = (
(206,55,o),
(189,167,o),
(189,358,cs),
(189,549,o),
(206,659,o),
(281,659,cs),
(354,659,o),
(370,549,o),
(370,358,cs),
(370,167,o),
(354,55,o),
(280,55,cs)
);
}
);
width = 559;
},
{
layerId = "75A83886-EED5-4C31-9670-660514D8A4F6";
shapes = (
{
closed = 1;
nodes = (
(389,-10,o),
(444,134,o),
(444,358,cs),
(444,584,o),
(389,724,o),
(234,724,cs),
(70,724,o),
(21,582,o),
(21,359,cs),
(21,133,o),
(70,-10,o),
(233,-10,cs)
);
},
{
closed = 1;
nodes = (
(185,57,o),
(182,168,o),
(182,358,cs),
(182,548,o),
(185,657,o),
(234,657,cs),
(280,657,o),
(283,548,o),
(283,358,cs),
(283,168,o),
(280,57,o),
(233,57,cs)
);
}
);
width = 466;
},
{
layerId = "C91144B6-58F5-45F2-9CE4-7ED6CE127FD4";
shapes = (
{
closed = 1;
nodes = (
(319,-10,o),
(381,105,o),
(381,358,cs),
(381,600,o),
(325,724,o),
(213,724,cs),
(92,724,o),
(43,590,o),
(43,359,cs),
(43,114,o),
(99,-10,o),
(212,-10,cs)
);
},
{
closed = 1;
nodes = (
(112,15,o),
(71,141,o),
(71,358,cs),
(71,575,o),
(112,699,o),
(213,699,cs),
(312,699,o),
(353,575,o),
(353,358,cs),
(353,141,o),
(312,15,o),
(212,15,cs)
);
}
);
width = 425;
},
{
layerId = "1D4F67F9-897D-45AD-B7F0-CA61A6862C03";
shapes = (
{
closed = 1;
nodes = (
(427,-10,o),
(500,112,o),
(500,358,cs),
(500,608,o),
(426,724,o),
(281,724,cs),
(127,724,o),
(59,604,o),
(59,359,cs),
(59,104,o),
(129,-10,o),
(280,-10,cs)
);
},
{
closed = 1;
nodes = (
(145,15,o),
(87,121,o),
(87,358,cs),
(87,578,o),
(135,699,o),
(280,699,cs),
(420,699,o),
(472,585,o),
(472,358,cs),
(472,129,o),
(414,15,o),
(279,15,cs)
);
}
);
width = 559;
},
{
layerId = "A0CCC833-A561-4F2A-AF73-A35187C9FE5B";
shapes = (
{
closed = 1;
nodes = (
(352,-10,o),
(408,125,o),
(408,358,cs),
(408,594,o),
(355,724,o),
(222,724,cs),
(81,724,o),
(33,588,o),
(33,359,cs),
(33,121,o),
(84,-10,o),
(221,-10,cs)
);
},
{
closed = 1;
nodes = (
(147,40,o),
(124,157,o),
(124,358,cs),
(124,559,o),
(147,674,o),
(222,674,cs),
(295,674,o),
(319,559,o),
(319,358,cs),
(319,157,o),
(295,40,o),
(221,40,cs)
);
}
);
width = 442;
},
{
layerId = "BD18C76C-096B-4C52-83B4-518A374966BE";
shapes = (
{
closed = 1;
nodes = (
(373,-10,o),
(428,130,o),
(428,358,cs),
(428,588,o),
(374,724,o),
(229,724,cs),
(75,724,o),
(26,585,o),
(26,359,cs),
(26,128,o),
(76,-10,o),
(228,-10,cs)
);
},
{
closed = 1;
nodes = (
(168,50,o),
(157,163,o),
(157,358,cs),
(157,553,o),
(168,664,o),
(229,664,cs),
(287,664,o),
(299,553,o),
(299,358,cs),
(299,163,o),
(287,50,o),
(228,50,cs)
);
}
);
width = 456;
}
);
script = "";
subCategory = "Decimal Digit";
unicode = 48;
}
{
category = Symbol;
glyphname = equal;
layers = (
{
layerId = "E17BEC9D-CAAD-449F-91D9-03766E30097E";
shapes = (
{
closed = 1;
nodes = (
(513,424,l),
(513,502,l),
(57,502,l),
(57,424,l)
);
},
{
closed = 1;
nodes = (
(513,212,l),
(513,290,l),
(57,290,l),
(57,212,l)
);
}
);
width = 569;
},
{
layerId = UUID0;
shapes = (
{
closed = 1;
nodes = (
(494,426,l),
(494,485,l),
(65,485,l),
(65,426,l)
);
},
{
closed = 1;
nodes = (
(494,229,l),
(494,288,l),
(65,288,l),
(65,229,l)
);
}
);
width = 559;
},
{
layerId = "58AAA307-6DE9-4107-B80A-C255AE991657";
shapes = (
{
closed = 1;
nodes = (
(496,419,l),
(496,489,l),
(63,489,l),
(63,419,l)
);
},
{
closed = 1;
nodes = (
(496,225,l),
(496,295,l),
(63,295,l),
(63,225,l)
);
}
);
width = 559;
},
{
layerId = "75A83886-EED5-4C31-9670-660514D8A4F6";
shapes = (
{
closed = 1;
nodes = (
(394,408,l),
(394,481,l),
(31,481,l),
(31,408,l)
);
},
{
closed = 1;
nodes = (
(394,233,l),
(394,306,l),
(31,306,l),
(31,233,l)
);
}
);
width = 425;
},
{
layerId = "C91144B6-58F5-45F2-9CE4-7ED6CE127FD4";
shapes = (
{
closed = 1;
nodes = (
(373,443,l),
(373,471,l),
(51,471,l),
(51,443,l)
);
},
{
closed = 1;
nodes = (
(373,244,l),
(373,272,l),
(51,272,l),
(51,244,l)
);
}
);
width = 425;
},
{
layerId = "1D4F67F9-897D-45AD-B7F0-CA61A6862C03";
shapes = (
{
closed = 1;
nodes = (
(490,451,l),
(490,479,l),
(67,479,l),
(67,451,l)
);
},
{
closed = 1;
nodes = (
(490,235,l),
(490,263,l),
(67,263,l),
(67,235,l)
);
}
);
width = 559;
},
{
layerId = "A0CCC833-A561-4F2A-AF73-A35187C9FE5B";
shapes = (
{
closed = 1;
nodes = (
(382,423,l),
(382,481,l),
(43,481,l),
(43,423,l)
);
},
{
closed = 1;
nodes = (
(382,233,l),
(382,291,l),
(43,291,l),
(43,233,l)
);
}
);
width = 425;
},
{
layerId = "BD18C76C-096B-4C52-83B4-518A374966BE";
shapes = (
{
closed = 1;
nodes = (
(389,414,l),
(389,481,l),
(36,481,l),
(36,414,l)
);
},
{
closed = 1;
nodes = (
(389,233,l),
(389,300,l),
(36,300,l),
(36,233,l)
);
}
);
width = 425;
}
);
script = "";
subCategory = Math;
unicode = 61;
}
{
category = Punctuation;
glyphname = question;
kernLeft = T;
layers = (
{
layerId = "E17BEC9D-CAAD-449F-91D9-03766E30097E";
shapes = (
{
closed = 1;
nodes = (
(215,238,l),
(300,238,l),
(323,323,l),
(462,381,o),
(522,433,o),
(522,538,cs),
(522,655,o),
(421,724,o),
(261,724,cs),
(101,724,o),
(29,657,o),
(29,590,cs),
(29,524,o),
(87,506,o),
(194,506,c),
(194,612,o),
(218,656,o),
(262,656,cs),
(302,656,o),
(326,619,o),
(326,553,cs),
(326,468,o),
(303,404,o),
(192,350,c)
);
},
{
closed = 1;
nodes = (
(305,-9,o),
(349,14,o),
(349,83,cs),
(349,153,o),
(305,175,o),
(255,175,cs),
(203,175,o),
(162,153,o),
(162,83,cs),
(162,14,o),
(203,-9,o),
(255,-9,cs)
);
}
);
width = 557;
},
{
layerId = UUID0;
shapes = (
{
closed = 1;
nodes = (
(188,201,l),
(242,201,l),
(245,314,l),
(364,365,o),
(436,433,o),
(436,543,cs),
(436,657,o),
(346,724,o),
(220,724,cs),
(93,724,o),
(33,674,o),
(33,609,cs),
(33,568,o),
(68,546,o),
(116,546,c),
(116,615,o),
(145,675,o),
(228,675,cs),
(306,675,o),
(339,629,o),
(339,560,cs),
(339,480,o),
(303,401,o),
(184,353,c)
);
},
{
closed = 1;
nodes = (
(247,-7,o),
(276,10,o),
(276,61,cs),
(276,113,o),
(247,129,o),
(213,129,cs),
(178,129,o),
(150,113,o),
(150,61,cs),
(150,10,o),
(178,-7,o),
(213,-7,cs)
);
}
);
width = 474;
},
{
layerId = "58AAA307-6DE9-4107-B80A-C255AE991657";
shapes = (
{
closed = 1;
nodes = (
(208,228,l),
(283,228,l),
(296,319,l),
(429,374,o),
(495,433,o),
(495,540,cs),
(495,656,o),
(391,724,o),
(250,724,cs),
(103,724,o),
(37,673,o),
(37,608,cs),
(37,561,o),
(96,538,o),
(178,538,c),
(178,606,o),
(198,664,o),
(258,664,cs),
(313,664,o),
(336,620,o),
(336,556,cs),
(336,477,o),
(309,397,o),
(195,351,c)
);
},
{
closed = 1;
nodes = (
(288,-8,o),
(326,12,o),
(326,72,cs),
(326,133,o),
(288,152,o),
(244,152,cs),
(198,152,o),
(162,133,o),
(162,72,cs),
(162,12,o),
(198,-8,o),
(244,-8,cs)
);
}
);
width = 550;
},
{
layerId = "75A83886-EED5-4C31-9670-660514D8A4F6";
shapes = (
{
closed = 1;
nodes = (
(187,231,l),
(250,231,l),
(273,323,l),
(389,379,o),
(442,434,o),
(442,540,cs),
(442,656,o),
(356,724,o),
(221,724,cs),
(87,724,o),
(28,664,o),
(28,603,cs),
(28,543,o),
(78,525,o),
(167,525,c),
(167,612,o),
(187,661,o),
(222,661,cs),
(254,661,o),
(273,615,o),
(273,552,cs),
(273,471,o),
(258,395,o),
(164,349,c)
);
},
{
closed = 1;
nodes = (
(259,-8,o),
(296,12,o),
(296,74,cs),
(296,136,o),
(259,156,o),
(216,156,cs),
(171,156,o),
(136,136,o),
(136,74,cs),
(136,12,o),
(171,-8,o),
(216,-8,cs)
);
}
);
width = 480;
},
{
layerId = "C91144B6-58F5-45F2-9CE4-7ED6CE127FD4";
shapes = (
{
closed = 1;
nodes = (
(149,167,l),
(171,167,l),
(173,323,l),
(261,369,o),
(306,438,o),
(306,552,cs),
(306,664,o),
(250,724,o),
(167,724,cs),
(76,724,o),
(38,662,o),
(38,612,cs),
(38,581,o),
(49,569,o),
(59,569,c),
(59,642,o),
(86,699,o),
(167,699,cs),
(240,699,o),
(278,642,o),
(278,550,cs),
(278,453,o),
(238,385,o),
(146,337,c)
);
},
{
closed = 1;
nodes = (
(178,-5,o),
(192,4,o),
(192,34,cs),
(192,64,o),
(178,73,o),
(161,73,cs),
(146,73,o),
(133,64,o),
(133,34,cs),
(133,4,o),
(146,-5,o),
(161,-5,cs)
);
}
);
width = 352;
},
{
layerId = "1D4F67F9-897D-45AD-B7F0-CA61A6862C03";
shapes = (
{
closed = 1;
nodes = (
(183,167,l),
(205,167,l),
(208,323,l),
(317,375,o),
(373,441,o),
(373,551,cs),
(373,650,o),
(307,724,o),
(199,724,cs),
(72,724,o),
(35,646,o),
(35,611,cs),
(35,584,o),
(43,569,o),
(57,569,c),
(57,629,o),
(90,699,o),
(201,699,cs),
(290,699,o),
(345,638,o),
(345,551,cs),
(345,448,o),
(292,389,o),
(180,337,c)
);
},
{
closed = 1;
nodes = (
(209,-5,o),
(222,4,o),
(222,35,cs),
(222,65,o),
(209,73,o),
(193,73,cs),
(178,73,o),
(164,65,o),
(164,35,cs),
(164,4,o),
(178,-5,o),
(193,-5,cs)
);
}
);
width = 415;
},
{
layerId = "A0CCC833-A561-4F2A-AF73-A35187C9FE5B";
shapes = (
{
closed = 1;
nodes = (
(164,209,l),
(207,209,l),
(217,323,l),
(317,373,o),
(365,436,o),
(365,547,cs),
(365,660,o),
(298,724,o),
(192,724,cs),
(90,724,o),
(34,674,o),
(34,612,cs),
(34,569,o),
(64,553,o),
(109,553,c),
(109,627,o),
(130,676,o),
(191,676,cs),
(247,676,o),
(275,620,o),
(275,548,cs),
(275,461,o),
(246,394,o),
(155,346,c)
);
},
{
closed = 1;
nodes = (
(214,-7,o),
(238,8,o),
(238,55,cs),
(238,102,o),
(214,117,o),
(185,117,cs),
(157,117,o),
(135,102,o),
(135,55,cs),
(135,8,o),
(157,-7,o),
(185,-7,cs)
);
}
);
width = 412;
},
{
layerId = "BD18C76C-096B-4C52-83B4-518A374966BE";
shapes = (
{
closed = 1;
nodes = (
(177,221,l),
(231,221,l),
(249,323,l),
(358,376,o),
(409,435,o),
(409,543,cs),
(409,658,o),
(331,724,o),
(208,724,cs),
(88,724,o),
(31,668,o),
(31,607,cs),
(31,554,o),
(72,537,o),
(142,537,c),
(142,618,o),
(162,668,o),
(209,668,cs),
(251,668,o),
(274,617,o),
(274,550,cs),
(274,467,o),
(253,394,o),
(160,348,c)
);
},
{
closed = 1;
nodes = (
(239,-7,o),
(271,10,o),
(271,66,cs),
(271,121,o),
(239,139,o),
(203,139,cs),
(165,139,o),
(135,121,o),
(135,66,cs),
(135,10,o),
(165,-7,o),
(203,-7,cs)
);
}
);
width = 456;
}
);
script = "";
subCategory = Other;
unicode = 63;
}
{
category = Letter;
glyphname = C;
kernLeft = O;
kernRight = C;
layers = (
{
anchors = (
{
name = bottom;
pos = (404,0);
},
{
name = center;
pos = (359,357);
},
{
name = top;
pos = (414,714);
},
{
name = topright;
pos = (688,714);
}
);
layerId = "E17BEC9D-CAAD-449F-91D9-03766E30097E";
shapes = (
{
closed = 1;
nodes = (
(619,-10,o),
(665,76,o),
(665,137,cs),
(665,152,o),
(659,174,o),
(650,183,c),
(616,138,o),
(559,80,o),
(452,80,cs),
(313,80,o),
(264,155,o),
(264,358,cs),
(264,546,o),
(297,652,o),
(406,652,cs),
(486,652,o),
(511,574,o),
(511,506,c),
(615,506,o),
(664,550,o),
(664,605,cs),
(664,671,o),
(582,724,o),
(417,724,cs),
(178,724,o),
(54,574,o),
(54,358,cs),
(54,137,o),
(175,-10,o),
(418,-10,cs)
);
}
);
width = 708;
},
{
anchors = (
{
name = bottom;
pos = (357,0);
},
{
name = center;
pos = (318,357);
},
{
name = top;
pos = (375,714);
},
{
name = topright;
pos = (594,714);
}
);
layerId = UUID0;
shapes = (
{
closed = 1;
nodes = (
(509,-10,o),
(576,52,o),
(576,102,cs),
(576,122,o),
(568,134,o),
(557,141,c),
(523,96,o),
(473,56,o),
(376,56,cs),
(229,56,o),
(168,179,o),
(168,358,cs),
(168,558,o),
(225,671,o),
(376,671,cs),
(463,671,o),
(493,604,o),
(493,542,c),
(542,542,o),
(580,569,o),
(580,612,cs),
(580,676,o),
(514,724,o),
(378,724,cs),
(167,724,o),
(57,574,o),
(57,358,cs),
(57,137,o),
(162,-10,o),
(361,-10,cs)
);
}
);
width = 614;
},
{
anchors = (
{
name = bottom;
pos = (384,0);
},
{
name = center;
pos = (341,357);
},
{
name = top;
pos = (398,714);
},
{
name = topright;
pos = (648,714);
}
);
layerId = "58AAA307-6DE9-4107-B80A-C255AE991657";
shapes = (
{
closed = 1;
nodes = (
(572,-10,o),
(627,66,o),
(627,122,cs),
(627,139,o),
(620,157,o),
(610,165,c),
(576,120,o),
(522,70,o),
(425,70,cs),
(277,70,o),
(223,165,o),
(223,358,cs),
(223,551,o),
(266,660,o),
(393,660,cs),
(476,660,o),
(503,587,o),
(503,521,c),
(584,521,o),
(628,558,o),
(628,608,cs),
(628,673,o),
(553,724,o),
(400,724,cs),
(173,724,o),
(55,574,o),
(55,358,cs),
(55,137,o),
(169,-10,o),
(401,-10,cs)
);
}
);
width = 668;
},
{
anchors = (
{
name = bottom;
pos = (336,0);
},
{
name = center;
pos = (300,357);
},
{
name = top;
pos = (347,714);
},
{
name = topright;
pos = (571,714);
}
);
layerId = "75A83886-EED5-4C31-9670-660514D8A4F6";
shapes = (
{
closed = 1;
nodes = (
(517,-10,o),
(555,71,o),
(555,128,cs),
(555,143,o),
(550,163,o),
(542,172,c),
(514,126,o),
(467,71,o),
(378,71,cs),
(261,71,o),
(221,157,o),
(221,358,cs),
(221,548,o),
(248,657,o),
(339,657,cs),
(406,657,o),
(426,583,o),
(426,516,c),
(513,516,o),
(554,555,o),
(554,606,cs),
(554,671,o),
(486,724,o),
(348,724,cs),
(149,724,o),
(45,575,o),
(45,358,cs),
(45,137,o),
(146,-10,o),
(349,-10,cs)
);
}
);
width = 591;
},
{
anchors = (
{
name = bottom;
pos = (254,0);
},
{
name = center;
pos = (223,357);
},
{
name = top;
pos = (257,714);
},
{
name = topright;
pos = (407,714);
}
);
layerId = "C91144B6-58F5-45F2-9CE4-7ED6CE127FD4";
shapes = (
{
closed = 1;
nodes = (
(339,-10,o),
(399,48,o),
(399,84,cs),
(399,99,o),
(394,107,o),
(386,112,c),
(364,55,o),
(328,15,o),
(254,15,cs),
(131,15,o),
(72,162,o),
(72,358,cs),
(72,553,o),
(130,699,o),
(256,699,cs),
(345,699,o),
(382,650,o),
(382,566,c),
(395,566,o),
(403,582,o),
(403,612,cs),
(403,671,o),
(348,724,o),
(257,724,cs),
(118,724,o),
(44,583,o),
(44,358,cs),
(44,137,o),
(117,-10,o),
(254,-10,cs)
);
}
);
width = 427;
},
{
anchors = (
{
name = bottom;
pos = (315,0);
},
{
name = center;
pos = (286,357);
},
{
name = top;
pos = (322,714);
},
{
name = topright;
pos = (530,714);
}
);
layerId = "1D4F67F9-897D-45AD-B7F0-CA61A6862C03";
shapes = (
{
closed = 1;
nodes = (
(452,-10,o),
(510,65,o),
(510,86,cs),
(510,96,o),
(506,106,o),
(497,111,c),
(473,59,o),
(422,15,o),
(323,15,cs),
(162,15,o),
(85,147,o),
(85,358,cs),
(85,566,o),
(166,699,o),
(318,699,cs),
(457,699,o),
(495,650,o),
(495,568,c),
(509,568,o),
(516,583,o),
(516,610,cs),
(516,666,o),
(464,724,o),
(324,724,cs),
(149,724,o),
(57,588,o),
(57,358,cs),
(57,131,o),
(145,-10,o),
(324,-10,cs)
);
}
);
width = 550;
},
{
anchors = (
{
name = bottom;
pos = (289,0);
},
{
name = center;
pos = (256,357);
},
{
name = top;
pos = (299,714);
},
{
name = topright;
pos = (478,714);
}
);
layerId = "A0CCC833-A561-4F2A-AF73-A35187C9FE5B";
shapes = (
{
closed = 1;
nodes = (
(416,-10,o),
(467,58,o),
(467,103,cs),
(467,118,o),
(462,132,o),
(454,138,c),
(424,89,o),
(386,46,o),
(306,46,cs),
(192,46,o),
(144,162,o),
(144,358,cs),
(144,552,o),
(187,672,o),
(292,672,cs),
(369,672,o),
(395,609,o),
(395,545,c),
(440,545,o),
(469,570,o),
(469,610,cs),
(469,671,o),
(408,724,o),
(301,724,cs),
(131,724,o),
(44,579,o),
(44,358,cs),
(44,137,o),
(129,-10,o),
(291,-10,cs)
);
}
);
width = 498;
},
{
anchors = (
{
name = bottom;
pos = (316,0);
},
{
name = center;
pos = (281,357);
},
{
name = top;
pos = (326,714);
},
{
name = topright;
pos = (531,714);
}
);
layerId = "BD18C76C-096B-4C52-83B4-518A374966BE";
shapes = (
{
closed = 1;
nodes = (
(473,-10,o),
(517,65,o),
(517,117,cs),
(517,132,o),
(512,149,o),
(504,157,c),
(475,110,o),
(432,60,o),
(347,60,cs),
(231,60,o),
(188,159,o),
(188,358,cs),
(188,550,o),
(221,664,o),
(319,664,cs),
(390,664,o),
(412,594,o),
(412,528,c),
(481,528,o),
(517,562,o),
(517,608,cs),
(517,671,o),
(452,724,o),
(327,724,cs),
(141,724,o),
(45,577,o),
(45,358,cs),
(45,137,o),
(139,-10,o),
(324,-10,cs)
);
}
);
width = 551;
}
);
script = latin;
subCategory = Uppercase;
unicode = 67;
}
{
category = Letter;
glyphname = D;
kernLeft = B;
kernRight = O;
layers = (
{
anchors = (
{
name = bottom;
pos = (388,0);
},
{
name = center;
pos = (398,357);
},
{
name = top;
pos = (386,714);
},
{
name = topright;
pos = (776,714);
}
);
layerId = "E17BEC9D-CAAD-449F-91D9-03766E30097E";
shapes = (
{
closed = 1;
nodes = (
(369,0,l),
(613,0,o),
(743,160,o),
(743,379,cs),
(743,606,o),
(601,714,o),
(369,714,cs),
(21,714,l),
(21,653,l),
(66,653,ls),
(94,653,o),
(113,636,o),
(113,599,cs),
(113,115,ls),
(113,85,o),
(98,61,o),
(74,61,cs),
(21,61,l),
(21,0,l)
);
},
{
closed = 1;
nodes = (
(312,70,l),
(312,645,l),
(346,645,l),
(466,645,o),
(531,565,o),
(531,379,cs),
(531,193,o),
(466,70,o),
(345,70,cs)
);
}
);
width = 796;
},
{
anchors = (
{
name = bottom;
pos = (353,0);
},
{
name = center;
pos = (364,357);
},
{
name = top;
pos = (364,714);
},
{
name = topright;
pos = (707,714);
}
);
layerId = UUID0;
shapes = (
{
closed = 1;
nodes = (
(344,0,l),
(561,0,o),
(670,139,o),
(670,358,cs),
(670,585,o),
(550,714,o),
(344,714,cs),
(38,714,l),
(38,672,l),
(51,672,ls),
(95,672,o),
(133,663,o),
(133,604,c),
(133,114,ls),
(133,51,o),
(96,42,o),
(51,42,cs),
(38,42,l),
(38,0,l)
);
},
{
closed = 1;
nodes = (
(234,51,l),
(234,664,l),
(322,664,ls),
(480,664,o),
(559,556,o),
(559,358,cs),
(559,160,o),
(480,51,o),
(321,51,cs)
);
}
);
width = 727;
},
{
anchors = (
{
name = bottom;
pos = (370,0);
},
{
name = center;
pos = (384,357);
},
{
name = top;
pos = (372,714);
},
{
name = topright;
pos = (747,714);
}
);
layerId = "58AAA307-6DE9-4107-B80A-C255AE991657";
shapes = (
{
closed = 1;
nodes = (
(358,0,l),
(591,0,o),
(712,151,o),
(712,370,cs),
(712,597,o),
(579,714,o),
(358,714,c),
(28,714,l),
(28,661,l),
(70,661,l),
(98,661,o),
(121,653,o),
(121,600,cs),
(121,118,l),
(121,61,o),
(99,53,o),
(70,53,c),
(28,53,l),
(28,0,l)
);
},
{
closed = 1;
nodes = (
(279,62,l),
(279,653,l),
(336,653,l),
(472,653,o),
(543,561,o),
(543,370,cs),
(543,179,o),
(472,62,o),
(335,62,c)
);
}
);
width = 767;
},
{
anchors = (
{
name = bottom;
pos = (319,0);
},
{
name = center;
pos = (332,357);
},
{
name = top;
pos = (319,714);
},
{
name = topright;
pos = (644,714);
}
);
layerId = "75A83886-EED5-4C31-9670-660514D8A4F6";
shapes = (
{
closed = 1;
nodes = (
(308,0,ls),
(512,0,o),
(620,154,o),
(620,373,cs),
(620,600,o),
(501,714,o),
(308,714,cs),
(18,714,l),
(18,658,l),
(55,658,ls),
(79,658,o),
(94,643,o),
(94,601,cs),
(94,114,ls),
(94,77,o),
(82,56,o),
(62,56,cs),
(18,56,l),
(18,0,l)
);
},
{
closed = 1;
nodes = (
(261,65,l),
(261,650,l),
(288,650,ls),
(388,650,o),
(443,563,o),
(443,373,cs),
(443,184,o),
(388,65,o),
(288,65,cs)
);
}
);
width = 664;
},
{
anchors = (
{
name = bottom;
pos = (250,0);
},
{
name = center;
pos = (261,357);
},
{
name = top;
pos = (253,714);
},
{
name = topright;
pos = (502,714);
}
);
layerId = "C91144B6-58F5-45F2-9CE4-7ED6CE127FD4";
shapes = (
{
closed = 1;
nodes = (
(234,0,ls),
(403,0,o),
(477,124,o),
(477,343,cs),
(477,576,o),
(395,714,o),
(235,714,cs),
(36,714,l),
(36,694,l),
(49,694,ls),
(102,694,o),
(110,686,o),
(110,609,cs),
(110,110,ls),
(110,27,o),
(102,20,o),
(48,20,cs),
(36,20,l),
(36,0,l)
);
},
{
closed = 1;
nodes = (
(138,25,l),
(138,689,l),
(235,689,ls),
(378,689,o),
(449,557,o),
(449,343,cs),
(449,128,o),
(378,25,o),
(234,25,cs)
);
}
);
width = 522;
},
{
anchors = (
{
name = bottom;
pos = (339,0);
},
{
name = center;
pos = (339,357);
},
{
name = top;
pos = (339,714);
},
{
name = topright;
pos = (657,714);
}
);
layerId = "1D4F67F9-897D-45AD-B7F0-CA61A6862C03";
shapes = (
{
closed = 1;
nodes = (
(319,0,ls),
(523,0,o),
(616,123,o),
(616,342,cs),
(616,569,o),
(514,714,o),
(315,714,cs),
(50,714,l),
(50,694,l),
(93,694,ls),
(143,694,o),
(149,683,o),
(149,606,cs),
(149,108,ls),
(149,31,o),
(143,20,o),
(93,20,cs),
(50,20,l),
(50,0,l)
);
},
{
closed = 1;
nodes = (
(177,25,l),
(177,689,l),
(306,689,ls),
(503,689,o),
(588,552,o),
(588,342,cs),
(588,132,o),
(505,25,o),
(305,25,cs)
);
}
);
width = 677;
},
{
anchors = (
{
name = bottom;
pos = (282,0);
},
{
name = center;
pos = (292,357);
},
{
name = top;
pos = (292,714);
},
{
name = topright;
pos = (564,714);
}
);
layerId = "A0CCC833-A561-4F2A-AF73-A35187C9FE5B";
shapes = (
{
closed = 1;
nodes = (
(275,0,ls),
(451,0,o),
(539,137,o),
(539,356,cs),
(539,583,o),
(441,714,o),
(275,714,cs),
(28,714,l),
(28,673,l),
(44,673,ls),
(79,673,o),
(103,662,o),
(103,605,cs),
(103,112,ls),
(103,54,o),
(81,41,o),
(47,41,cs),
(28,41,l),
(28,0,l)
);
},
{
closed = 1;
nodes = (
(195,50,l),
(195,665,l),
(258,665,ls),
(378,665,o),
(439,556,o),
(439,356,cs),
(439,158,o),
(378,50,o),
(257,50,cs)
);
}
);
width = 584;
},
{
anchors = (
{
name = bottom;
pos = (305,0);
},
{
name = center;
pos = (315,357);
},
{
name = top;
pos = (307,714);
},
{
name = topright;
pos = (609,714);
}
);
layerId = "BD18C76C-096B-4C52-83B4-518A374966BE";
shapes = (
{
closed = 1;
nodes = (
(294,0,ls),
(485,0,o),
(585,147,o),
(585,366,cs),
(585,593,o),
(475,714,o),
(294,714,cs),
(22,714,l),
(22,665,l),
(50,665,ls),
(79,665,o),
(98,651,o),
(98,603,cs),
(98,113,ls),
(98,67,o),
(81,49,o),
(55,49,cs),
(22,49,l),
(22,0,l)
);
},
{
closed = 1;
nodes = (
(232,58,l),
(232,657,l),
(275,657,ls),
(384,657,o),
(441,560,o),
(441,366,cs),
(441,173,o),
(384,58,o),
(275,58,cs)
);
}
);
width = 629;
}
);
script = latin;
subCategory = Uppercase;
unicode = 68;
}
{
category = Letter;
glyphname = I;
kernLeft = B;
kernRight = H;
layers = (
{
anchors = (
{
name = bottom;
pos = (213,0);
},
{
name = center;
pos = (213,357);
},
{
name = top;
pos = (213,714);
},
{
name = topright;
pos = (406,714);
}
);
layerId = "E17BEC9D-CAAD-449F-91D9-03766E30097E";
shapes = (
{
closed = 1;
nodes = (
(406,0,l),
(406,61,l),
(351,61,ls),
(331,61,o),
(313,81,o),
(313,110,cs),
(313,599,ls),
(313,636,o),
(327,653,o),
(351,653,cs),
(406,653,l),
(406,714,l),
(21,714,l),
(21,653,l),
(74,653,ls),
(92,653,o),
(113,636,o),
(113,600,cs),
(113,108,ls),
(113,78,o),
(92,61,o),
(74,61,cs),
(21,61,l),
(21,0,l)
);
}
);
width = 426;
},
{
anchors = (
{
name = bottom;
pos = (184,0);
},
{
name = center;
pos = (183,357);
},
{
name = top;
pos = (184,714);
},
{
name = topright;
pos = (347,714);
}
);
layerId = UUID0;
shapes = (
{
closed = 1;
nodes = (
(329,0,l),
(329,42,l),
(316,42,ls),
(271,42,o),
(234,51,o),
(234,114,cs),
(234,600,l),
(234,663,o),
(271,672,o),
(316,672,cs),
(329,672,l),
(329,714,l),
(38,714,l),
(38,672,l),
(51,672,ls),
(96,672,o),
(133,663,o),
(133,600,cs),
(133,114,ls),
(133,51,o),
(96,42,o),
(51,42,cs),
(38,42,l),
(38,0,l)
);
}
);
width = 367;
},
{
anchors = (
{
name = bottom;
pos = (201,0);
},
{
name = center;
pos = (200,357);
},
{
name = top;
pos = (201,714);
},
{
name = topright;
pos = (381,714);
}
);
layerId = "58AAA307-6DE9-4107-B80A-C255AE991657";
shapes = (
{
closed = 1;
nodes = (
(373,0,l),
(373,53,l),
(331,53,l),
(302,53,o),
(280,61,o),
(280,118,c),
(280,596,l),
(280,653,o),
(302,661,o),
(331,661,c),
(373,661,l),
(373,714,l),
(28,714,l),
(28,661,l),
(70,661,l),
(99,661,o),
(121,653,o),
(121,596,c),
(121,118,l),
(121,61,o),
(99,53,o),
(70,53,c),
(28,53,l),
(28,0,l)
);
}
);
width = 401;
},
{
anchors = (
{
name = bottom;
pos = (178,0);
},
{
name = center;
pos = (178,357);
},
{
name = top;
pos = (178,714);
},
{
name = topright;
pos = (335,714);
}
);
layerId = "75A83886-EED5-4C31-9670-660514D8A4F6";
shapes = (
{
closed = 1;
nodes = (
(339,0,l),
(339,56,l),
(293,56,ls),
(277,56,o),
(261,74,o),
(261,110,cs),
(261,600,ls),
(261,643,o),
(273,658,o),
(293,658,cs),
(339,658,l),
(339,714,l),
(18,714,l),
(18,658,l),
(62,658,ls),
(76,658,o),
(94,643,o),
(94,601,cs),
(94,109,ls),
(94,71,o),
(76,56,o),
(62,56,cs),
(18,56,l),
(18,0,l)
);
}
);
width = 355;
},
{
anchors = (
{
name = bottom;
pos = (127,0);
},
{
name = center;
pos = (126,357);
},
{
name = top;
pos = (127,714);
},
{
name = topright;
pos = (233,714);
}
);
layerId = "C91144B6-58F5-45F2-9CE4-7ED6CE127FD4";
shapes = (
{
closed = 1;
nodes = (
(216,0,l),
(216,20,l),
(196,20,ls),
(146,20,o),
(140,31,o),
(140,108,cs),
(140,606,ls),
(140,683,o),
(146,694,o),
(196,694,cs),
(216,694,l),
(216,714,l),
(36,714,l),
(36,694,l),
(56,694,ls),
(106,694,o),
(112,683,o),
(112,606,cs),
(112,108,ls),
(112,31,o),
(106,20,o),
(56,20,cs),
(36,20,l),
(36,0,l)
);
}
);
width = 253;
},
{
anchors = (
{
name = bottom;
pos = (163,0);
},
{
name = center;
pos = (161,357);
},
{
name = top;
pos = (163,714);
},
{
name = topright;
pos = (305,714);
}
);
layerId = "1D4F67F9-897D-45AD-B7F0-CA61A6862C03";
shapes = (
{
closed = 1;
nodes = (
(273,0,l),
(273,20,l),
(233,20,ls),
(183,20,o),
(177,31,o),
(177,108,cs),
(177,606,ls),
(177,683,o),
(183,694,o),
(233,694,cs),
(273,694,l),
(273,714,l),
(50,714,l),
(50,694,l),
(93,694,ls),
(143,694,o),
(149,683,o),
(149,606,cs),
(149,108,ls),
(149,31,o),
(143,20,o),
(93,20,cs),
(50,20,l),
(50,0,l)
);
}
);
width = 325;
},
{
anchors = (
{
name = bottom;
pos = (149,0);
},
{
name = center;
pos = (149,357);
},
{
name = top;
pos = (149,714);
},
{
name = topright;
pos = (277,714);
}
);
layerId = "A0CCC833-A561-4F2A-AF73-A35187C9FE5B";
shapes = (
{
closed = 1;
nodes = (
(270,0,l),
(270,41,l),
(251,41,ls),
(218,41,o),
(195,53,o),
(195,111,cs),
(195,602,ls),
(195,662,o),
(217,673,o),
(251,673,cs),
(270,673,l),
(270,714,l),
(28,714,l),
(28,673,l),
(47,673,ls),
(78,673,o),
(103,662,o),
(103,602,cs),
(103,110,ls),
(103,52,o),
(78,41,o),
(47,41,cs),
(28,41,l),
(28,0,l)
);
}
);
width = 297;
},
{
anchors = (
{
name = bottom;
pos = (165,0);
},
{
name = center;
pos = (165,357);
},
{
name = top;
pos = (165,714);
},
{
name = topright;
pos = (310,714);
}
);
layerId = "BD18C76C-096B-4C52-83B4-518A374966BE";
shapes = (
{
closed = 1;
nodes = (
(309,0,l),
(309,49,l),
(275,49,ls),
(251,49,o),
(232,65,o),
(232,110,cs),
(232,601,ls),
(232,651,o),
(249,665,o),
(275,665,cs),
(309,665,l),
(309,714,l),
(22,714,l),
(22,665,l),
(55,665,ls),
(77,665,o),
(98,651,o),
(98,602,cs),
(98,110,ls),
(98,63,o),
(77,49,o),
(55,49,cs),
(22,49,l),
(22,0,l)
);
}
);
width = 330;
}
);
script = latin;
subCategory = Uppercase;
unicode = 73;
}
{
category = Letter;
glyphname = J;
kernLeft = J;
kernRight = J;
layers = (
{
anchors = (
{
name = bottom;
pos = (120,-240);
},
{
name = center;
pos = (191,237);
},
{
name = top;
pos = (220,714);
},
{
name = topright;
pos = (388,714);
}
);
layerId = "E17BEC9D-CAAD-449F-91D9-03766E30097E";
shapes = (
{
closed = 1;
nodes = (
(23,-240,ls),
(166,-240,o),
(317,-180,o),
(317,2,cs),
(317,601,ls),
(317,636,o),
(339,653,o),
(357,653,cs),
(410,653,l),
(410,714,l),
(25,714,l),
(25,653,l),
(79,653,ls),
(95,653,o),
(117,636,o),
(117,602,cs),
(117,1,ls),
(117,-127,o),
(45,-174,o),
(-3,-174,cs),
(-27,-174,l),
(-27,-240,l)
);
}
);
width = 425;
},
{
anchors = (
{
name = bottom;
pos = (109,-240);
},
{
name = center;
pos = (159,237);
},
{
name = top;
pos = (182,714);
},
{
name = topright;
pos = (337,714);
}
);
layerId = UUID0;
shapes = (
{
closed = 1;
nodes = (
(6,-240,ls),
(134,-240,o),
(234,-187,o),
(234,-8,cs),
(234,600,l),
(234,663,o),
(271,672,o),
(316,672,cs),
(329,672,l),
(329,714,l),
(38,714,l),
(38,672,l),
(51,672,ls),
(95,672,o),
(133,663,o),
(133,604,cs),
(133,-9,ls),
(133,-150,o),
(84,-193,o),
(-2,-193,cs),
(-11,-193,l),
(-11,-240,l)
);
}
);
width = 357;
},
{
anchors = (
{
name = bottom;
pos = (112,-240);
},
{
name = center;
pos = (177,237);
},
{
name = top;
pos = (202,714);
},
{
name = topright;
pos = (366,714);
}
);
layerId = "58AAA307-6DE9-4107-B80A-C255AE991657";
shapes = (
{
closed = 1;
nodes = (
(15,-240,ls),
(152,-240,o),
(281,-183,o),
(281,-2,cs),
(281,596,ls),
(281,653,o),
(304,661,o),
(333,661,cs),
(375,661,l),
(375,714,l),
(30,714,l),
(30,661,l),
(72,661,ls),
(100,661,o),
(123,653,o),
(123,600,c),
(123,-3,ls),
(123,-137,o),
(61,-182,o),
(-3,-182,cs),
(-21,-182,l),
(-21,-240,l)
);
}
);
width = 397;
},
{
anchors = (
{
name = bottom;
pos = (116,-240);
},
{
name = center;
pos = (161,237);
},
{
name = top;
pos = (186,714);
},
{
name = topright;
pos = (322,714);
}
);
layerId = "75A83886-EED5-4C31-9670-660514D8A4F6";
shapes = (
{
closed = 1;
nodes = (
(21,-240,ls),
(141,-240,o),
(267,-182,o),
(267,-1,cs),
(267,601,ls),
(267,643,o),
(285,658,o),
(300,658,cs),
(344,658,l),
(344,714,l),
(23,714,l),
(23,658,l),
(68,658,ls),
(81,658,o),
(100,643,o),
(100,603,cs),
(100,-2,ls),
(100,-133,o),
(39,-179,o),
(-1,-179,cs),
(-21,-179,l),
(-21,-240,l)
);
}
);
width = 357;
},
{
anchors = (
{
name = bottom;
pos = (87,-240);
},
{
name = center;
pos = (116,237);
},
{
name = top;
pos = (135,714);
},
{
name = topright;
pos = (237,714);
}
);
layerId = "C91144B6-58F5-45F2-9CE4-7ED6CE127FD4";
shapes = (
{
closed = 1;
nodes = (
(10,-240,ls),
(97,-239,o),
(148,-190,o),
(148,-15,cs),
(148,606,ls),
(148,683,o),
(154,694,o),
(204,694,cs),
(224,694,l),
(224,714,l),
(44,714,l),
(44,694,l),
(64,694,ls),
(114,694,o),
(120,683,o),
(120,606,cs),
(120,-16,ls),
(120,-165,o),
(91,-215,o),
(9,-215,cs),
(8,-215,l),
(8,-240,l)
);
}
);
width = 257;
},
{
anchors = (
{
name = bottom;
pos = (92,-240);
},
{
name = center;
pos = (158,237);
},
{
name = top;
pos = (182,714);
},
{
name = topright;
pos = (323,714);
}
);
layerId = "1D4F67F9-897D-45AD-B7F0-CA61A6862C03";
shapes = (
{
closed = 1;
nodes = (
(25,-240,ls),
(157,-240,o),
(197,-174,o),
(197,-16,cs),
(197,606,ls),
(197,683,o),
(203,694,o),
(253,694,cs),
(295,694,l),
(295,714,l),
(72,714,l),
(72,694,l),
(113,694,ls),
(163,694,o),
(169,683,o),
(169,606,cs),
(169,-17,ls),
(169,-153,o),
(140,-215,o),
(30,-215,cs),
(22,-215,l),
(22,-240,l)
);
}
);
width = 343;
},
{
anchors = (
{
name = bottom;
pos = (95,-240);
},
{
name = center;
pos = (133,237);
},
{
name = top;
pos = (150,714);
},
{
name = topright;
pos = (272,714);
}
);
layerId = "A0CCC833-A561-4F2A-AF73-A35187C9FE5B";
shapes = (
{
closed = 1;
nodes = (
(11,-240,ls),
(113,-240,o),
(199,-188,o),
(199,-9,cs),
(199,602,ls),
(199,662,o),
(224,673,o),
(256,673,cs),
(274,673,l),
(274,714,l),
(33,714,l),
(33,673,l),
(50,673,ls),
(82,673,o),
(107,662,o),
(107,606,cs),
(107,-10,ls),
(107,-151,o),
(65,-194,o),
(2,-194,cs),
(-7,-194,l),
(-7,-240,l)
);
}
);
width = 296;
},
{
anchors = (
{
name = bottom;
pos = (107,-240);
},
{
name = center;
pos = (149,237);
},
{
name = top;
pos = (170,714);
},
{
name = topright;
pos = (300,714);
}
);
layerId = "BD18C76C-096B-4C52-83B4-518A374966BE";
shapes = (
{
closed = 1;
nodes = (
(17,-240,ls),
(129,-240,o),
(237,-185,o),
(237,-4,cs),
(237,602,ls),
(237,651,o),
(258,665,o),
(281,665,cs),
(314,665,l),
(314,714,l),
(27,714,l),
(27,665,l),
(60,665,ls),
(82,665,o),
(103,651,o),
(103,604,cs),
(103,-5,ls),
(103,-141,o),
(50,-186,o),
(0,-186,cs),
(-15,-186,l),
(-15,-240,l)
);
}
);
width = 330;
}
);
script = latin;
subCategory = Uppercase;
unicode = 74;
}
{
category = Letter;
glyphname = L;
kernLeft = B;
kernRight = L;
layers = (
{
anchors = (
{
name = bottom;
pos = (339,0);
},
{
name = center;
pos = (220,357);
},
{
name = top;
pos = (213,714);
},
{
name = topright;
pos = (657,714);
}
);
layerId = "E17BEC9D-CAAD-449F-91D9-03766E30097E";
shapes = (
{
closed = 1;
nodes = (
(644,0,l),
(651,229,l),
(592,229,l),
(571,154,ls),
(553,89,o),
(528,69,o),
(492,69,cs),
(314,69,l),
(314,604,ls),
(314,636,o),
(321,653,o),
(357,653,cs),
(406,653,l),
(406,714,l),
(21,714,l),
(21,653,l),
(66,653,ls),
(92,653,o),
(113,636,o),
(113,602,cs),
(113,109,ls),
(113,78,o),
(92,61,o),
(74,61,cs),
(21,61,l),
(21,0,l)
);
}
);
width = 677;
},
{
anchors = (
{
name = bottom;
pos = (312,0);
},
{
name = center;
pos = (184,357);
},
{
name = top;
pos = (180,714);
},
{
name = topright;
pos = (603,714);
}
);
layerId = UUID0;
shapes = (
{
closed = 1;
nodes = (
(574,0,l),
(581,215,l),
(529,215,l),
(519,140,ls),
(513,97,o),
(491,50,o),
(431,50,cs),
(234,50,l),
(234,604,ls),
(234,663,o),
(272,672,o),
(316,672,cs),
(329,672,l),
(329,714,l),
(38,714,l),
(38,672,l),
(51,672,ls),
(96,672,o),
(133,663,o),
(133,600,cs),
(133,114,l),
(133,51,o),
(96,42,o),
(51,42,cs),
(38,42,l),
(38,0,l)
);
}
);
width = 623;
},
{
anchors = (
{
name = bottom;
pos = (327,0);
},
{
name = center;
pos = (205,357);
},
{
name = top;
pos = (202,714);
},
{
name = topright;
pos = (634,714);
}
);
layerId = "58AAA307-6DE9-4107-B80A-C255AE991657";
shapes = (
{
closed = 1;
nodes = (
(614,0,l),
(621,223,l),
(565,223,l),
(549,148,ls),
(537,92,o),
(512,61,o),
(466,61,cs),
(280,61,l),
(280,600,l),
(280,653,o),
(303,661,o),
(331,661,cs),
(373,661,l),
(373,714,l),
(28,714,l),
(28,661,l),
(70,661,ls),
(99,661,o),
(121,653,o),
(121,596,cs),
(121,118,ls),
(121,61,o),
(99,53,o),
(70,53,cs),
(28,53,l),
(28,0,l)
);
}
);
width = 654;
},
{
anchors = (
{
name = bottom;
pos = (282,0);
},
{
name = center;
pos = (179,357);
},
{
name = top;
pos = (178,714);
},
{
name = topright;
pos = (544,714);
}
);
layerId = "75A83886-EED5-4C31-9670-660514D8A4F6";
shapes = (
{
closed = 1;
nodes = (
(538,0,l),
(543,225,l),
(494,225,l),
(476,150,ls),
(461,88,o),
(440,64,o),
(411,64,cs),
(262,64,l),
(262,605,ls),
(262,643,o),
(268,658,o),
(298,658,cs),
(339,658,l),
(339,714,l),
(18,714,l),
(18,658,l),
(55,658,ls),
(76,658,o),
(94,643,o),
(94,602,cs),
(94,109,ls),
(94,71,o),
(76,56,o),
(62,56,cs),
(18,56,l),
(18,0,l)
);
}
);
width = 564;
},
{
anchors = (
{
name = bottom;
pos = (224,0);
},
{
name = center;
pos = (124,357);
},
{
name = top;
pos = (126,714);
},
{
name = topright;
pos = (428,714);
}
);
layerId = "C91144B6-58F5-45F2-9CE4-7ED6CE127FD4";
shapes = (
{
closed = 1;
nodes = (
(406,0,l),
(410,205,l),
(390,205,l),
(387,94,ls),
(386,39,o),
(380,25,o),
(328,25,cs),
(138,25,l),
(138,606,ls),
(138,683,o),
(144,694,o),
(194,694,cs),
(216,694,l),
(216,714,l),
(36,714,l),
(36,694,l),
(54,694,ls),
(104,694,o),
(110,683,o),
(110,606,cs),
(110,108,ls),
(110,31,o),
(104,20,o),
(54,20,cs),
(36,20,l),
(36,0,l)
);
}
);
width = 448;
},
{
anchors = (
{
name = bottom;
pos = (312,0);
},
{
name = center;
pos = (163,357);
},
{
name = top;
pos = (162,714);
},
{
name = topright;
pos = (563,714);
}
);
layerId = "1D4F67F9-897D-45AD-B7F0-CA61A6862C03";
shapes = (
{
closed = 1;
nodes = (
(524,0,l),
(531,205,l),
(511,205,l),
(506,94,ls),
(504,39,o),
(498,25,o),
(446,25,cs),
(177,25,l),
(177,606,ls),
(177,683,o),
(183,694,o),
(233,694,cs),
(273,694,l),
(273,714,l),
(50,714,l),
(50,694,l),
(93,694,ls),
(143,694,o),
(149,683,o),
(149,606,cs),
(149,108,ls),
(149,31,o),
(143,20,o),
(93,20,cs),
(50,20,l),
(50,0,l)
);
}
);
width = 583;
},
{
anchors = (
{
name = bottom;
pos = (249,0);
},
{
name = center;
pos = (152,357);
},
{
name = top;
pos = (147,714);
},
{
name = topright;
pos = (478,714);
}
);
layerId = "A0CCC833-A561-4F2A-AF73-A35187C9FE5B";
shapes = (
{
closed = 1;
nodes = (
(463,0,l),
(468,214,l),
(429,214,l),
(420,139,ls),
(413,84,o),
(395,49,o),
(349,49,cs),
(195,49,l),
(195,606,ls),
(195,662,o),
(215,673,o),
(253,673,cs),
(270,673,l),
(270,714,l),
(28,714,l),
(28,673,l),
(44,673,ls),
(78,673,o),
(103,662,o),
(103,603,cs),
(103,110,ls),
(103,52,o),
(78,41,o),
(47,41,cs),
(28,41,l),
(28,0,l)
);
}
);
width = 498;
},
{
anchors = (
{
name = bottom;
pos = (268,0);
},
{
name = center;
pos = (169,357);
},
{
name = top;
pos = (160,714);
},
{
name = topright;
pos = (515,714);
}
);
layerId = "BD18C76C-096B-4C52-83B4-518A374966BE";
shapes = (
{
closed = 1;
nodes = (
(506,0,l),
(510,220,l),
(466,220,l),
(452,145,ls),
(440,86,o),
(421,57,o),
(384,57,cs),
(233,57,l),
(233,606,ls),
(233,651,o),
(245,665,o),
(279,665,cs),
(309,665,l),
(309,714,l),
(22,714,l),
(22,665,l),
(50,665,ls),
(77,665,o),
(98,651,o),
(98,602,cs),
(98,110,ls),
(98,63,o),
(77,49,o),
(55,49,cs),
(22,49,l),
(22,0,l)
);
}
);
width = 535;
}
);
script = latin;
subCategory = Uppercase;
unicode = 76;
}
{
category = Letter;
glyphname = R;
kernLeft = B;
kernRight = R;
layers = (
{
anchors = (
{
name = bottom;
pos = (407,0);
},
{
name = center;
pos = (387,357);
},
{
name = top;
pos = (377,714);
},
{
name = topright;
pos = (733,714);
}
);
layerId = "E17BEC9D-CAAD-449F-91D9-03766E30097E";
shapes = (
{
closed = 1;
nodes = (
(386,0,l),
(386,61,l),
(362,61,ls),
(333,61,o),
(313,67,o),
(313,116,cs),
(313,306,l),
(366,306,l),
(471,90,ls),
(508,15,o),
(590,0,o),
(706,0,cs),
(753,0,l),
(753,61,l),
(746,61,ls),
(713,61,o),
(691,86,o),
(655,148,cs),
(541,341,l),
(618,362,o),
(683,410,o),
(683,525,cs),
(683,638,o),
(606,714,o),
(382,714,cs),
(21,714,l),
(21,653,l),
(59,653,ls),
(79,653,o),
(113,646,o),
(113,597,cs),
(113,116,ls),
(113,67,o),
(84,61,o),
(59,61,cs),
(21,61,l),
(21,0,l)
);
},
{
closed = 1;
nodes = (
(313,372,l),
(313,647,l),
(356,647,l),
(430,647,o),
(470,609,o),
(470,513,cs),
(470,419,o),
(436,372,o),
(358,372,cs)
);
}
);
width = 753;
},
{
anchors = (
{
name = bottom;
pos = (368,0);
},
{
name = center;
pos = (350,357);
},
{
name = top;
pos = (328,714);
},
{
name = topright;
pos = (636,714);
}
);
layerId = UUID0;
shapes = (
{
closed = 1;
nodes = (
(329,0,l),
(329,42,l),
(316,42,ls),
(272,42,o),
(234,50,o),
(234,109,cs),
(234,315,l),
(317,315,l),
(452,90,ls),
(497,14,o),
(523,0,o),
(648,0,cs),
(662,0,l),
(662,42,l),
(659,42,ls),
(617,42,o),
(588,69,o),
(554,122,c),
(417,339,l),
(488,363,o),
(564,414,o),
(564,521,cs),
(564,650,o),
(480,714,o),
(307,714,cs),
(38,714,l),
(38,672,l),
(51,672,ls),
(95,672,o),
(133,663,o),
(133,604,cs),
(133,109,ls),
(133,50,o),
(95,42,o),
(51,42,cs),
(38,42,l),
(38,0,l)
);
},
{
closed = 1;
nodes = (
(234,362,l),
(234,666,l),
(302,666,ls),
(415,666,o),
(457,625,o),
(457,518,cs),
(457,414,o),
(421,362,o),
(304,362,cs)
);
}
);
width = 656;
},
{
anchors = (
{
name = bottom;
pos = (394,0);
},
{
name = center;
pos = (369,357);
},
{
name = top;
pos = (354,714);
},
{
name = topright;
pos = (687,714);
}
);
layerId = "58AAA307-6DE9-4107-B80A-C255AE991657";
shapes = (
{
closed = 1;
nodes = (
(373,0,l),
(373,53,l),
(330,53,ls),
(303,53,o),
(279,60,o),
(279,113,cs),
(279,310,l),
(345,310,l),
(464,90,ls),
(505,15,o),
(558,0,o),
(678,0,cs),
(711,0,l),
(711,53,l),
(707,53,ls),
(669,53,o),
(641,77,o),
(607,135,cs),
(488,340,l),
(555,367,o),
(624,423,o),
(624,529,cs),
(624,649,o),
(539,714,o),
(350,714,cs),
(28,714,l),
(28,661,l),
(70,661,ls),
(97,661,o),
(121,653,o),
(121,600,cs),
(121,113,ls),
(121,60,o),
(97,53,o),
(70,53,cs),
(28,53,l),
(28,0,l)
);
},
{
closed = 1;
nodes = (
(279,368,l),
(279,655,l),
(333,655,ls),
(422,655,o),
(456,616,o),
(456,515,cs),
(456,417,o),
(427,368,o),
(335,368,cs)
);
}
);
width = 707;
},
{
anchors = (
{
name = bottom;
pos = (344,0);
},
{
name = center;
pos = (323,357);
},
{
name = top;
pos = (314,714);
},
{
name = topright;
pos = (608,714);
}
);
layerId = "75A83886-EED5-4C31-9670-660514D8A4F6";
shapes = (
{
closed = 1;
nodes = (
(322,0,l),
(322,56,l),
(302,56,ls),
(278,56,o),
(262,62,o),
(262,114,cs),
(262,308,l),
(305,308,l),
(393,90,ls),
(423,15,o),
(492,0,o),
(589,0,cs),
(628,0,l),
(628,56,l),
(622,56,ls),
(595,56,o),
(576,81,o),
(548,141,cs),
(452,340,l),
(516,361,o),
(570,411,o),
(570,525,cs),
(570,643,o),
(506,714,o),
(319,714,cs),
(18,714,l),
(18,658,l),
(50,658,ls),
(66,658,o),
(94,651,o),
(94,599,cs),
(94,114,ls),
(94,62,o),
(70,56,o),
(50,56,cs),
(18,56,l),
(18,0,l)
);
},
{
closed = 1;
nodes = (
(262,369,l),
(262,652,l),
(297,652,ls),
(359,652,o),
(392,611,o),
(392,515,cs),
(392,419,o),
(364,369,o),
(299,369,cs)
);
}
);
width = 628;
},
{
anchors = (
{
name = bottom;
pos = (239,0);
},
{
name = center;
pos = (250,357);
},
{
name = top;
pos = (229,714);
},
{
name = topright;
pos = (437,714);
}
);
layerId = "C91144B6-58F5-45F2-9CE4-7ED6CE127FD4";
shapes = (
{
closed = 1;
nodes = (
(219,0,l),
(219,20,l),
(194,20,ls),
(144,20,o),
(138,31,o),
(138,108,cs),
(138,321,l),
(233,321,l),
(347,93,ls),
(385,21,o),
(408,0,o),
(461,0,cs),
(464,0,l),
(464,20,l),
(459,20,ls),
(423,20,o),
(402,47,o),
(372,106,cs),
(259,330,l),
(317,349,o),
(380,393,o),
(380,528,cs),
(380,649,o),
(329,714,o),
(200,714,cs),
(36,714,l),
(36,694,l),
(54,694,ls),
(104,694,o),
(110,683,o),
(110,606,cs),
(110,108,ls),
(110,31,o),
(104,20,o),
(54,20,cs),
(36,20,l),
(36,0,l)
);
},
{
closed = 1;
nodes = (
(138,346,l),
(138,689,l),
(206,689,ls),
(313,689,o),
(352,629,o),
(352,528,cs),
(352,410,o),
(301,346,o),
(189,346,cs)
);
}
);
width = 457;
},
{
anchors = (
{
name = bottom;
pos = (326,0);
},
{
name = center;
pos = (325,357);
},
{
name = top;
pos = (296,714);
},
{
name = topright;
pos = (572,714);
}
);
layerId = "1D4F67F9-897D-45AD-B7F0-CA61A6862C03";
shapes = (
{
closed = 1;
nodes = (
(273,0,l),
(273,20,l),
(233,20,ls),
(183,20,o),
(177,31,o),
(177,108,cs),
(177,321,l),
(301,321,l),
(456,90,ls),
(503,21,o),
(518,0,o),
(596,0,cs),
(600,0,l),
(600,28,l),
(589,28,ls),
(546,28,o),
(521,46,o),
(480,106,cs),
(329,329,l),
(420,351,o),
(488,416,o),
(488,533,cs),
(488,664,o),
(420,714,o),
(253,714,cs),
(50,714,l),
(50,694,l),
(93,694,ls),
(143,694,o),
(149,683,o),
(149,606,cs),
(149,108,ls),
(149,31,o),
(143,20,o),
(93,20,cs),
(50,20,l),
(50,0,l)
);
},
{
closed = 1;
nodes = (
(177,346,l),
(177,689,l),
(264,689,ls),
(417,689,o),
(460,631,o),
(460,532,cs),
(460,415,o),
(382,346,o),
(259,346,cs)
);
}
);
width = 592;
},
{
anchors = (
{
name = bottom;
pos = (284,0);
},
{
name = center;
pos = (281,357);
},
{
name = top;
pos = (266,714);
},
{
name = topright;
pos = (512,714);
}
);
layerId = "A0CCC833-A561-4F2A-AF73-A35187C9FE5B";
shapes = (
{
closed = 1;
nodes = (
(264,0,l),
(264,41,l),
(255,41,ls),
(219,41,o),
(196,49,o),
(196,108,cs),
(196,315,l),
(261,315,l),
(365,90,ls),
(397,16,o),
(436,0,o),
(520,0,cs),
(535,0,l),
(535,41,l),
(532,41,ls),
(500,41,o),
(477,69,o),
(451,121,cs),
(345,336,l),
(409,360,o),
(463,414,o),
(463,526,cs),
(463,657,o),
(399,714,o),
(252,714,cs),
(28,714,l),
(28,673,l),
(42,673,ls),
(75,673,o),
(103,664,o),
(103,605,cs),
(103,108,ls),
(103,49,o),
(76,41,o),
(42,41,cs),
(28,41,l),
(28,0,l)
);
},
{
closed = 1;
nodes = (
(196,361,l),
(196,667,l),
(246,667,ls),
(331,667,o),
(366,618,o),
(366,522,cs),
(366,418,o),
(326,361,o),
(237,361,cs)
);
}
);
width = 532;
},
{
anchors = (
{
name = bottom;
pos = (323,0);
},
{
name = center;
pos = (305,357);
},
{
name = top;
pos = (293,714);
},
{
name = topright;
pos = (566,714);
}
);
layerId = "BD18C76C-096B-4C52-83B4-518A374966BE";
shapes = (
{
closed = 1;
nodes = (
(297,0,l),
(297,49,l),
(281,49,ls),
(252,49,o),
(233,56,o),
(233,111,cs),
(233,311,l),
(286,311,l),
(381,90,ls),
(412,16,o),
(468,0,o),
(559,0,cs),
(588,0,l),
(588,49,l),
(583,49,ls),
(554,49,o),
(533,76,o),
(506,132,cs),
(406,338,l),
(469,360,o),
(523,412,o),
(523,526,cs),
(523,649,o),
(460,714,o),
(290,714,cs),
(22,714,l),
(22,665,l),
(47,665,ls),
(70,665,o),
(98,657,o),
(98,602,cs),
(98,111,ls),
(98,56,o),
(73,49,o),
(47,49,cs),
(22,49,l),
(22,0,l)
);
},
{
closed = 1;
nodes = (
(233,366,l),
(233,659,l),
(275,659,ls),
(347,659,o),
(381,614,o),
(381,518,cs),
(381,418,o),
(348,366,o),
(272,366,cs)
);
}
);
width = 586;
}
);
script = latin;
subCategory = Uppercase;
unicode = 82;
}
{
category = Letter;
glyphname = S;
kernLeft = S;
kernRight = S;
layers = (
{
anchors = (
{
name = bottom;
pos = (303,0);
},
{
name = center;
pos = (299,357);
},
{
name = top;
pos = (311,714);
},
{
name = topright;
pos = (585,714);
}
);
layerId = "E17BEC9D-CAAD-449F-91D9-03766E30097E";
shapes = (
{
closed = 1;
nodes = (
(462,-10,o),
(575,82,o),
(575,212,cs),
(575,307,o),
(532,377,o),
(380,438,cs),
(231,498,o),
(203,539,o),
(203,579,cs),
(203,632,o),
(242,655,o),
(291,655,cs),
(362,655,o),
(402,576,o),
(402,509,c),
(509,509,o),
(547,548,o),
(547,598,cs),
(547,659,o),
(477,724,o),
(315,724,cs),
(163,724,o),
(46,646,o),
(46,518,cs),
(46,429,o),
(88,355,o),
(240,293,cs),
(348,249,o),
(416,217,o),
(416,153,cs),
(416,107,o),
(376,58,o),
(306,58,cs),
(236,58,o),
(157,105,o),
(157,241,c),
(90,241,o),
(24,218,o),
(24,129,cs),
(24,78,o),
(69,-10,o),
(284,-10,cs)
);
}
);
width = 605;
},
{
anchors = (
{
name = bottom;
pos = (272,0);
},
{
name = center;
pos = (270,357);
},
{
name = top;
pos = (272,714);
},
{
name = topright;
pos = (524,714);
}
);
layerId = UUID0;
shapes = (
{
closed = 1;
nodes = (
(397,-10,o),
(493,64,o),
(493,191,cs),
(493,294,o),
(424,350,o),
(307,398,cs),
(191,445,o),
(152,480,o),
(152,560,cs),
(152,629,o),
(197,674,o),
(274,674,c),
(358,674,o),
(386,609,o),
(386,547,c),
(434,547,o),
(465,569,o),
(465,612,cs),
(465,670,o),
(397,724,o),
(278,724,cs),
(152,724,o),
(59,657,o),
(59,543,cs),
(59,433,o),
(119,372,o),
(243,321,cs),
(360,273,o),
(398,238,o),
(398,165,cs),
(398,84,o),
(344,39,o),
(255,39,cs),
(161,39,o),
(124,115,o),
(120,198,c),
(74,198,o),
(48,171,o),
(48,131,cs),
(48,47,o),
(116,-10,o),
(247,-10,cs)
);
}
);
width = 544;
},
{
anchors = (
{
name = bottom;
pos = (293,0);
},
{
name = center;
pos = (283,357);
},
{
name = top;
pos = (293,714);
},
{
name = topright;
pos = (566,714);
}
);
layerId = "58AAA307-6DE9-4107-B80A-C255AE991657";
shapes = (
{
closed = 1;
nodes = (
(430,-10,o),
(536,80,o),
(536,209,cs),
(536,307,o),
(482,365,o),
(345,421,cs),
(210,475,o),
(180,514,o),
(180,571,cs),
(180,631,o),
(225,663,o),
(279,663,cs),
(356,663,o),
(385,581,o),
(385,525,c),
(467,525,o),
(508,561,o),
(508,608,cs),
(508,673,o),
(442,724,o),
(295,724,cs),
(154,724,o),
(50,645,o),
(50,523,cs),
(50,425,o),
(97,362,o),
(237,305,cs),
(349,259,o),
(404,226,o),
(404,158,cs),
(404,97,o),
(358,50,o),
(280,50,cs),
(200,50,o),
(143,109,o),
(143,223,c),
(85,223,o),
(30,198,o),
(30,130,cs),
(30,65,o),
(85,-10,o),
(264,-10,cs)
);
}
);
width = 586;
},
{
anchors = (
{
name = bottom;
pos = (252,0);
},
{
name = center;
pos = (250,357);
},
{
name = top;
pos = (261,714);
},
{
name = topright;
pos = (484,714);
}
);
layerId = "75A83886-EED5-4C31-9670-660514D8A4F6";
shapes = (
{
closed = 1;
nodes = (
(385,-10,o),
(480,76,o),
(480,206,cs),
(480,304,o),
(444,370,o),
(317,429,cs),
(193,486,o),
(170,526,o),
(170,574,cs),
(170,632,o),
(202,661,o),
(243,661,cs),
(302,661,o),
(335,586,o),
(335,519,c),
(425,519,o),
(456,553,o),
(456,601,cs),
(456,661,o),
(398,724,o),
(263,724,cs),
(136,724,o),
(38,648,o),
(38,526,cs),
(38,432,o),
(73,363,o),
(199,302,cs),
(290,258,o),
(346,224,o),
(346,155,cs),
(346,100,o),
(314,52,o),
(256,52,cs),
(197,52,o),
(131,104,o),
(131,229,c),
(75,229,o),
(20,205,o),
(20,128,cs),
(20,70,o),
(57,-10,o),
(237,-10,cs)
);
}
);
width = 504;
},
{
anchors = (
{
name = bottom;
pos = (191,0);
},
{
name = center;
pos = (194,357);
},
{
name = top;
pos = (198,714);
},
{
name = topright;
pos = (362,714);
}
);
layerId = "C91144B6-58F5-45F2-9CE4-7ED6CE127FD4";
shapes = (
{
closed = 1;
nodes = (
(289,-10,o),
(340,54,o),
(340,172,cs),
(340,284,o),
(277,328,o),
(204,376,cs),
(127,425,o),
(91,463,o),
(91,557,cs),
(91,638,o),
(127,699,o),
(202,699,cs),
(270,699,o),
(306,648,o),
(306,573,c),
(317,573,o),
(327,584,o),
(327,614,cs),
(327,664,o),
(283,724,o),
(202,724,cs),
(113,724,o),
(63,653,o),
(63,565,cs),
(63,447,o),
(118,398,o),
(187,353,cs),
(276,296,o),
(312,264,o),
(312,163,cs),
(312,65,o),
(269,15,o),
(190,15,cs),
(105,15,o),
(71,88,o),
(67,168,c),
(51,168,o),
(48,140,o),
(48,124,cs),
(48,64,o),
(89,-10,o),
(189,-10,cs)
);
}
);
width = 382;
},
{
anchors = (
{
name = bottom;
pos = (255,0);
},
{
name = center;
pos = (256,357);
},
{
name = top;
pos = (265,714);
},
{
name = topright;
pos = (470,714);
}
);
layerId = "1D4F67F9-897D-45AD-B7F0-CA61A6862C03";
shapes = (
{
closed = 1;
nodes = (
(379,-10,o),
(437,67,o),
(437,169,cs),
(437,286,o),
(350,330,o),
(259,384,cs),
(175,433,o),
(128,469,o),
(128,554,cs),
(128,636,o),
(176,699,o),
(271,699,cs),
(358,699,o),
(408,661,o),
(408,575,c),
(422,575,o),
(429,589,o),
(429,614,cs),
(429,675,o),
(364,724,o),
(272,724,cs),
(167,724,o),
(100,650,o),
(100,559,cs),
(100,458,o),
(142,417,o),
(249,357,cs),
(363,293,o),
(409,249,o),
(409,168,cs),
(409,78,o),
(364,15,o),
(261,15,cs),
(155,15,o),
(96,66,o),
(96,166,c),
(82,166,o),
(75,150,o),
(75,126,cs),
(75,59,o),
(134,-10,o),
(261,-10,cs)
);
}
);
width = 490;
},
{
anchors = (
{
name = bottom;
pos = (218,0);
},
{
name = center;
pos = (218,357);
},
{
name = top;
pos = (228,714);
},
{
name = topright;
pos = (415,714);
}
);
layerId = "A0CCC833-A561-4F2A-AF73-A35187C9FE5B";
shapes = (
{
closed = 1;
nodes = (
(323,-10,o),
(401,60,o),
(401,187,cs),
(401,294,o),
(350,348,o),
(253,401,cs),
(159,452,o),
(130,487,o),
(130,559,cs),
(130,631,o),
(161,677,o),
(220,677,cs),
(284,677,o),
(315,617,o),
(315,550,c),
(360,550,o),
(384,568,o),
(384,611,cs),
(384,666,o),
(329,724,o),
(229,724,cs),
(130,724,o),
(53,654,o),
(53,548,cs),
(53,439,o),
(99,381,o),
(192,328,cs),
(279,279,o),
(323,243,o),
(323,160,cs),
(323,81,o),
(286,36,o),
(219,36,cs),
(150,36,o),
(106,100,o),
(101,195,c),
(63,195,o),
(36,168,o),
(36,126,cs),
(36,45,o),
(91,-10,o),
(213,-10,cs)
);
}
);
width = 435;
},
{
anchors = (
{
name = bottom;
pos = (237,0);
},
{
name = center;
pos = (236,357);
},
{
name = top;
pos = (247,714);
},
{
name = topright;
pos = (454,714);
}
);
layerId = "BD18C76C-096B-4C52-83B4-518A374966BE";
shapes = (
{
closed = 1;
nodes = (
(358,-10,o),
(446,69,o),
(446,198,cs),
(446,300,o),
(403,360,o),
(289,417,cs),
(178,471,o),
(153,509,o),
(153,567,cs),
(153,631,o),
(184,668,o),
(233,668,cs),
(294,668,o),
(326,600,o),
(326,532,c),
(397,532,o),
(425,560,o),
(425,605,cs),
(425,663,o),
(368,724,o),
(248,724,cs),
(133,724,o),
(44,651,o),
(44,536,cs),
(44,435,o),
(84,371,o),
(196,313,cs),
(285,267,o),
(336,232,o),
(336,157,cs),
(336,92,o),
(302,45,o),
(240,45,cs),
(176,45,o),
(120,102,o),
(118,214,c),
(70,214,o),
(27,189,o),
(27,127,cs),
(27,59,o),
(72,-10,o),
(227,-10,cs)
);
}
);
width = 474;
}
);
script = latin;
subCategory = Uppercase;
unicode = 83;
}
{
category = Punctuation;
glyphname = bracketleft;
kernRight = parenleft;
layers = (
{
layerId = "E17BEC9D-CAAD-449F-91D9-03766E30097E";
shapes = (
{
closed = 1;
nodes = (
(417,-128,l),
(417,-67,l),
(374,-67,ls),
(329,-67,o),
(292,-58,o),
(292,5,cs),
(292,627,ls),
(292,690,o),
(329,699,o),
(374,699,cs),
(417,699,l),
(417,760,l),
(100,760,l),
(100,-128,l)
);
}
);
width = 454;
},
{
layerId = UUID0;
shapes = (
{
closed = 1;
nodes = (
(323,-128,l),
(323,-86,l),
(280,-86,ls),
(235,-86,o),
(198,-77,o),
(198,-14,cs),
(198,646,ls),
(198,709,o),
(235,718,o),
(280,718,cs),
(323,718,l),
(323,760,l),
(100,760,l),
(100,-128,l)
);
}
);
width = 360;
},
{
layerId = "58AAA307-6DE9-4107-B80A-C255AE991657";
shapes = (
{
closed = 1;
nodes = (
(377,-128,l),
(377,-75,l),
(334,-75,ls),
(289,-75,o),
(252,-66,o),
(252,-3,cs),
(252,635,ls),
(252,698,o),
(289,707,o),
(334,707,cs),
(377,707,l),
(377,760,l),
(100,760,l),
(100,-128,l)
);
}
);
width = 414;
},
{
layerId = "75A83886-EED5-4C31-9670-660514D8A4F6";
shapes = (
{
closed = 1;
nodes = (
(348,-128,l),
(348,-72,l),
(313,-72,ls),
(275,-72,o),
(244,-63,o),
(244,0,cs),
(244,632,ls),
(244,695,o),
(275,704,o),
(313,704,cs),
(348,704,l),
(348,760,l),
(83,760,l),
(83,-128,l)
);
}
);
width = 379;
},
{
layerId = "C91144B6-58F5-45F2-9CE4-7ED6CE127FD4";
shapes = (
{
closed = 1;
nodes = (
(204,-128,l),
(204,-108,l),
(159,-108,ls),
(109,-108,o),
(103,-97,o),
(103,-20,cs),
(103,652,ls),
(103,729,o),
(109,740,o),
(159,740,cs),
(204,740,l),
(204,760,l),
(75,760,l),
(75,-128,l)
);
}
);
width = 233;
},
{
layerId = "1D4F67F9-897D-45AD-B7F0-CA61A6862C03";
shapes = (
{
closed = 1;
nodes = (
(255,-128,l),
(255,-108,l),
(184,-108,ls),
(134,-108,o),
(128,-97,o),
(128,-20,cs),
(128,652,ls),
(128,729,o),
(134,740,o),
(184,740,cs),
(255,740,l),
(255,760,l),
(100,760,l),
(100,-128,l)
);
}
);
width = 292;
},
{
layerId = "A0CCC833-A561-4F2A-AF73-A35187C9FE5B";
shapes = (
{
closed = 1;
nodes = (
(267,-128,l),
(267,-87,l),
(233,-87,ls),
(198,-87,o),
(168,-78,o),
(168,-15,cs),
(168,647,ls),
(168,710,o),
(198,719,o),
(233,719,cs),
(267,719,l),
(267,760,l),
(79,760,l),
(79,-128,l)
);
}
);
width = 296;
},
{
layerId = "BD18C76C-096B-4C52-83B4-518A374966BE";
shapes = (
{
closed = 1;
nodes = (
(313,-128,l),
(313,-79,l),
(278,-79,ls),
(241,-79,o),
(211,-70,o),
(211,-7,cs),
(211,639,ls),
(211,702,o),
(241,711,o),
(278,711,cs),
(313,711,l),
(313,760,l),
(81,760,l),
(81,-128,l)
);
}
);
width = 343;
}
);
script = "";
subCategory = Parenthesis;
unicode = 91;
}
{
category = Letter;
glyphname = i;
kernLeft = i;
kernRight = i;
layers = (
{
anchors = (
{
name = bottom;
pos = (188,0);
},
{
name = center;
pos = (180,388);
},
{
name = top;
pos = (178,777);
},
{
name = topright;
pos = (326,777);
}
);
layerId = "E17BEC9D-CAAD-449F-91D9-03766E30097E";
shapes = (
{
closed = 1;
nodes = (
(355,0,l),
(355,61,l),
(344,61,ls),
(307,61,o),
(281,78,o),
(281,131,cs),
(281,536,l),
(5,536,l),
(5,475,l),
(24,475,ls),
(60,475,o),
(87,458,o),
(87,409,cs),
(87,135,ls),
(87,79,o),
(62,61,o),
(24,61,c),
(12,61,l),
(12,0,l)
);
},
{
closed = 1;
nodes = (
(236,619,o),
(286,647,o),
(286,698,cs),
(286,752,o),
(236,777,o),
(179,777,cs),
(119,777,o),
(73,752,o),
(73,698,cs),
(73,647,o),
(119,619,o),
(179,619,cs)
);
}
);
width = 376;
},
{
anchors = (
{
name = bottom;
pos = (160,0);
},
{
name = center;
pos = (165,380);
},
{
name = top;
pos = (160,760);
},
{
name = topright;
pos = (250,760);
}
);
layerId = UUID0;
shapes = (
{
closed = 1;
nodes = (
(307,0,l),
(307,42,l),
(294,42,ls),
(249,42,o),
(212,51,o),
(212,114,cs),
(212,536,l),
(33,536,l),
(33,494,l),
(36,494,ls),
(80,494,o),
(118,485,o),
(118,426,c),
(118,109,l),
(118,50,o),
(80,42,o),
(36,42,c),
(23,42,l),
(23,0,l)
);
},
{
closed = 1;
nodes = (
(192,636,o),
(218,652,o),
(218,698,cs),
(218,745,o),
(192,760,o),
(161,760,cs),
(129,760,o),
(104,745,o),
(104,698,cs),
(104,652,o),
(129,636,o),
(161,636,cs)
);
}
);
width = 320;
},
{
anchors = (
{
name = bottom;
pos = (176,0);
},
{
name = center;
pos = (176,385);
},
{
name = top;
pos = (173,770);
},
{
name = topright;
pos = (292,770);
}
);
layerId = "58AAA307-6DE9-4107-B80A-C255AE991657";
shapes = (
{
closed = 1;
nodes = (
(335,0,l),
(335,53,l),
(323,53,ls),
(294,53,o),
(252,61,o),
(252,118,cs),
(252,536,l),
(17,536,l),
(17,483,l),
(29,483,ls),
(57,483,o),
(100,475,o),
(100,422,cs),
(100,118,ls),
(100,61,o),
(58,53,o),
(29,53,cs),
(17,53,l),
(17,0,l)
);
},
{
closed = 1;
nodes = (
(217,626,o),
(257,649,o),
(257,698,cs),
(257,749,o),
(217,770,o),
(171,770,cs),
(123,770,o),
(86,749,o),
(86,698,c),
(86,649,o),
(123,626,o),
(171,626,cs)
);
}
);
width = 352;
},
{
anchors = (
{
name = bottom;
pos = (157,0);
},
{
name = center;
pos = (150,385);
},
{
name = top;
pos = (150,771);
},
{
name = topright;
pos = (283,771);
}
);
layerId = "75A83886-EED5-4C31-9670-660514D8A4F6";
shapes = (
{
closed = 1;
nodes = (
(296,0,l),
(296,56,l),
(287,56,ls),
(256,56,o),
(234,71,o),
(234,127,cs),
(234,536,l),
(4,536,l),
(4,480,l),
(19,480,ls),
(49,480,o),
(72,465,o),
(72,413,cs),
(72,129,ls),
(72,72,o),
(51,56,o),
(19,56,cs),
(10,56,l),
(10,0,l)
);
},
{
closed = 1;
nodes = (
(197,625,o),
(238,649,o),
(238,698,cs),
(238,749,o),
(197,771,o),
(149,771,cs),
(99,771,o),
(61,749,o),
(61,698,cs),
(61,649,o),
(99,625,o),
(149,625,cs)
);
}
);
width = 313;
},
{
anchors = (
{
name = bottom;
pos = (119,0);
},
{
name = center;
pos = (117,369);
},
{
name = top;
pos = (114,738);
},
{
name = topright;
pos = (179,738);
}
);
layerId = "C91144B6-58F5-45F2-9CE4-7ED6CE127FD4";
shapes = (
{
closed = 1;
nodes = (
(212,0,l),
(212,20,l),
(199,20,ls),
(139,20,o),
(133,26,o),
(133,96,cs),
(133,536,l),
(37,536,l),
(37,516,l),
(43,516,ls),
(101,516,o),
(105,508,o),
(105,437,cs),
(105,96,ls),
(105,26,o),
(99,20,o),
(38,20,cs),
(22,20,l),
(22,0,l)
);
},
{
closed = 1;
nodes = (
(127,658,o),
(137,666,o),
(137,698,cs),
(137,729,o),
(127,738,o),
(114,738,cs),
(100,738,o),
(92,729,o),
(92,698,cs),
(92,666,o),
(100,658,o),
(114,658,cs)
);
}
);
width = 219;
},
{
anchors = (
{
name = bottom;
pos = (150,0);
},
{
name = center;
pos = (152,369);
},
{
name = top;
pos = (145,738);
},
{
name = topright;
pos = (230,738);
}
);
layerId = "1D4F67F9-897D-45AD-B7F0-CA61A6862C03";
shapes = (
{
closed = 1;
nodes = (
(273,0,l),
(273,20,l),
(243,20,ls),
(170,20,o),
(166,24,o),
(166,94,cs),
(166,536,l),
(53,536,l),
(53,516,l),
(71,516,ls),
(131,516,o),
(138,512,o),
(138,438,cs),
(138,94,ls),
(138,24,o),
(134,20,o),
(61,20,cs),
(31,20,l),
(31,0,l)
);
},
{
closed = 1;
nodes = (
(162,658,o),
(170,666,o),
(170,698,cs),
(170,729,o),
(162,738,o),
(147,738,cs),
(133,738,o),
(124,729,o),
(124,698,cs),
(124,666,o),
(133,658,o),
(147,658,cs)
);
}
);
width = 280;
},
{
anchors = (
{
name = bottom;
pos = (133,0);
},
{
name = center;
pos = (133,377);
},
{
name = top;
pos = (130,755);
},
{
name = topright;
pos = (222,755);
}
);
layerId = "A0CCC833-A561-4F2A-AF73-A35187C9FE5B";
shapes = (
{
closed = 1;
nodes = (
(249,0,l),
(249,41,l),
(239,41,ls),
(200,41,o),
(176,52,o),
(176,115,cs),
(176,536,l),
(22,536,l),
(22,495,l),
(32,495,ls),
(69,495,o),
(90,484,o),
(90,425,cs),
(90,110,ls),
(90,51,o),
(65,41,o),
(27,41,cs),
(17,41,l),
(17,0,l)
);
},
{
closed = 1;
nodes = (
(158,641,o),
(181,656,o),
(181,698,cs),
(181,740,o),
(158,755,o),
(129,755,cs),
(100,755,o),
(79,740,o),
(79,698,cs),
(79,656,o),
(100,641,o),
(129,641,cs)
);
}
);
width = 260;
},
{
anchors = (
{
name = bottom;
pos = (145,0);
},
{
name = center;
pos = (143,382);
},
{
name = top;
pos = (141,764);
},
{
name = topright;
pos = (257,764);
}
);
layerId = "BD18C76C-096B-4C52-83B4-518A374966BE";
shapes = (
{
closed = 1;
nodes = (
(275,0,l),
(275,49,l),
(266,49,ls),
(232,49,o),
(209,63,o),
(209,122,cs),
(209,536,l),
(12,536,l),
(12,487,l),
(25,487,ls),
(58,487,o),
(80,473,o),
(80,418,cs),
(80,121,ls),
(80,63,o),
(57,49,o),
(22,49,cs),
(13,49,l),
(13,0,l)
);
},
{
closed = 1;
nodes = (
(180,632,o),
(213,652,o),
(213,698,cs),
(213,745,o),
(180,764,o),
(140,764,cs),
(99,764,o),
(69,745,o),
(69,698,cs),
(69,652,o),
(99,632,o),
(140,632,cs)
);
}
);
width = 290;
}
);
script = latin;
subCategory = Lowercase;
unicode = 105;
}
{
category = Letter;
glyphname = l;
kernLeft = l;
kernRight = l;
layers = (
{
anchors = (
{
name = bottom;
pos = (192,0);
},
{
name = center;
pos = (192,268);
},
{
name = top;
pos = (192,760);
},
{
name = topright;
pos = (343,760);
}
);
layerId = "E17BEC9D-CAAD-449F-91D9-03766E30097E";
shapes = (
{
closed = 1;
nodes = (
(363,0,l),
(363,61,l),
(352,61,ls),
(315,61,o),
(289,78,o),
(289,131,cs),
(289,760,l),
(20,760,l),
(20,699,l),
(31,699,ls),
(47,699,o),
(94,692,o),
(94,643,cs),
(94,131,ls),
(94,78,o),
(68,61,o),
(31,61,c),
(20,61,l),
(20,0,l)
);
}
);
width = 383;
},
{
anchors = (
{
name = bottom;
pos = (155,0);
},
{
name = center;
pos = (155,268);
},
{
name = top;
pos = (155,760);
},
{
name = topright;
pos = (240,760);
}
);
layerId = UUID0;
shapes = (
{
closed = 1;
nodes = (
(297,0,l),
(297,42,l),
(284,42,ls),
(239,42,o),
(202,51,o),
(202,114,cs),
(202,760,l),
(13,760,l),
(13,718,l),
(26,718,ls),
(70,718,o),
(108,709,o),
(108,650,cs),
(108,114,ls),
(108,51,o),
(71,42,o),
(26,42,c),
(13,42,l),
(13,0,l)
);
}
);
width = 310;
},
{
anchors = (
{
name = bottom;
pos = (176,0);
},
{
name = center;
pos = (176,268);
},
{
name = top;
pos = (176,760);
},
{
name = topright;
pos = (302,760);
}
);
layerId = "58AAA307-6DE9-4107-B80A-C255AE991657";
shapes = (
{
closed = 1;
nodes = (
(335,0,l),
(335,53,l),
(323,53,ls),
(294,53,o),
(252,61,o),
(252,118,cs),
(252,760,l),
(17,760,l),
(17,707,l),
(29,707,ls),
(57,707,o),
(100,699,o),
(100,646,cs),
(100,118,ls),
(100,61,o),
(58,53,o),
(29,53,cs),
(17,53,l),
(17,0,l)
);
}
);
width = 352;
},
{
anchors = (
{
name = bottom;
pos = (160,0);
},
{
name = center;
pos = (160,268);
},
{
name = top;
pos = (160,760);
},
{
name = topright;
pos = (299,760);
}
);
layerId = "75A83886-EED5-4C31-9670-660514D8A4F6";
shapes = (
{
closed = 1;
nodes = (
(302,0,l),
(302,56,l),
(294,56,ls),
(263,56,o),
(241,71,o),
(241,127,cs),
(241,760,l),
(16,760,l),
(16,704,l),
(26,704,ls),
(39,704,o),
(78,697,o),
(78,645,cs),
(78,127,ls),
(78,71,o),
(56,56,o),
(26,56,cs),
(16,56,l),
(16,0,l)
);
}
);
width = 319;
},
{
anchors = (
{
name = bottom;
pos = (102,0);
},
{
name = center;
pos = (102,268);
},
{
name = top;
pos = (102,760);
},
{
name = topright;
pos = (173,760);
}
);
layerId = "C91144B6-58F5-45F2-9CE4-7ED6CE127FD4";
shapes = (
{
closed = 1;
nodes = (
(196,0,l),
(196,20,l),
(192,20,ls),
(119,20,o),
(115,24,o),
(115,94,cs),
(115,760,l),
(7,760,l),
(7,740,l),
(20,740,ls),
(80,740,o),
(87,736,o),
(87,662,cs),
(87,94,ls),
(87,24,o),
(83,20,o),
(10,20,cs),
(7,20,l),
(7,0,l)
);
}
);
width = 203;
},
{
anchors = (
{
name = bottom;
pos = (128,0);
},
{
name = center;
pos = (128,268);
},
{
name = top;
pos = (120,760);
},
{
name = topright;
pos = (186,760);
}
);
layerId = "1D4F67F9-897D-45AD-B7F0-CA61A6862C03";
shapes = (
{
closed = 1;
nodes = (
(249,0,l),
(249,20,l),
(219,20,ls),
(146,20,o),
(142,24,o),
(142,94,cs),
(142,760,l),
(7,760,l),
(7,740,l),
(47,740,ls),
(107,740,o),
(114,736,o),
(114,662,cs),
(114,94,ls),
(114,24,o),
(110,20,o),
(37,20,cs),
(7,20,l),
(7,0,l)
);
}
);
width = 256;
},
{
anchors = (
{
name = bottom;
pos = (127,0);
},
{
name = center;
pos = (127,268);
},
{
name = top;
pos = (127,760);
},
{
name = topright;
pos = (219,760);
}
);
layerId = "A0CCC833-A561-4F2A-AF73-A35187C9FE5B";
shapes = (
{
closed = 1;
nodes = (
(242,0,l),
(242,41,l),
(233,41,ls),
(194,41,o),
(170,52,o),
(170,115,cs),
(170,760,l),
(11,760,l),
(11,719,l),
(21,719,ls),
(52,719,o),
(83,710,o),
(83,651,cs),
(83,115,ls),
(83,52,o),
(59,41,o),
(21,41,cs),
(11,41,l),
(11,0,l)
);
}
);
width = 253;
},
{
anchors = (
{
name = bottom;
pos = (146,0);
},
{
name = center;
pos = (146,268);
},
{
name = top;
pos = (146,760);
},
{
name = topright;
pos = (264,760);
}
);
layerId = "BD18C76C-096B-4C52-83B4-518A374966BE";
shapes = (
{
closed = 1;
nodes = (
(276,0,l),
(276,49,l),
(267,49,ls),
(233,49,o),
(210,63,o),
(210,122,cs),
(210,760,l),
(14,760,l),
(14,711,l),
(24,711,ls),
(45,711,o),
(80,703,o),
(80,648,cs),
(80,122,ls),
(80,63,o),
(57,49,o),
(24,49,cs),
(14,49,l),
(14,0,l)
);
}
);
width = 290;
}
);
script = latin;
subCategory = Lowercase;
unicode = 108;
}
{
category = Letter;
glyphname = p;
kernLeft = n;
kernRight = o;
layers = (
{
anchors = (
{
name = bottom;
pos = (181,-221);
},
{
name = center;
pos = (317,162);
},
{
name = top;
pos = (334,536);
},
{
name = topright;
pos = (648,536);
}
);
layerId = "E17BEC9D-CAAD-449F-91D9-03766E30097E";
shapes = (
{
closed = 1;
nodes = (
(380,-221,l),
(380,-160,l),
(344,-160,ls),
(327,-160,o),
(282,-152,o),
(282,-96,c),
(282,-66,ls),
(282,-26,o),
(280,10,o),
(278,44,c),
(284,44,l),
(313,7,o),
(352,-13,o),
(418,-13,cs),
(556,-13,o),
(626,71,o),
(626,264,c),
(626,459,o),
(554,546,o),
(421,546,cs),
(344,546,o),
(296,512,o),
(268,467,c),
(264,467,l),
(240,536,l),
(28,536,l),
(28,475,l),
(33,475,ls),
(66,475,o),
(87,466,o),
(87,403,c),
(87,-100,ls),
(87,-153,o),
(41,-160,o),
(24,-160,cs),
(9,-160,l),
(9,-221,l)
);
},
{
closed = 1;
nodes = (
(298,68,o),
(282,127,o),
(282,264,cs),
(282,387,o),
(298,463,o),
(361,463,cs),
(410,463,o),
(431,388,o),
(431,261,cs),
(431,128,o),
(410,68,o),
(358,68,cs)
);
}
);
width = 668;
},
{
anchors = (
{
name = bottom;
pos = (157,-240);
},
{
name = center;
pos = (286,153);
},
{
name = top;
pos = (307,536);
},
{
name = topright;
pos = (594,536);
}
);
layerId = UUID0;
shapes = (
{
closed = 1;
nodes = (
(287,-240,l),
(287,-198,l),
(284,-198,ls),
(240,-198,o),
(202,-190,o),
(202,-131,c),
(202,-35,ls),
(202,-10,o),
(201,39,o),
(198,78,c),
(202,78,l),
(231,26,o),
(278,-10,o),
(355,-10,cs),
(487,-10,o),
(559,76,o),
(559,269,c),
(559,461,o),
(487,546,o),
(355,546,cs),
(277,546,o),
(232,507,o),
(202,446,c),
(198,446,l),
(188,536,l),
(13,536,l),
(13,494,l),
(26,494,ls),
(70,494,o),
(108,485,o),
(108,426,c),
(108,-126,ls),
(108,-189,o),
(71,-198,o),
(26,-198,cs),
(18,-198,l),
(18,-240,l)
);
},
{
closed = 1;
nodes = (
(234,54,o),
(202,130,o),
(202,269,cs),
(202,413,o),
(234,482,o),
(338,482,cs),
(427,482,o),
(462,412,o),
(462,270,cs),
(462,130,o),
(427,54,o),
(339,54,cs)
);
}
);
width = 614;
},
{
anchors = (
{
name = bottom;
pos = (172,-240);
},
{
name = center;
pos = (305,153);
},
{
name = top;
pos = (323,536);
},
{
name = topright;
pos = (625,536);
}
);
layerId = "58AAA307-6DE9-4107-B80A-C255AE991657";
shapes = (
{
closed = 1;
nodes = (
(341,-240,l),
(341,-187,l),
(319,-187,ls),
(290,-187,o),
(248,-179,o),
(248,-122,cs),
(248,-53,ls),
(248,-24,o),
(244,39,o),
(240,68,c),
(247,68,l),
(276,19,o),
(321,-12,o),
(397,-12,cs),
(527,-12,o),
(598,73,o),
(598,266,cs),
(598,460,o),
(526,546,o),
(393,546,cs),
(316,546,o),
(269,510,o),
(240,458,c),
(236,458,l),
(218,536,l),
(22,536,l),
(22,483,l),
(29,483,ls),
(67,483,o),
(96,474,o),
(96,413,cs),
(96,-122,ls),
(96,-179,o),
(54,-187,o),
(25,-187,cs),
(13,-187,l),
(13,-240,l)
);
},
{
closed = 1;
nodes = (
(271,62,o),
(248,128,o),
(248,266,cs),
(248,398,o),
(271,471,o),
(351,471,cs),
(417,471,o),
(444,398,o),
(444,265,cs),
(444,129,o),
(417,62,o),
(350,62,cs)
);
}
);
width = 645;
},
{
anchors = (
{
name = bottom;
pos = (163,-225);
},
{
name = center;
pos = (264,160);
},
{
name = top;
pos = (279,536);
},
{
name = topright;
pos = (547,536);
}
);
layerId = "75A83886-EED5-4C31-9670-660514D8A4F6";
shapes = (
{
closed = 1;
nodes = (
(317,-225,l),
(317,-169,l),
(287,-169,ls),
(273,-169,o),
(236,-161,o),
(236,-104,cs),
(236,-58,ls),
(236,-16,o),
(234,21,o),
(232,53,c),
(237,53,l),
(261,12,o),
(294,-12,o),
(349,-12,cs),
(464,-12,o),
(522,72,o),
(522,265,cs),
(522,460,o),
(462,546,o),
(351,546,cs),
(287,546,o),
(247,511,o),
(224,463,c),
(220,463,l),
(200,536,l),
(24,536,l),
(24,480,l),
(27,480,ls),
(55,480,o),
(72,471,o),
(72,409,cs),
(72,-106,ls),
(72,-161,o),
(34,-169,o),
(20,-169,cs),
(7,-169,l),
(7,-225,l)
);
},
{
closed = 1;
nodes = (
(248,62,o),
(236,127,o),
(236,266,cs),
(236,393,o),
(248,470,o),
(301,470,cs),
(342,470,o),
(359,395,o),
(359,264,cs),
(359,128,o),
(342,62,o),
(298,62,cs)
);
}
);
width = 557;
},
{
anchors = (
{
name = bottom;
pos = (106,-240);
},
{
name = center;
pos = (199,153);
},
{
name = top;
pos = (222,536);
},
{
name = topright;
pos = (423,536);
}
);
layerId = "C91144B6-58F5-45F2-9CE4-7ED6CE127FD4";
shapes = (
{
closed = 1;
nodes = (
(195,-240,l),
(195,-220,l),
(184,-220,ls),
(124,-220,o),
(118,-214,o),
(118,-144,cs),
(118,-14,ls),
(118,34,o),
(119,77,o),
(118,102,c),
(119,102,l),
(140,35,o),
(179,-10,o),
(250,-10,cs),
(338,-10,o),
(395,80,o),
(395,280,cs),
(395,469,o),
(344,546,o),
(246,546,cs),
(178,546,o),
(143,500,o),
(120,438,c),
(117,438,l),
(115,536,l),
(3,536,l),
(3,516,l),
(18,516,ls),
(87,516,o),
(90,510,o),
(90,441,cs),
(90,-144,ls),
(90,-214,o),
(84,-220,o),
(23,-220,cs),
(18,-220,l),
(18,-240,l)
);
},
{
closed = 1;
nodes = (
(149,15,o),
(118,120,o),
(118,276,cs),
(118,431,o),
(163,521,o),
(246,521,cs),
(328,521,o),
(367,444,o),
(367,280,cs),
(367,119,o),
(334,15,o),
(249,15,cs)
);
}
);
width = 443;
},
{
anchors = (
{
name = bottom;
pos = (133,-240);
},
{
name = center;
pos = (255,153);
},
{
name = top;
pos = (296,536);
},
{
name = topright;
pos = (544,536);
}
);
layerId = "1D4F67F9-897D-45AD-B7F0-CA61A6862C03";
shapes = (
{
closed = 1;
nodes = (
(259,-240,l),
(259,-220,l),
(217,-220,ls),
(157,-220,o),
(150,-216,o),
(150,-142,cs),
(150,-13,ls),
(150,60,o),
(146,95,o),
(147,111,c),
(149,111,l),
(177,32,o),
(232,-10,o),
(317,-10,cs),
(435,-10,o),
(509,80,o),
(509,278,cs),
(509,460,o),
(449,546,o),
(316,546,cs),
(227,546,o),
(175,494,o),
(153,432,c),
(149,432,l),
(146,536,l),
(1,536,l),
(1,516,l),
(45,516,ls),
(118,516,o),
(122,512,o),
(122,442,cs),
(122,-142,ls),
(122,-216,o),
(115,-220,o),
(55,-220,cs),
(24,-220,l),
(24,-240,l)
);
},
{
closed = 1;
nodes = (
(195,15,o),
(150,118,o),
(150,279,cs),
(150,417,o),
(193,521,o),
(317,521,cs),
(437,521,o),
(481,436,o),
(481,273,cs),
(481,107,o),
(423,15,o),
(320,15,cs)
);
}
);
width = 574;
},
{
anchors = (
{
name = bottom;
pos = (129,-236);
},
{
name = center;
pos = (231,155);
},
{
name = top;
pos = (247,536);
},
{
name = topright;
pos = (475,536);
}
);
layerId = "A0CCC833-A561-4F2A-AF73-A35187C9FE5B";
shapes = (
{
closed = 1;
nodes = (
(248,-236,l),
(248,-195,l),
(231,-195,ls),
(200,-195,o),
(170,-187,o),
(170,-128,cs),
(170,-33,ls),
(170,13,o),
(169,52,o),
(168,81,c),
(171,81,l),
(193,25,o),
(229,-11,o),
(287,-11,cs),
(393,-11,o),
(450,76,o),
(450,269,cs),
(450,461,o),
(393,546,o),
(289,546,cs),
(227,546,o),
(191,507,o),
(168,451,c),
(165,451,l),
(155,536,l),
(12,536,l),
(12,495,l),
(22,495,ls),
(56,495,o),
(82,486,o),
(82,427,cs),
(82,-123,ls),
(82,-186,o),
(52,-195,o),
(20,-195,cs),
(14,-195,l),
(14,-236,l)
);
},
{
closed = 1;
nodes = (
(192,44,o),
(170,128,o),
(170,272,cs),
(170,409,o),
(192,492,o),
(270,492,cs),
(336,492,o),
(361,416,o),
(361,273,cs),
(361,128,o),
(336,44,o),
(270,44,cs)
);
}
);
width = 493;
},
{
anchors = (
{
name = bottom;
pos = (149,-230);
},
{
name = center;
pos = (250,158);
},
{
name = top;
pos = (265,536);
},
{
name = topright;
pos = (516,536);
}
);
layerId = "BD18C76C-096B-4C52-83B4-518A374966BE";
shapes = (
{
closed = 1;
nodes = (
(287,-230,l),
(287,-180,l),
(263,-180,ls),
(241,-180,o),
(207,-172,o),
(207,-114,cs),
(207,-47,ls),
(207,-4,o),
(206,35,o),
(204,65,c),
(208,65,l),
(231,18,o),
(266,-11,o),
(322,-11,cs),
(433,-11,o),
(491,74,o),
(491,267,cs),
(491,461,o),
(432,546,o),
(324,546,cs),
(261,546,o),
(223,509,o),
(200,458,c),
(196,458,l),
(181,536,l),
(19,536,l),
(19,487,l),
(25,487,ls),
(55,487,o),
(76,478,o),
(76,417,cs),
(76,-113,ls),
(76,-172,o),
(42,-180,o),
(20,-180,cs),
(10,-180,l),
(10,-230,l)
);
},
{
closed = 1;
nodes = (
(224,54,o),
(207,127,o),
(207,269,cs),
(207,400,o),
(224,480,o),
(288,480,cs),
(339,480,o),
(360,404,o),
(360,268,cs),
(360,128,o),
(339,54,o),
(286,54,cs)
);
}
);
width = 529;
}
);
script = latin;
subCategory = Lowercase;
unicode = 112;
}
{
category = Letter;
glyphname = y;
kernLeft = y;
kernRight = y;
layers = (
{
anchors = (
{
name = bottom;
pos = (165,-221);
},
{
name = center;
pos = (293,157);
},
{
name = top;
pos = (335,536);
},
{
name = topright;
pos = (599,536);
}
);
layerId = "E17BEC9D-CAAD-449F-91D9-03766E30097E";
shapes = (
{
closed = 1;
nodes = (
(19,-221,l),
(42,-221,ls),
(254,-221,o),
(292,-173,o),
(358,3,cs),
(509,406,ls),
(526,452,o),
(549,473,o),
(585,475,cs),
(589,475,l),
(589,536,l),
(368,536,l),
(368,475,l),
(373,475,l),
(412,473,o),
(428,467,o),
(428,442,cs),
(428,429,o),
(421,399,o),
(417,388,cs),
(357,207,ls),
(352,192,o),
(347,171,o),
(343,142,c),
(341,166,o),
(333,204,o),
(320,242,cs),
(267,399,ls),
(262,413,o),
(257,429,o),
(257,442,cs),
(257,464,o),
(272,475,o),
(315,475,c),
(320,475,l),
(320,536,l),
(-3,536,l),
(-3,475,l),
(2,475,ls),
(32,475,o),
(46,470,o),
(61,431,cs),
(237,-12,l),
(206,-94,o),
(161,-155,o),
(19,-155,c)
);
}
);
width = 589;
},
{
anchors = (
{
name = bottom;
pos = (143,-240);
},
{
name = center;
pos = (284,148);
},
{
name = top;
pos = (303,536);
},
{
name = topright;
pos = (545,536);
}
);
layerId = UUID0;
shapes = (
{
closed = 1;
nodes = (
(38,-240,l),
(47,-240,ls),
(224,-240,o),
(264,-198,o),
(334,-4,c),
(486,416,ls),
(509,480,o),
(523,494,o),
(562,494,cs),
(565,494,l),
(565,536,l),
(357,536,l),
(357,494,l),
(360,494,l),
(404,494,o),
(426,479,o),
(426,445,cs),
(426,434,o),
(423,418,o),
(417,402,cs),
(350,207,l),
(336,167,o),
(319,124,o),
(310,86,c),
(304,119,o),
(281,185,o),
(262,231,cs),
(189,409,ls),
(183,424,o),
(181,435,o),
(181,446,cs),
(181,479,o),
(201,494,o),
(241,494,c),
(244,494,l),
(244,536,l),
(4,536,l),
(4,494,l),
(7,494,ls),
(46,494,o),
(60,482,o),
(78,441,c),
(263,4,l),
(230,-108,o),
(173,-193,o),
(38,-193,c)
);
}
);
width = 565;
},
{
anchors = (
{
name = bottom;
pos = (150,-240);
},
{
name = center;
pos = (289,148);
},
{
name = top;
pos = (320,536);
},
{
name = topright;
pos = (579,536);
}
);
layerId = "58AAA307-6DE9-4107-B80A-C255AE991657";
shapes = (
{
closed = 1;
nodes = (
(27,-240,l),
(44,-240,l),
(241,-240,o),
(278,-194,o),
(348,0,c),
(499,410,l),
(519,464,o),
(538,482,o),
(575,483,c),
(579,483,l),
(579,536,l),
(354,536,l),
(354,483,l),
(358,483,l),
(402,482,o),
(427,472,o),
(427,443,cs),
(427,431,o),
(422,407,o),
(417,394,c),
(351,198,ls),
(347,188,o),
(331,146,o),
(329,118,c),
(326,145,o),
(320,173,o),
(301,224,c),
(232,407,l),
(228,417,o),
(222,435,o),
(222,446,cs),
(222,474,o),
(245,483,o),
(282,483,c),
(285,483,l),
(285,536,l),
(0,536,l),
(0,477,l),
(4,477,l),
(32,476,o),
(53,470,o),
(68,435,c),
(248,-5,l),
(216,-111,o),
(166,-182,o),
(27,-182,c)
);
}
);
width = 579;
},
{
anchors = (
{
name = bottom;
pos = (136,-225);
},
{
name = center;
pos = (244,155);
},
{
name = top;
pos = (287,536);
},
{
name = topright;
pos = (501,536);
}
);
layerId = "75A83886-EED5-4C31-9670-660514D8A4F6";
shapes = (
{
closed = 1;
nodes = (
(16,-225,l),
(35,-225,ls),
(212,-225,o),
(243,-177,o),
(299,4,cs),
(423,410,ls),
(439,460,o),
(458,480,o),
(488,480,cs),
(491,480,l),
(491,536,l),
(307,536,l),
(307,480,l),
(311,479,ls),
(343,476,o),
(356,472,o),
(356,447,cs),
(356,432,o),
(351,405,o),
(347,392,cs),
(299,206,ls),
(293,183,o),
(289,158,o),
(286,127,c),
(284,153,o),
(278,195,o),
(266,240,cs),
(223,398,ls),
(218,416,o),
(214,433,o),
(214,447,cs),
(214,468,o),
(227,480,o),
(263,480,cs),
(267,480,l),
(267,536,l),
(-3,536,l),
(-3,480,l),
(2,480,ls),
(26,480,o),
(38,474,o),
(51,434,cs),
(197,-10,l),
(172,-101,o),
(134,-164,o),
(16,-164,c)
);
}
);
width = 491;
},
{
anchors = (
{
name = bottom;
pos = (109,-240);
},
{
name = center;
pos = (212,148);
},
{
name = top;
pos = (212,536);
},
{
name = topright;
pos = (407,536);
}
);
layerId = "C91144B6-58F5-45F2-9CE4-7ED6CE127FD4";
shapes = (
{
closed = 1;
nodes = (
(38,-240,l),
(39,-240,ls),
(141,-240,o),
(181,-208,o),
(229,-30,cs),
(354,432,ls),
(374,506,o),
(377,516,o),
(413,516,cs),
(418,516,l),
(418,536,l),
(272,536,l),
(272,516,l),
(290,516,ls),
(338,516,o),
(341,508,o),
(341,494,cs),
(341,479,o),
(334,454,o),
(326,424,cs),
(265,201,ls),
(249,134,o),
(233,78,o),
(224,41,c),
(216,77,o),
(196,143,o),
(171,225,cs),
(111,423,ls),
(100,459,o),
(92,484,o),
(92,495,cs),
(92,512,o),
(101,516,o),
(147,516,cs),
(150,516,l),
(150,536,l),
(7,536,l),
(7,516,l),
(8,516,ls),
(53,516,o),
(55,511,o),
(73,453,cs),
(211,0,l),
(160,-169,o),
(153,-215,o),
(38,-215,c)
);
}
);
width = 417;
},
{
anchors = (
{
name = bottom;
pos = (154,-240);
},
{
name = center;
pos = (279,148);
},
{
name = top;
pos = (274,536);
},
{
name = topright;
pos = (537,536);
}
);
layerId = "1D4F67F9-897D-45AD-B7F0-CA61A6862C03";
shapes = (
{
closed = 1;
nodes = (
(52,-240,l),
(53,-240,l),
(216,-240,o),
(240,-193,o),
(312,16,cs),
(468,468,ls),
(484,515,o),
(489,516,o),
(545,516,cs),
(549,516,l),
(549,536,l),
(361,536,l),
(361,516,l),
(399,516,ls),
(440,516,o),
(445,509,o),
(445,495,cs),
(445,482,o),
(436,455,o),
(425,423,cs),
(338,171,ls),
(317,110,o),
(302,67,o),
(290,24,c),
(277,69,o),
(244,150,o),
(220,212,cs),
(144,407,ls),
(122,463,o),
(113,482,o),
(113,495,cs),
(113,509,o),
(118,516,o),
(159,516,cs),
(184,516,l),
(184,536,l),
(10,536,l),
(10,516,l),
(13,516,ls),
(69,516,o),
(72,515,o),
(90,468,cs),
(277,-6,l),
(219,-160,o),
(200,-215,o),
(52,-215,c)
);
}
);
width = 547;
},
{
anchors = (
{
name = bottom;
pos = (115,-236);
},
{
name = center;
pos = (226,150);
},
{
name = top;
pos = (245,536);
},
{
name = topright;
pos = (452,536);
}
);
layerId = "A0CCC833-A561-4F2A-AF73-A35187C9FE5B";
shapes = (
{
closed = 1;
nodes = (
(28,-236,l),
(37,-236,ls),
(184,-236,o),
(210,-190,o),
(266,5,cs),
(386,422,ls),
(404,487,o),
(417,495,o),
(448,495,cs),
(450,495,l),
(450,536,l),
(287,536,l),
(287,495,l),
(290,495,ls),
(323,494,o),
(339,486,o),
(339,460,cs),
(339,441,o),
(335,423,o),
(329,403,cs),
(279,205,ls),
(266,157,o),
(257,119,o),
(250,82,c),
(245,116,o),
(233,167,o),
(213,233,cs),
(165,394,ls),
(156,423,o),
(150,445,o),
(150,462,cs),
(150,481,o),
(161,495,o),
(198,495,cs),
(201,495,l),
(201,536,l),
(3,536,l),
(3,495,l),
(6,495,ls),
(37,495,o),
(46,486,o),
(61,442,cs),
(204,-3,l),
(173,-122,o),
(131,-190,o),
(28,-190,c)
);
}
);
width = 449;
},
{
anchors = (
{
name = bottom;
pos = (127,-230);
},
{
name = center;
pos = (236,153);
},
{
name = top;
pos = (267,536);
},
{
name = topright;
pos = (480,536);
}
);
layerId = "BD18C76C-096B-4C52-83B4-518A374966BE";
shapes = (
{
closed = 1;
nodes = (
(21,-230,l),
(36,-230,ls),
(200,-230,o),
(229,-183,o),
(285,5,cs),
(407,415,ls),
(424,472,o),
(440,487,o),
(471,487,cs),
(473,487,l),
(473,536,l),
(298,536,l),
(298,487,l),
(302,486,ls),
(334,484,o),
(349,478,o),
(349,453,cs),
(349,436,o),
(344,413,o),
(339,397,cs),
(290,205,ls),
(281,172,o),
(275,141,o),
(270,108,c),
(267,137,o),
(258,183,o),
(243,237,cs),
(198,396,ls),
(191,419,o),
(186,438,o),
(186,453,cs),
(186,474,o),
(198,487,o),
(235,487,cs),
(238,487,l),
(238,536,l),
(0,536,l),
(0,487,l),
(4,487,ls),
(31,487,o),
(41,479,o),
(55,437,cs),
(200,-7,l),
(172,-110,o),
(133,-175,o),
(21,-175,c)
);
}
);
width = 473;
}
);
script = latin;
subCategory = Lowercase;
unicode = 121;
}
{
category = Symbol;
glyphname = currency;
layers = (
{
layerId = "E17BEC9D-CAAD-449F-91D9-03766E30097E";
shapes = (
{
closed = 1;
nodes = (
(184,200,l),
(212,182,o),
(247,172,o),
(284,172,cs),
(320,172,o),
(356,183,o),
(386,202,c),
(439,148,l),
(495,204,l),
(441,258,l),
(458,286,o),
(468,318,o),
(468,355,cs),
(468,391,o),
(457,425,o),
(438,453,c),
(495,512,l),
(439,569,l),
(381,510,l),
(353,529,o),
(319,539,o),
(284,539,cs),
(248,539,o),
(216,529,o),
(188,512,c),
(132,568,l),
(76,512,l),
(131,456,l),
(111,428,o),
(101,391,o),
(101,355,cs),
(101,318,o),
(109,286,o),
(127,258,c),
(74,206,l),
(132,148,l)
);
},
{
closed = 1;
nodes = (
(225,247,o),
(178,295,o),
(178,355,cs),
(178,416,o),
(225,463,o),
(284,463,cs),
(346,463,o),
(390,416,o),
(390,355,cs),
(390,295,o),
(346,247,o),
(284,247,cs)
);
}
);
width = 569;
},
{
layerId = UUID0;
shapes = (
{
closed = 1;
nodes = (
(172,209,l),
(202,187,o),
(239,175,o),
(279,175,cs),
(319,175,o),
(356,188,o),
(386,209,c),
(453,143,l),
(494,185,l),
(428,251,l),
(450,281,o),
(463,318,o),
(463,358,cs),
(463,398,o),
(450,435,o),
(428,465,c),
(494,531,l),
(452,574,l),
(385,507,l),
(355,529,o),
(318,542,o),
(279,542,cs),
(238,542,o),
(201,529,o),
(171,507,c),
(106,573,l),
(64,531,l),
(130,465,l),
(108,435,o),
(96,398,o),
(96,358,cs),
(96,318,o),
(108,281,o),
(129,251,c),
(64,185,l),
(106,143,l)
);
},
{
closed = 1;
nodes = (
(209,230,o),
(152,288,o),
(152,358,cs),
(152,430,o),
(209,487,o),
(279,487,cs),
(351,487,o),
(407,430,o),
(407,358,cs),
(407,288,o),
(351,230,o),
(279,230,cs)
);
}
);
width = 559;
},
{
layerId = "58AAA307-6DE9-4107-B80A-C255AE991657";
shapes = (
{
closed = 1;
nodes = (
(175,204,l),
(204,184,o),
(240,173,o),
(278,173,cs),
(316,173,o),
(352,185,o),
(382,205,c),
(441,146,l),
(491,196,l),
(432,255,l),
(451,284,o),
(462,318,o),
(462,356,cs),
(462,394,o),
(450,429,o),
(430,458,c),
(491,520,l),
(441,571,l),
(379,509,l),
(350,529,o),
(315,540,o),
(278,540,cs),
(240,540,o),
(206,529,o),
(177,510,c),
(117,570,l),
(67,520,l),
(127,460,l),
(106,431,o),
(95,394,o),
(95,356,cs),
(95,318,o),
(105,284,o),
(124,255,c),
(66,197,l),
(117,146,l)
);
},
{
closed = 1;
nodes = (
(214,240,o),
(163,292,o),
(163,356,cs),
(163,422,o),
(214,473,o),
(278,473,cs),
(344,473,o),
(393,422,o),
(393,356,cs),
(393,292,o),
(344,240,o),
(278,240,cs)
);
}
);
width = 559;
},
{
layerId = "75A83886-EED5-4C31-9670-660514D8A4F6";
shapes = (
{
closed = 1;
nodes = (
(147,202,l),
(171,183,o),
(200,173,o),
(231,173,cs),
(261,173,o),
(291,184,o),
(316,204,c),
(360,147,l),
(407,199,l),
(362,256,l),
(376,285,o),
(384,318,o),
(384,356,cs),
(384,393,o),
(375,428,o),
(359,456,c),
(407,517,l),
(360,570,l),
(311,509,l),
(288,529,o),
(260,540,o),
(231,540,cs),
(201,540,o),
(174,529,o),
(151,511,c),
(104,569,l),
(57,517,l),
(103,458,l),
(87,430,o),
(79,393,o),
(79,356,cs),
(79,318,o),
(85,285,o),
(100,256,c),
(56,200,l),
(104,147,l)
);
},
{
closed = 1;
nodes = (
(181,242,o),
(142,293,o),
(142,356,cs),
(142,420,o),
(181,470,o),
(231,470,cs),
(283,470,o),
(319,420,o),
(319,356,cs),
(319,293,o),
(283,242,o),
(231,242,cs)
);
}
);
width = 466;
},
{
layerId = "C91144B6-58F5-45F2-9CE4-7ED6CE127FD4";
shapes = (
{
closed = 1;
nodes = (
(125,219,l),
(152,191,o),
(181,177,o),
(212,177,cs),
(243,177,o),
(272,192,o),
(299,218,c),
(355,144,l),
(375,164,l),
(317,241,l),
(340,276,o),
(352,318,o),
(352,360,cs),
(352,403,o),
(342,442,o),
(321,479,c),
(375,553,l),
(356,572,l),
(302,500,l),
(273,529,o),
(244,544,o),
(212,544,cs),
(179,544,o),
(150,529,o),
(122,500,c),
(69,570,l),
(49,551,l),
(104,476,l),
(83,440,o),
(73,403,o),
(73,360,cs),
(73,318,o),
(84,277,o),
(106,240,c),
(48,164,l),
(68,143,l)
);
},
{
closed = 1;
nodes = (
(151,205,o),
(101,275,o),
(101,359,cs),
(101,445,o),
(151,516,o),
(212,516,cs),
(272,516,o),
(324,445,o),
(324,359,cs),
(324,275,o),
(272,205,o),
(212,205,cs)
);
}
);
width = 423;
},
{
layerId = "1D4F67F9-897D-45AD-B7F0-CA61A6862C03";
shapes = (
{
closed = 1;
nodes = (
(160,222,l),
(192,194,o),
(235,177,o),
(281,177,cs),
(326,177,o),
(367,193,o),
(399,220,c),
(473,147,l),
(491,164,l),
(417,238,l),
(446,270,o),
(464,313,o),
(464,360,cs),
(464,406,o),
(447,448,o),
(418,480,c),
(490,553,l),
(473,571,l),
(400,498,l),
(368,526,o),
(326,543,o),
(281,543,cs),
(233,543,o),
(190,524,o),
(158,495,c),
(84,569,l),
(66,552,l),
(141,478,l),
(114,446,o),
(98,405,o),
(98,360,cs),
(98,314,o),
(115,271,o),
(143,239,c),
(68,164,l),
(85,146,l)
);
},
{
closed = 1;
nodes = (
(194,203,o),
(126,273,o),
(126,360,cs),
(126,447,o),
(194,517,o),
(281,517,cs),
(368,517,o),
(436,447,o),
(436,360,cs),
(436,273,o),
(368,203,o),
(281,203,cs)
);
}
);
width = 559;
},
{
layerId = "A0CCC833-A561-4F2A-AF73-A35187C9FE5B";
shapes = (
{
closed = 1;
nodes = (
(137,209,l),
(160,187,o),
(189,175,o),
(220,175,cs),
(251,175,o),
(280,188,o),
(304,210,c),
(355,143,l),
(389,184,l),
(339,250,l),
(356,281,o),
(366,318,o),
(366,358,cs),
(366,399,o),
(356,436,o),
(339,466,c),
(389,532,l),
(355,574,l),
(303,507,l),
(279,529,o),
(251,542,o),
(220,542,cs),
(189,542,o),
(160,529,o),
(136,507,c),
(86,573,l),
(51,532,l),
(102,465,l),
(85,436,o),
(75,399,o),
(75,358,cs),
(75,318,o),
(84,281,o),
(101,250,c),
(51,183,l),
(86,143,l)
);
},
{
closed = 1;
nodes = (
(166,229,o),
(122,287,o),
(122,358,cs),
(122,431,o),
(166,489,o),
(220,489,cs),
(276,489,o),
(319,431,o),
(319,358,cs),
(319,287,o),
(276,229,o),
(220,229,cs)
);
}
);
width = 442;
},
{
layerId = "BD18C76C-096B-4C52-83B4-518A374966BE";
shapes = (
{
closed = 1;
nodes = (
(143,205,l),
(166,185,o),
(195,174,o),
(226,174,cs),
(257,174,o),
(286,186,o),
(311,207,c),
(358,145,l),
(399,192,l),
(352,253,l),
(367,283,o),
(376,318,o),
(376,357,cs),
(376,396,o),
(367,431,o),
(350,460,c),
(399,524,l),
(358,572,l),
(308,508,l),
(284,529,o),
(256,541,o),
(226,541,cs),
(196,541,o),
(168,529,o),
(144,509,c),
(96,571,l),
(54,524,l),
(102,461,l),
(86,433,o),
(77,396,o),
(77,357,cs),
(77,318,o),
(85,283,o),
(100,253,c),
(54,193,l),
(96,145,l)
);
},
{
closed = 1;
nodes = (
(174,236,o),
(133,290,o),
(133,357,cs),
(133,425,o),
(174,478,o),
(226,478,cs),
(280,478,o),
(319,425,o),
(319,357,cs),
(319,290,o),
(280,236,o),
(226,236,cs)
);
}
);
width = 456;
}
);
script = "";
subCategory = Currency;
unicode = 164;
}
{
category = Mark;
glyphname = dieresis;
layers = (
{
layerId = "E17BEC9D-CAAD-449F-91D9-03766E30097E";
shapes = (
{
closed = 1;
nodes = (
(432,614,o),
(470,634,o),
(470,688,cs),
(470,743,o),
(432,762,o),
(397,762,cs),
(358,762,o),
(322,743,o),
(322,688,cs),
(322,634,o),
(358,614,o),
(397,614,cs)
);
},
{
closed = 1;
nodes = (
(216,614,o),
(254,634,o),
(254,688,cs),
(254,743,o),
(216,762,o),
(179,762,cs),
(142,762,o),
(106,743,o),
(106,688,cs),
(106,634,o),
(142,614,o),
(179,614,cs)
);
}
);
width = 577;
},
{
layerId = UUID0;
shapes = (
{
closed = 1;
nodes = (
(411,632,o),
(434,647,o),
(434,688,cs),
(434,730,o),
(411,744,o),
(383,744,cs),
(354,744,o),
(332,730,o),
(332,688,cs),
(332,647,o),
(354,632,o),
(383,632,cs)
);
},
{
closed = 1;
nodes = (
(221,632,o),
(244,647,o),
(244,688,cs),
(244,730,o),
(221,744,o),
(193,744,cs),
(164,744,o),
(142,730,o),
(142,688,cs),
(142,647,o),
(164,632,o),
(193,632,cs)
);
}
);
width = 577;
},
{
layerId = "58AAA307-6DE9-4107-B80A-C255AE991657";
shapes = (
{
closed = 1;
nodes = (
(421,626,o),
(450,643,o),
(450,688,cs),
(450,734,o),
(421,750,o),
(391,750,cs),
(359,750,o),
(331,734,o),
(331,688,cs),
(331,643,o),
(359,626,o),
(391,626,cs)
);
},
{
closed = 1;
nodes = (
(216,626,o),
(245,643,o),
(245,688,cs),
(245,734,o),
(216,750,o),
(185,750,cs),
(154,750,o),
(126,734,o),
(126,688,cs),
(126,643,o),
(154,626,o),
(185,626,cs)
);
}
);
width = 577;
},
{
layerId = "75A83886-EED5-4C31-9670-660514D8A4F6";
shapes = (
{
closed = 1;
nodes = (
(361,621,o),
(393,639,o),
(393,689,cs),
(393,740,o),
(361,758,o),
(332,758,cs),
(299,758,o),
(269,740,o),
(269,689,cs),
(269,639,o),
(299,621,o),
(332,621,cs)
);
},
{
closed = 1;
nodes = (
(179,621,o),
(211,639,o),
(211,689,cs),
(211,740,o),
(179,758,o),
(148,758,cs),
(117,758,o),
(87,740,o),
(87,689,cs),
(87,639,o),
(117,621,o),
(148,621,cs)
);
}
);
width = 481;
},
{
layerId = "C91144B6-58F5-45F2-9CE4-7ED6CE127FD4";
shapes = (
{
closed = 1;
nodes = (
(301,662,o),
(308,670,o),
(308,698,cs),
(308,728,o),
(301,736,o),
(285,736,cs),
(269,736,o),
(262,728,o),
(262,698,cs),
(262,670,o),
(269,662,o),
(285,662,cs)
);
},
{
closed = 1;
nodes = (
(168,662,o),
(175,670,o),
(175,698,cs),
(175,728,o),
(168,736,o),
(152,736,cs),
(135,736,o),
(130,728,o),
(130,698,cs),
(130,670,o),
(135,662,o),
(152,662,cs)
);
}
);
width = 438;
},
{
layerId = "1D4F67F9-897D-45AD-B7F0-CA61A6862C03";
shapes = (
{
closed = 1;
nodes = (
(384,658,o),
(392,666,o),
(392,698,cs),
(392,729,o),
(384,738,o),
(369,738,cs),
(355,738,o),
(346,729,o),
(346,698,cs),
(346,666,o),
(355,658,o),
(369,658,cs)
);
},
{
closed = 1;
nodes = (
(223,658,o),
(231,666,o),
(231,698,cs),
(231,729,o),
(223,738,o),
(208,738,cs),
(194,738,o),
(185,729,o),
(185,698,cs),
(185,666,o),
(194,658,o),
(208,658,cs)
);
}
);
width = 577;
},
{
layerId = "A0CCC833-A561-4F2A-AF73-A35187C9FE5B";
shapes = (
{
closed = 1;
nodes = (
(322,640,o),
(342,653,o),
(342,692,cs),
(342,732,o),
(322,745,o),
(300,745,cs),
(276,745,o),
(257,732,o),
(257,692,cs),
(257,653,o),
(276,640,o),
(300,640,cs)
);
},
{
closed = 1;
nodes = (
(178,640,o),
(199,653,o),
(199,692,cs),
(199,732,o),
(178,745,o),
(156,745,cs),
(133,745,o),
(115,732,o),
(115,692,cs),
(115,653,o),
(133,640,o),
(156,640,cs)
);
}
);
width = 457;
},
{
layerId = "BD18C76C-096B-4C52-83B4-518A374966BE";
shapes = (
{
closed = 1;
nodes = (
(344,629,o),
(371,645,o),
(371,690,cs),
(371,737,o),
(344,752,o),
(318,752,cs),
(289,752,o),
(264,737,o),
(264,690,cs),
(264,645,o),
(289,629,o),
(318,629,cs)
);
},
{
closed = 1;
nodes = (
(179,629,o),
(206,645,o),
(206,690,cs),
(206,737,o),
(179,752,o),
(151,752,cs),
(124,752,o),
(99,737,o),
(99,690,cs),
(99,645,o),
(124,629,o),
(151,629,cs)
);
}
);
width = 471;
}
);
script = "";
subCategory = Spacing;
unicode = 168;
}
{
category = Punctuation;
glyphname = guillemetleft;
kernLeft = guilsinglleft;
kernRight = guilsinglleft;
layers = (
{
layerId = "1D4F67F9-897D-45AD-B7F0-CA61A6862C03";
shapes = (
{
closed = 1;
nodes = (
(388,92,l),
(265,270,l),
(388,448,l),
(364,448,l),
(231,274,l),
(231,266,l),
(364,92,l)
);
},
{
closed = 1;
nodes = (
(232,92,l),
(109,270,l),
(232,448,l),
(208,448,l),
(75,274,l),
(75,266,l),
(208,92,l)
);
}
);
width = 464;
},
{
layerId = UUID0;
shapes = (
{
closed = 1;
nodes = (
(449,80,l),
(348,270,l),
(449,460,l),
(399,460,l),
(246,286,l),
(246,254,l),
(399,80,l)
);
},
{
closed = 1;
nodes = (
(268,80,l),
(167,270,l),
(268,460,l),
(218,460,l),
(65,286,l),
(65,254,l),
(218,80,l)
);
}
);
width = 514;
},
{
layerId = "58AAA307-6DE9-4107-B80A-C255AE991657";
shapes = (
{
closed = 1;
nodes = (
(489,70,l),
(388,270,l),
(489,470,l),
(419,470,l),
(266,296,l),
(266,244,l),
(419,70,l)
);
},
{
closed = 1;
nodes = (
(288,70,l),
(187,270,l),
(288,470,l),
(218,470,l),
(65,296,l),
(65,244,l),
(218,70,l)
);
}
);
width = 554;
},
{
layerId = "E17BEC9D-CAAD-449F-91D9-03766E30097E";
shapes = (
{
closed = 1;
nodes = (
(519,63,l),
(418,270,l),
(519,477,l),
(434,477,l),
(281,303,l),
(281,237,l),
(434,63,l)
);
},
{
closed = 1;
nodes = (
(303,63,l),
(202,270,l),
(303,477,l),
(218,477,l),
(65,303,l),
(65,237,l),
(218,63,l)
);
}
);
width = 583;
},
{
layerId = "C91144B6-58F5-45F2-9CE4-7ED6CE127FD4";
shapes = (
{
closed = 1;
nodes = (
(306,91,l),
(222,270,l),
(306,449,l),
(293,449,l),
(177,275,l),
(177,265,l),
(293,91,l)
);
},
{
closed = 1;
nodes = (
(192,91,l),
(107,270,l),
(192,449,l),
(178,449,l),
(63,275,l),
(63,265,l),
(178,91,l)
);
}
);
width = 359;
},
{
layerId = "A0CCC833-A561-4F2A-AF73-A35187C9FE5B";
shapes = (
{
closed = 1;
nodes = (
(345,81,l),
(261,270,l),
(345,459,l),
(307,459,l),
(185,285,l),
(185,255,l),
(307,81,l)
);
},
{
closed = 1;
nodes = (
(229,81,l),
(145,270,l),
(229,459,l),
(191,459,l),
(70,285,l),
(70,255,l),
(191,81,l)
);
}
);
width = 414;
},
{
layerId = "BD18C76C-096B-4C52-83B4-518A374966BE";
shapes = (
{
closed = 1;
nodes = (
(395,74,l),
(311,270,l),
(395,466,l),
(339,466,l),
(213,292,l),
(213,248,l),
(339,74,l)
);
},
{
closed = 1;
nodes = (
(242,74,l),
(158,270,l),
(242,466,l),
(185,466,l),
(60,292,l),
(60,248,l),
(185,74,l)
);
}
);
width = 455;
},
{
layerId = "75A83886-EED5-4C31-9670-660514D8A4F6";
shapes = (
{
closed = 1;
nodes = (
(433,68,l),
(349,270,l),
(433,472,l),
(363,472,l),
(235,298,l),
(235,242,l),
(363,68,l)
);
},
{
closed = 1;
nodes = (
(252,68,l),
(168,270,l),
(252,472,l),
(181,472,l),
(53,298,l),
(53,242,l),
(181,68,l)
);
}
);
width = 486;
}
);
script = "";
subCategory = Quote;
unicode = 171;
}
{
category = Number;
glyphname = twosuperior;
layers = (
{
layerId = "E17BEC9D-CAAD-449F-91D9-03766E30097E";
shapes = (
{
closed = 1;
nodes = (
(371,387,l),
(376,548,l),
(337,548,l),
(331,516,l),
(327,499,o),
(316,489,o),
(291,489,c),
(110,489,l),
(165,514,ls),
(336,592,o),
(370,637,o),
(370,705,cs),
(370,771,o),
(324,825,o),
(198,825,cs),
(80,825,o),
(26,783,o),
(26,733,cs),
(26,694,o),
(52,678,o),
(131,678,c),
(131,724,o),
(136,767,o),
(183,767,cs),
(213,767,o),
(230,745,o),
(230,712,cs),
(230,656,o),
(195,619,o),
(118,559,cs),
(23,485,l),
(23,387,l)
);
}
);
width = 400;
},
{
layerId = UUID0;
shapes = (
{
closed = 1;
nodes = (
(346,387,l),
(349,512,l),
(315,512,l),
(311,491,l),
(307,469,o),
(298,450,o),
(267,450,c),
(122,450,l),
(228,541,l),
(311,612,o),
(337,654,o),
(337,717,cs),
(337,787,o),
(281,825,o),
(188,825,cs),
(97,825,o),
(50,789,o),
(50,741,cs),
(50,706,o),
(77,698,o),
(122,698,c),
(122,744,o),
(139,785,o),
(188,785,cs),
(231,785,o),
(247,753,o),
(247,709,cs),
(247,656,o),
(228,599,o),
(169,546,cs),
(42,432,l),
(42,387,l)
);
}
);
width = 400;
},
{
layerId = "58AAA307-6DE9-4107-B80A-C255AE991657";
shapes = (
{
closed = 1;
nodes = (
(355,387,l),
(359,525,l),
(322,525,l),
(317,498,ls),
(313,479,o),
(303,465,o),
(275,465,c),
(115,465,l),
(197,529,ls),
(313,620,o),
(341,659,o),
(341,718,cs),
(341,783,o),
(295,825,o),
(187,825,cs),
(95,825,o),
(45,789,o),
(45,741,cs),
(45,698,o),
(91,681,o),
(135,681,c),
(135,727,o),
(141,780,o),
(187,780,cs),
(221,780,o),
(234,755,o),
(234,712,cs),
(234,657,o),
(216,609,o),
(147,551,c),
(37,459,l),
(37,387,l)
);
}
);
width = 400;
},
{
layerId = "75A83886-EED5-4C31-9670-660514D8A4F6";
shapes = (
{
closed = 1;
nodes = (
(309,387,l),
(313,538,l),
(281,538,l),
(276,509,l),
(272,490,o),
(263,478,o),
(242,478,c),
(91,478,l),
(139,515,ls),
(270,605,o),
(308,638,o),
(308,706,cs),
(308,774,o),
(270,825,o),
(165,825,cs),
(66,825,o),
(21,784,o),
(21,735,cs),
(21,699,o),
(43,683,o),
(109,683,c),
(109,733,o),
(113,773,o),
(152,773,cs),
(177,773,o),
(191,749,o),
(191,711,cs),
(191,653,o),
(160,617,o),
(100,555,cs),
(19,471,l),
(19,387,l)
);
}
);
width = 333;
},
{
layerId = "C91144B6-58F5-45F2-9CE4-7ED6CE127FD4";
shapes = (
{
closed = 1;
nodes = (
(248,386,l),
(249,483,l),
(229,483,l),
(228,464,ls),
(227,427,o),
(221,414,o),
(198,414,cs),
(79,414,l),
(164,543,ls),
(198,594,o),
(235,644,o),
(235,714,cs),
(235,789,o),
(194,823,o),
(140,823,cs),
(88,823,o),
(47,783,o),
(47,742,cs),
(47,721,o),
(60,710,o),
(73,710,c),
(73,764,o),
(94,798,o),
(140,798,cs),
(186,798,o),
(207,767,o),
(207,713,cs),
(207,652,o),
(173,597,o),
(139,548,cs),
(37,399,l),
(37,386,l)
);
}
);
width = 303;
},
{
layerId = "1D4F67F9-897D-45AD-B7F0-CA61A6862C03";
shapes = (
{
closed = 1;
nodes = (
(320,387,l),
(323,480,l),
(304,480,l),
(303,452,ls),
(301,415,o),
(299,411,o),
(251,411,cs),
(90,411,l),
(235,563,ls),
(278,609,o),
(311,646,o),
(311,714,cs),
(311,777,o),
(270,825,o),
(188,825,cs),
(99,825,o),
(67,770,o),
(67,744,cs),
(67,726,o),
(76,717,o),
(89,717,c),
(89,754,o),
(111,800,o),
(186,800,cs),
(262,800,o),
(283,757,o),
(283,712,cs),
(283,644,o),
(254,616,o),
(199,558,cs),
(49,400,l),
(49,387,l)
);
}
);
width = 400;
},
{
layerId = "A0CCC833-A561-4F2A-AF73-A35187C9FE5B";
shapes = (
{
closed = 1;
nodes = (
(275,387,l),
(277,507,l),
(255,507,l),
(251,487,l),
(248,464,o),
(241,445,o),
(217,445,c),
(84,445,l),
(156,528,ls),
(232,602,o),
(267,641,o),
(267,710,cs),
(267,782,o),
(227,824,o),
(151,824,cs),
(73,824,o),
(36,785,o),
(36,739,cs),
(36,712,o),
(53,699,o),
(89,699,c),
(89,759,o),
(106,790,o),
(145,790,cs),
(181,790,o),
(199,759,o),
(199,710,cs),
(199,644,o),
(171,603,o),
(126,548,cs),
(29,431,l),
(29,387,l)
);
}
);
width = 313;
},
{
layerId = "BD18C76C-096B-4C52-83B4-518A374966BE";
shapes = (
{
closed = 1;
nodes = (
(294,387,l),
(297,525,l),
(270,525,l),
(265,499,l),
(262,479,o),
(253,464,o),
(231,464,c),
(88,464,l),
(146,521,ls),
(253,604,o),
(290,639,o),
(290,708,cs),
(290,777,o),
(251,825,o),
(159,825,cs),
(69,825,o),
(27,785,o),
(27,737,cs),
(27,705,o),
(47,690,o),
(100,690,c),
(100,744,o),
(110,780,o),
(149,780,cs),
(179,780,o),
(194,753,o),
(194,710,cs),
(194,649,o),
(165,611,o),
(111,552,cs),
(23,454,l),
(23,387,l)
);
}
);
width = 326;
}
);
script = "";
subCategory = Small;
unicode = 178;
}
{
category = Symbol;
glyphname = micro;
layers = (
{
layerId = "E17BEC9D-CAAD-449F-91D9-03766E30097E";
shapes = (
{
closed = 1;
nodes = (
(244,-240,o),
(289,-203,o),
(289,-153,c),
(180,-141,o),
(161,-62,o),
(163,49,c),
(189,12,o),
(227,-10,o),
(281,-10,c),
(351,-10,o),
(385,29,o),
(416,92,c),
(422,92,l),
(442,40,o),
(498,0,o),
(576,0,cs),
(687,0,l),
(687,61,l),
(677,61,ls),
(619,61,o),
(606,82,o),
(606,145,cs),
(606,536,l),
(411,536,l),
(411,240,ls),
(411,150,o),
(385,90,o),
(342,90,cs),
(296,90,o),
(284,149,o),
(284,210,cs),
(284,536,l),
(89,536,l),
(89,225,l),
(87,58,o),
(77,-20,o),
(77,-100,c),
(77,-204,o),
(125,-240,o),
(181,-240,cs)
);
}
);
width = 702;
},
{
layerId = UUID0;
shapes = (
{
closed = 1;
nodes = (
(215,-240,o),
(237,-203,o),
(237,-153,c),
(163,-141,o),
(158,-62,o),
(156,49,c),
(182,12,o),
(222,-10,o),
(278,-10,c),
(348,-10,o),
(387,27,o),
(418,80,c),
(422,80,l),
(434,28,o),
(465,0,o),
(519,0,cs),
(573,0,l),
(573,42,l),
(570,42,ls),
(541,42,o),
(507,70,o),
(507,129,cs),
(507,536,l),
(413,536,l),
(413,216,ls),
(413,119,o),
(366,54,o),
(292,54,cs),
(215,54,o),
(192,113,o),
(192,200,cs),
(192,536,l),
(98,536,l),
(98,225,l),
(96,58,o),
(86,-41,o),
(86,-121,c),
(86,-211,o),
(125,-240,o),
(167,-240,cs)
);
}
);
width = 615;
},
{
layerId = "58AAA307-6DE9-4107-B80A-C255AE991657";
shapes = (
{
closed = 1;
nodes = (
(232,-240,o),
(267,-203,o),
(267,-153,c),
(173,-141,o),
(160,-62,o),
(160,49,c),
(186,12,o),
(225,-10,o),
(280,-10,cs),
(350,-10,o),
(386,28,o),
(417,87,c),
(422,87,l),
(439,35,o),
(484,0,o),
(552,0,cs),
(639,0,l),
(639,53,l),
(632,53,ls),
(586,53,o),
(564,77,o),
(564,138,cs),
(564,536,l),
(412,536,l),
(412,230,ls),
(412,137,o),
(377,75,o),
(321,75,cs),
(262,75,o),
(245,134,o),
(245,206,cs),
(245,536,l),
(93,536,l),
(93,225,l),
(91,58,o),
(81,-29,o),
(81,-109,cs),
(81,-207,o),
(125,-240,o),
(175,-240,cs)
);
}
);
width = 665;
},
{
layerId = "75A83886-EED5-4C31-9670-660514D8A4F6";
shapes = (
{
closed = 1;
nodes = (
(204,-240,o),
(242,-205,o),
(242,-159,c),
(150,-147,o),
(134,-73,o),
(136,51,c),
(158,12,o),
(189,-10,o),
(234,-10,cs),
(293,-10,o),
(321,31,o),
(347,93,c),
(352,93,l),
(369,39,o),
(415,0,o),
(481,0,cs),
(573,0,l),
(573,56,l),
(565,56,ls),
(517,56,o),
(506,77,o),
(506,138,cs),
(506,536,l),
(343,536,l),
(343,233,ls),
(343,142,o),
(322,80,o),
(286,80,cs),
(248,80,o),
(237,137,o),
(237,204,cs),
(237,536,l),
(74,536,l),
(74,225,ls),
(74,58,o),
(64,-26,o),
(64,-106,cs),
(64,-206,o),
(105,-240,o),
(151,-240,cs)
);
}
);
width = 586;
},
{
layerId = "C91144B6-58F5-45F2-9CE4-7ED6CE127FD4";
shapes = (
{
closed = 1;
nodes = (
(147,-240,o),
(156,-230,o),
(156,-222,c),
(89,-222,o),
(98,-192,o),
(100,66,c),
(113,18,o),
(146,-10,o),
(200,-10,cs),
(254,-10,o),
(297,32,o),
(314,84,c),
(316,84,l),
(318,27,o),
(344,0,o),
(386,0,cs),
(396,0,l),
(396,20,l),
(391,20,ls),
(362,20,o),
(341,42,o),
(341,104,cs),
(341,536,l),
(313,536,l),
(313,199,ls),
(313,89,o),
(269,15,o),
(200,15,cs),
(139,15,o),
(106,61,o),
(106,170,cs),
(106,536,l),
(78,536,l),
(78,225,ls),
(78,58,o),
(72,-62,o),
(72,-142,cs),
(72,-219,o),
(95,-240,o),
(128,-240,cs)
);
}
);
width = 428;
},
{
layerId = "1D4F67F9-897D-45AD-B7F0-CA61A6862C03";
shapes = (
{
closed = 1;
nodes = (
(176,-240,o),
(181,-228,o),
(181,-216,c),
(129,-216,o),
(121,-207,o),
(121,74,c),
(140,21,o),
(180,-10,o),
(252,-10,cs),
(322,-10,o),
(379,36,o),
(410,105,c),
(414,105,l),
(410,31,o),
(445,0,o),
(487,0,cs),
(520,0,l),
(520,22,l),
(511,22,ls),
(456,22,o),
(442,47,o),
(442,109,cs),
(442,536,l),
(414,536,l),
(414,212,ls),
(414,125,o),
(352,15,o),
(253,15,cs),
(173,15,o),
(125,73,o),
(125,168,cs),
(125,536,l),
(97,536,l),
(97,136,ls),
(97,-17,o),
(92,-57,o),
(92,-151,cs),
(92,-217,o),
(118,-240,o),
(144,-240,cs)
);
}
);
width = 551;
},
{
layerId = "A0CCC833-A561-4F2A-AF73-A35187C9FE5B";
shapes = (
{
closed = 1;
nodes = (
(173,-240,o),
(194,-212,o),
(194,-177,c),
(131,-163,o),
(114,-105,o),
(115,58,c),
(135,13,o),
(172,-10,o),
(216,-10,cs),
(272,-10,o),
(306,36,o),
(330,95,c),
(334,95,l),
(342,35,o),
(381,0,o),
(428,0,cs),
(473,0,l),
(473,41,l),
(467,41,ls),
(429,41,o),
(413,61,o),
(413,119,cs),
(413,536,l),
(326,536,l),
(326,214,ls),
(326,117,o),
(292,52,o),
(238,52,cs),
(187,52,o),
(163,100,o),
(163,185,cs),
(163,536,l),
(76,536,l),
(76,225,ls),
(76,58,o),
(67,-43,o),
(67,-123,cs),
(67,-212,o),
(99,-240,o),
(134,-240,cs)
);
}
);
width = 497;
},
{
layerId = "BD18C76C-096B-4C52-83B4-518A374966BE";
shapes = (
{
closed = 1;
nodes = (
(191,-240,o),
(221,-208,o),
(221,-167,c),
(142,-154,o),
(125,-87,o),
(127,54,c),
(148,13,o),
(182,-10,o),
(226,-10,cs),
(284,-10,o),
(314,33,o),
(340,94,c),
(344,94,l),
(357,37,o),
(400,0,o),
(458,0,cs),
(530,0,l),
(530,49,l),
(522,49,ls),
(479,49,o),
(466,70,o),
(466,130,cs),
(466,536,l),
(336,536,l),
(336,225,ls),
(336,131,o),
(309,68,o),
(265,68,cs),
(221,68,o),
(205,121,o),
(205,196,cs),
(205,536,l),
(75,536,l),
(75,225,ls),
(75,58,o),
(65,-33,o),
(65,-113,cs),
(65,-209,o),
(102,-240,o),
(144,-240,cs)
);
}
);
width = 547;
}
);
script = "";
subCategory = Math;
unicode = 181;
}
{
category = Letter;
glyphname = Oslash;
kernLeft = O;
kernRight = O;
layers = (
{
anchors = (
{
name = bottom;
pos = (410,0);
},
{
name = center;
pos = (410,357);
},
{
name = top;
pos = (410,714);
}
);
layerId = "E17BEC9D-CAAD-449F-91D9-03766E30097E";
shapes = (
{
closed = 1;
nodes = (
(162,-40,l),
(242,-40,l),
(268,10,l),
(309,-3,o),
(356,-10,o),
(411,-10,cs),
(639,-10,o),
(766,137,o),
(766,358,cs),
(766,501,o),
(713,612,o),
(616,673,c),
(660,755,l),
(581,755,l),
(554,703,l),
(511,717,o),
(464,725,o),
(412,725,cs),
(171,725,o),
(54,580,o),
(54,359,cs),
(54,214,o),
(104,101,o),
(204,40,c)
);
},
{
closed = 1;
nodes = (
(370,63,o),
(340,78,o),
(318,106,c),
(541,533,l),
(551,486,o),
(556,427,o),
(556,358,cs),
(556,172,o),
(518,63,o),
(410,63,cs)
);
},
{
closed = 1;
nodes = (
(280,182,l),
(269,229,o),
(264,288,o),
(264,358,cs),
(264,544,o),
(304,652,o),
(412,652,cs),
(451,652,o),
(482,636,o),
(503,608,c)
);
}
);
width = 820;
},
{
anchors = (
{
name = bottom;
pos = (371,0);
},
{
name = center;
pos = (370,357);
},
{
name = top;
pos = (371,714);
}
);
layerId = UUID0;
shapes = (
{
closed = 1;
nodes = (
(122,-40,l),
(181,-40,l),
(216,24,l),
(259,2,o),
(311,-10,o),
(371,-10,cs),
(573,-10,o),
(685,137,o),
(685,358,cs),
(685,492,o),
(644,598,o),
(568,661,c),
(620,755,l),
(562,755,l),
(525,689,l),
(482,712,o),
(431,725,o),
(372,725,cs),
(159,725,o),
(56,580,o),
(56,359,cs),
(56,223,o),
(94,115,o),
(173,52,c)
);
},
{
closed = 1;
nodes = (
(320,44,o),
(280,57,o),
(249,83,c),
(528,589,l),
(560,535,o),
(574,457,o),
(574,358,cs),
(574,160,o),
(520,44,o),
(371,44,cs)
);
},
{
closed = 1;
nodes = (
(214,126,l),
(181,180,o),
(167,258,o),
(167,358,cs),
(167,556,o),
(223,671,o),
(372,671,cs),
(423,671,o),
(463,657,o),
(493,631,c)
);
}
);
width = 742;
},
{
anchors = (
{
name = bottom;
pos = (394,0);
},
{
name = center;
pos = (393,357);
},
{
name = top;
pos = (394,714);
}
);
layerId = "58AAA307-6DE9-4107-B80A-C255AE991657";
shapes = (
{
closed = 1;
nodes = (
(145,-40,l),
(216,-40,l),
(246,16,l),
(288,-1,o),
(337,-10,o),
(394,-10,cs),
(611,-10,o),
(732,137,o),
(732,358,cs),
(732,497,o),
(684,606,o),
(596,668,c),
(643,755,l),
(573,755,l),
(542,697,l),
(499,715,o),
(450,725,o),
(395,725,cs),
(166,725,o),
(55,580,o),
(55,359,cs),
(55,218,o),
(100,107,o),
(191,45,c)
);
},
{
closed = 1;
nodes = (
(349,55,o),
(315,69,o),
(289,96,c),
(536,557,l),
(555,507,o),
(564,440,o),
(564,358,cs),
(564,167,o),
(519,55,o),
(394,55,cs)
);
},
{
closed = 1;
nodes = (
(252,158,l),
(232,208,o),
(223,275,o),
(223,358,cs),
(223,549,o),
(270,660,o),
(395,660,cs),
(439,660,o),
(474,645,o),
(499,618,c)
);
}
);
width = 787;
},
{
anchors = (
{
name = bottom;
pos = (342,0);
},
{
name = center;
pos = (342,357);
},
{
name = top;
pos = (342,714);
}
);
layerId = "75A83886-EED5-4C31-9670-660514D8A4F6";
shapes = (
{
closed = 1;
nodes = (
(135,-40,l),
(202,-40,l),
(224,11,l),
(259,-3,o),
(298,-10,o),
(343,-10,cs),
(533,-10,o),
(639,137,o),
(639,358,cs),
(639,500,o),
(596,611,o),
(515,672,c),
(551,755,l),
(484,755,l),
(461,703,l),
(427,717,o),
(388,725,o),
(344,725,cs),
(142,725,o),
(45,580,o),
(45,359,cs),
(45,214,o),
(86,102,o),
(170,41,c)
);
},
{
closed = 1;
nodes = (
(309,58,o),
(284,74,o),
(265,104,c),
(451,527,l),
(460,482,o),
(464,425,o),
(464,358,cs),
(464,169,o),
(432,58,o),
(343,58,cs)
);
},
{
closed = 1;
nodes = (
(235,187,l),
(225,233,o),
(221,291,o),
(221,358,cs),
(221,547,o),
(254,657,o),
(344,657,cs),
(377,657,o),
(402,641,o),
(421,612,c)
);
}
);
width = 684;
},
{
anchors = (
{
name = bottom;
pos = (265,0);
},
{
name = center;
pos = (264,357);
},
{
name = top;
pos = (265,714);
}
);
layerId = "C91144B6-58F5-45F2-9CE4-7ED6CE127FD4";
shapes = (
{
closed = 1;
nodes = (
(77,-40,l),
(104,-40,l),
(139,39,l),
(172,7,o),
(213,-10,o),
(264,-10,cs),
(404,-10,o),
(485,125,o),
(485,358,cs),
(485,503,o),
(461,603,o),
(413,661,c),
(454,755,l),
(426,755,l),
(394,681,l),
(360,711,o),
(317,725,o),
(265,725,cs),
(118,725,o),
(44,596,o),
(44,359,cs),
(44,228,o),
(69,123,o),
(120,59,c)
);
},
{
closed = 1;
nodes = (
(218,15,o),
(180,33,o),
(151,66,c),
(400,633,l),
(440,575,o),
(457,481,o),
(457,358,cs),
(457,146,o),
(392,15,o),
(264,15,cs)
);
},
{
closed = 1;
nodes = (
(133,88,l),
(93,148,o),
(72,243,o),
(72,358,cs),
(72,574,o),
(131,700,o),
(265,700,cs),
(315,700,o),
(353,684,o),
(382,655,c)
);
}
);
width = 529;
},
{
anchors = (
{
name = bottom;
pos = (343,0);
},
{
name = center;
pos = (342,357);
},
{
name = top;
pos = (343,714);
}
);
layerId = "1D4F67F9-897D-45AD-B7F0-CA61A6862C03";
shapes = (
{
closed = 1;
nodes = (
(101,-40,l),
(130,-40,l),
(176,40,l),
(219,7,o),
(275,-10,o),
(343,-10,cs),
(545,-10,o),
(627,135,o),
(627,358,cs),
(627,497,o),
(598,601,o),
(531,662,c),
(584,755,l),
(554,755,l),
(511,679,l),
(468,709,o),
(413,725,o),
(344,725,cs),
(157,725,o),
(58,592,o),
(58,359,cs),
(58,221,o),
(90,118,o),
(156,56,c)
);
},
{
closed = 1;
nodes = (
(280,15,o),
(229,32,o),
(190,64,c),
(517,638,l),
(575,580,o),
(599,484,o),
(599,358,cs),
(599,145,o),
(524,15,o),
(343,15,cs)
);
},
{
closed = 1;
nodes = (
(170,81,l),
(114,140,o),
(86,234,o),
(86,358,cs),
(86,573,o),
(172,700,o),
(344,700,cs),
(408,700,o),
(459,684,o),
(497,655,c)
);
}
);
width = 686;
},
{
anchors = (
{
name = bottom;
pos = (298,0);
},
{
name = center;
pos = (298,357);
},
{
name = top;
pos = (298,714);
}
);
layerId = "A0CCC833-A561-4F2A-AF73-A35187C9FE5B";
shapes = (
{
closed = 1;
nodes = (
(102,-40,l),
(151,-40,l),
(178,23,l),
(212,1,o),
(251,-10,o),
(298,-10,cs),
(461,-10,o),
(552,137,o),
(552,358,cs),
(552,493,o),
(519,599,o),
(456,662,c),
(496,755,l),
(447,755,l),
(419,691,l),
(385,713,o),
(346,725,o),
(299,725,cs),
(127,725,o),
(44,580,o),
(44,359,cs),
(44,222,o),
(77,114,o),
(142,51,c)
);
},
{
closed = 1;
nodes = (
(259,43,o),
(229,58,o),
(206,86,c),
(420,580,l),
(442,527,o),
(452,452,o),
(452,358,cs),
(452,160,o),
(412,43,o),
(298,43,cs)
);
},
{
closed = 1;
nodes = (
(179,136,l),
(155,188,o),
(144,264,o),
(144,358,cs),
(144,557,o),
(190,672,o),
(299,672,cs),
(339,672,o),
(369,658,o),
(393,630,c)
);
}
);
width = 596;
},
{
anchors = (
{
name = bottom;
pos = (323,0);
},
{
name = center;
pos = (323,357);
},
{
name = top;
pos = (323,714);
}
);
layerId = "BD18C76C-096B-4C52-83B4-518A374966BE";
shapes = (
{
closed = 1;
nodes = (
(121,-40,l),
(180,-40,l),
(204,16,l),
(238,-1,o),
(278,-10,o),
(324,-10,cs),
(502,-10,o),
(601,137,o),
(601,358,cs),
(601,497,o),
(562,606,o),
(489,668,c),
(527,755,l),
(468,755,l),
(443,698,l),
(409,715,o),
(370,725,o),
(325,725,cs),
(136,725,o),
(45,580,o),
(45,359,cs),
(45,217,o),
(82,107,o),
(158,45,c)
);
},
{
closed = 1;
nodes = (
(287,51,o),
(260,67,o),
(239,96,c),
(437,550,l),
(452,502,o),
(459,437,o),
(459,358,cs),
(459,165,o),
(423,51,o),
(324,51,cs)
);
},
{
closed = 1;
nodes = (
(211,165,l),
(195,214,o),
(188,279,o),
(188,358,cs),
(188,551,o),
(226,664,o),
(325,664,cs),
(360,664,o),
(388,648,o),
(409,620,c)
);
}
);
width = 646;
}
);
script = latin;
subCategory = Uppercase;
unicode = 216;
}
{
category = Letter;
glyphname = germandbls;
kernLeft = f;
kernRight = o;
layers = (
{
anchors = (
{
name = bottom;
pos = (375,0);
},
{
name = center;
pos = (353,382);
},
{
name = top;
pos = (375,775);
}
);
layerId = "E17BEC9D-CAAD-449F-91D9-03766E30097E";
shapes = (
{
closed = 1;
nodes = (
(633,-10,o),
(713,49,o),
(713,160,cs),
(713,248,o),
(648,290,o),
(579,327,cs),
(517,360,o),
(491,373,o),
(491,424,cs),
(491,477,o),
(538,491,o),
(598,491,cs),
(662,491,l),
(661,686,o),
(585,775,o),
(380,775,cs),
(214,775,o),
(87,713,o),
(87,531,cs),
(87,536,l),
(8,536,l),
(8,451,l),
(87,451,l),
(87,121,ls),
(87,68,o),
(75,61,o),
(59,61,cs),
(-6,61,l),
(-6,0,l),
(280,0,l),
(280,568,ls),
(280,674,o),
(323,711,o),
(382,711,cs),
(447,711,o),
(483,676,o),
(485,548,c),
(405,537,o),
(325,500,o),
(325,390,cs),
(325,313,o),
(363,269,o),
(450,224,cs),
(527,184,o),
(554,156,o),
(554,116,cs),
(554,77,o),
(531,57,o),
(499,57,cs),
(441,57,o),
(404,101,o),
(388,179,c),
(343,179,o),
(311,157,o),
(311,109,cs),
(311,44,o),
(363,-10,o),
(495,-10,c)
);
}
);
width = 749;
},
{
anchors = (
{
name = bottom;
pos = (324,0);
},
{
name = center;
pos = (313,376);
},
{
name = top;
pos = (324,763);
}
);
layerId = UUID0;
shapes = (
{
closed = 1;
nodes = (
(539,-10,o),
(603,44,o),
(603,146,cs),
(603,206,o),
(580,264,o),
(480,310,cs),
(400,347,o),
(376,369,o),
(376,410,cs),
(376,464,o),
(408,491,o),
(479,491,cs),
(552,491,l),
(551,667,o),
(500,763,o),
(334,763,cs),
(212,763,o),
(118,713,o),
(118,566,cs),
(118,536,l),
(37,536,l),
(37,489,l),
(118,489,l),
(118,114,ls),
(118,51,o),
(81,42,o),
(36,42,cs),
(23,42,l),
(23,0,l),
(212,0,l),
(212,580,ls),
(212,664,o),
(252,718,o),
(333,718,cs),
(423,718,o),
(458,664,o),
(458,538,c),
(345,538,o),
(293,484,o),
(293,403,cs),
(293,318,o),
(336,282,o),
(420,241,cs),
(501,202,o),
(517,173,o),
(517,129,cs),
(517,68,o),
(482,38,o),
(433,38,cs),
(360,38,o),
(335,95,o),
(335,165,c),
(314,165,o),
(278,150,o),
(278,96,cs),
(278,26,o),
(341,-10,o),
(434,-10,c)
);
}
);
width = 647;
},
{
anchors = (
{
name = bottom;
pos = (353,0);
},
{
name = center;
pos = (336,380);
},
{
name = top;
pos = (353,770);
}
);
layerId = "58AAA307-6DE9-4107-B80A-C255AE991657";
shapes = (
{
closed = 1;
nodes = (
(593,-10,o),
(666,45,o),
(666,158,cs),
(666,220,o),
(636,281,o),
(553,320,cs),
(472,358,o),
(442,377,o),
(442,424,cs),
(442,477,o),
(494,491,o),
(559,491,cs),
(615,491,l),
(614,672,o),
(545,770,o),
(360,770,c),
(213,770,o),
(100,713,o),
(100,546,cs),
(100,536,l),
(20,536,l),
(20,467,l),
(100,467,l),
(100,118,ls),
(100,61,o),
(77,53,o),
(49,53,cs),
(6,53,l),
(6,0,l),
(251,0,l),
(251,573,ls),
(251,670,o),
(295,714,o),
(363,714,cs),
(431,714,o),
(472,668,o),
(473,546,c),
(379,540,o),
(311,499,o),
(311,407,cs),
(311,338,o),
(340,276,o),
(437,231,cs),
(516,194,o),
(538,163,o),
(538,116,cs),
(538,73,o),
(510,49,o),
(471,49,c),
(418,49,o),
(382,96,o),
(367,173,c),
(332,173,o),
(285,163,o),
(285,107,cs),
(285,40,o),
(344,-10,o),
(469,-10,c)
);
}
);
width = 706;
},
{
anchors = (
{
name = bottom;
pos = (313,0);
},
{
name = center;
pos = (295,381);
},
{
name = top;
pos = (313,772);
}
);
layerId = "75A83886-EED5-4C31-9670-660514D8A4F6";
shapes = (
{
closed = 1;
nodes = (
(528,-10,o),
(595,48,o),
(595,156,cs),
(595,239,o),
(541,283,o),
(483,322,cs),
(432,356,o),
(410,372,o),
(410,421,cs),
(410,473,o),
(449,492,o),
(499,492,cs),
(553,492,l),
(552,681,o),
(488,772,o),
(317,772,cs),
(179,772,o),
(73,713,o),
(73,541,cs),
(73,536,l),
(7,536,l),
(7,460,l),
(73,460,l),
(73,119,ls),
(73,63,o),
(63,56,o),
(49,56,cs),
(-5,56,l),
(-5,0,l),
(234,0,l),
(234,571,ls),
(234,671,o),
(270,713,o),
(319,713,cs),
(373,713,o),
(403,671,o),
(404,545,c),
(338,536,o),
(272,495,o),
(272,392,cs),
(272,315,o),
(303,274,o),
(375,230,cs),
(439,191,o),
(462,161,o),
(462,119,cs),
(462,74,o),
(443,51,o),
(417,51,cs),
(368,51,o),
(337,98,o),
(324,175,c),
(286,175,o),
(260,156,o),
(260,107,cs),
(260,42,o),
(303,-10,o),
(413,-10,cs)
);
}
);
width = 625;
},
{
anchors = (
{
name = bottom;
pos = (224,0);
},
{
name = center;
pos = (220,372);
},
{
name = top;
pos = (224,755);
}
);
layerId = "C91144B6-58F5-45F2-9CE4-7ED6CE127FD4";
shapes = (
{
closed = 1;
nodes = (
(368,-10,o),
(410,42,o),
(410,133,cs),
(410,194,o),
(393,243,o),
(320,291,cs),
(253,335,o),
(237,376,o),
(237,404,cs),
(237,451,o),
(251,504,o),
(330,504,cs),
(371,504,l),
(370,660,o),
(345,755,o),
(234,755,cs),
(159,755,o),
(103,703,o),
(103,590,cs),
(103,536,l),
(33,536,l),
(33,511,l),
(103,511,l),
(103,103,ls),
(103,29,o),
(97,20,o),
(47,20,cs),
(30,20,l),
(30,0,l),
(131,0,l),
(131,588,ls),
(131,662,o),
(155,730,o),
(231,730,cs),
(321,730,o),
(343,649,o),
(343,529,c),
(242,532,o),
(209,472,o),
(209,405,cs),
(209,344,o),
(251,300,o),
(311,264,cs),
(368,226,o),
(382,191,o),
(382,133,cs),
(382,58,o),
(353,15,o),
(299,15,cs),
(236,15,o),
(212,62,o),
(214,156,c),
(207,156,o),
(193,148,o),
(193,99,cs),
(193,43,o),
(223,-10,o),
(299,-10,cs)
);
}
);
width = 448;
},
{
anchors = (
{
name = bottom;
pos = (289,0);
},
{
name = center;
pos = (281,372);
},
{
name = top;
pos = (289,755);
}
);
layerId = "1D4F67F9-897D-45AD-B7F0-CA61A6862C03";
shapes = (
{
closed = 1;
nodes = (
(464,-10,o),
(526,42,o),
(526,130,cs),
(526,202,o),
(489,246,o),
(403,292,cs),
(315,337,o),
(297,369,o),
(297,406,cs),
(297,448,o),
(311,503,o),
(441,503,cs),
(475,503,l),
(474,653,o),
(450,755,o),
(301,755,cs),
(218,755,o),
(135,713,o),
(135,592,cs),
(135,536,l),
(40,536,l),
(40,511,l),
(135,511,l),
(135,94,ls),
(135,24,o),
(129,20,o),
(64,20,cs),
(36,20,l),
(36,0,l),
(163,0,l),
(163,596,ls),
(163,673,o),
(204,730,o),
(301,730,cs),
(419,730,o),
(446,644,o),
(446,528,c),
(315,528,o),
(269,479,o),
(269,406,cs),
(269,331,o),
(335,300,o),
(401,263,cs),
(468,230,o),
(498,191,o),
(498,131,cs),
(498,60,o),
(457,15,o),
(384,15,cs),
(318,15,o),
(266,45,o),
(266,149,c),
(252,149,o),
(240,128,o),
(240,103,cs),
(240,38,o),
(304,-10,o),
(383,-10,cs)
);
}
);
width = 578;
},
{
anchors = (
{
name = bottom;
pos = (263,0);
},
{
name = center;
pos = (252,376);
},
{
name = top;
pos = (263,762);
}
);
layerId = "A0CCC833-A561-4F2A-AF73-A35187C9FE5B";
shapes = (
{
closed = 1;
nodes = (
(437,-10,o),
(490,44,o),
(490,143,cs),
(490,213,o),
(456,263,o),
(389,307,cs),
(330,346,o),
(312,370,o),
(312,412,cs),
(312,461,o),
(337,495,o),
(403,495,cs),
(450,495,l),
(449,665,o),
(407,762,o),
(270,762,cs),
(169,762,o),
(90,713,o),
(90,569,cs),
(90,536,l),
(20,536,l),
(20,487,l),
(90,487,l),
(90,113,ls),
(90,50,o),
(70,41,o),
(36,41,cs),
(14,41,l),
(14,0,l),
(176,0,l),
(176,581,ls),
(176,663,o),
(207,719,o),
(269,719,cs),
(340,719,o),
(366,656,o),
(366,536,c),
(283,534,o),
(236,482,o),
(236,399,cs),
(236,320,o),
(273,286,o),
(336,246,cs),
(395,209,o),
(413,176,o),
(413,127,cs),
(413,67,o),
(390,33,o),
(353,33,cs),
(296,33,o),
(276,89,o),
(271,164,c),
(247,164,o),
(222,152,o),
(222,103,cs),
(222,35,o),
(275,-10,o),
(351,-10,cs)
);
}
);
width = 525;
},
{
anchors = (
{
name = bottom;
pos = (291,0);
},
{
name = center;
pos = (276,379);
},
{
name = top;
pos = (291,768);
}
);
layerId = "BD18C76C-096B-4C52-83B4-518A374966BE";
shapes = (
{
closed = 1;
nodes = (
(489,-10,o),
(550,46,o),
(550,150,cs),
(550,228,o),
(504,274,o),
(442,315,cs),
(388,352,o),
(367,371,o),
(367,417,cs),
(367,468,o),
(400,493,o),
(457,493,cs),
(508,493,l),
(507,674,o),
(453,768,o),
(297,768,cs),
(175,768,o),
(80,713,o),
(80,553,cs),
(80,536,l),
(13,536,l),
(13,472,l),
(80,472,l),
(80,116,ls),
(80,57,o),
(66,49,o),
(43,49,cs),
(3,49,l),
(3,0,l),
(209,0,l),
(209,575,ls),
(209,668,o),
(243,716,o),
(297,716,cs),
(359,716,o),
(387,665,o),
(387,541,c),
(314,535,o),
(256,489,o),
(256,395,cs),
(256,317,o),
(290,279,o),
(358,237,cs),
(420,199,o),
(441,168,o),
(441,122,cs),
(441,71,o),
(420,43,o),
(389,43,cs),
(337,43,o),
(310,94,o),
(301,170,c),
(269,170,o),
(243,154,o),
(243,105,cs),
(243,39,o),
(291,-10,o),
(386,-10,cs)
);
}
);
width = 582;
}
);
script = latin;
subCategory = Lowercase;
unicode = 223;
}
{
category = Letter;
glyphname = idotless;
layers = (
{
anchors = (
{
name = bottom;
pos = (188,0);
},
{
name = center;
pos = (180,268);
},
{
name = top;
pos = (188,536);
}
);
layerId = "E17BEC9D-CAAD-449F-91D9-03766E30097E";
shapes = (
{
closed = 1;
nodes = (
(355,0,l),
(355,61,l),
(344,61,ls),
(307,61,o),
(281,78,o),
(281,131,cs),
(281,536,l),
(5,536,l),
(5,475,l),
(24,475,ls),
(60,475,o),
(87,458,o),
(87,409,cs),
(87,135,ls),
(87,79,o),
(62,61,o),
(24,61,c),
(12,61,l),
(12,0,l)
);
}
);
width = 376;
},
{
anchors = (
{
name = bottom;
pos = (160,0);
},
{
name = center;
pos = (165,268);
},
{
name = top;
pos = (160,536);
}
);
layerId = UUID0;
shapes = (
{
closed = 1;
nodes = (
(307,0,l),
(307,42,l),
(294,42,ls),
(249,42,o),
(212,51,o),
(212,114,cs),
(212,536,l),
(33,536,l),
(33,494,l),
(36,494,ls),
(80,494,o),
(118,485,o),
(118,426,c),
(118,109,l),
(118,50,o),
(80,42,o),
(36,42,c),
(23,42,l),
(23,0,l)
);
}
);
width = 320;
},
{
anchors = (
{
name = bottom;
pos = (176,0);
},
{
name = center;
pos = (176,268);
},
{
name = top;
pos = (176,536);
}
);
layerId = "58AAA307-6DE9-4107-B80A-C255AE991657";
shapes = (
{
closed = 1;
nodes = (
(335,0,l),
(335,53,l),
(323,53,ls),
(294,53,o),
(252,61,o),
(252,118,cs),
(252,536,l),
(17,536,l),
(17,483,l),
(29,483,ls),
(57,483,o),
(100,475,o),
(100,422,cs),
(100,118,ls),
(100,61,o),
(58,53,o),
(29,53,cs),
(17,53,l),
(17,0,l)
);
}
);
width = 352;
},
{
anchors = (
{
name = bottom;
pos = (157,0);
},
{
name = center;
pos = (150,268);
},
{
name = top;
pos = (157,536);
}
);
layerId = "75A83886-EED5-4C31-9670-660514D8A4F6";
shapes = (
{
closed = 1;
nodes = (
(296,0,l),
(296,56,l),
(287,56,ls),
(256,56,o),
(234,71,o),
(234,127,cs),
(234,536,l),
(4,536,l),
(4,480,l),
(19,480,ls),
(49,480,o),
(72,465,o),
(72,413,cs),
(72,129,ls),
(72,72,o),
(51,56,o),
(19,56,cs),
(10,56,l),
(10,0,l)
);
}
);
width = 313;
},
{
anchors = (
{
name = bottom;
pos = (110,0);
},
{
name = center;
pos = (117,268);
},
{
name = top;
pos = (110,536);
}
);
layerId = "C91144B6-58F5-45F2-9CE4-7ED6CE127FD4";
shapes = (
{
closed = 1;
nodes = (
(212,0,l),
(212,20,l),
(199,20,ls),
(139,20,o),
(133,26,o),
(133,96,cs),
(133,536,l),
(37,536,l),
(37,516,l),
(43,516,ls),
(101,516,o),
(105,508,o),
(105,437,cs),
(105,96,ls),
(105,26,o),
(99,20,o),
(38,20,cs),
(22,20,l),
(22,0,l)
);
}
);
width = 219;
},
{
anchors = (
{
name = bottom;
pos = (140,0);
},
{
name = center;
pos = (152,268);
},
{
name = top;
pos = (140,536);
}
);
layerId = "1D4F67F9-897D-45AD-B7F0-CA61A6862C03";
shapes = (
{
closed = 1;
nodes = (
(273,0,l),
(273,20,l),
(245,20,ls),
(170,20,o),
(166,24,o),
(166,94,cs),
(166,536,l),
(53,536,l),
(53,516,l),
(71,516,ls),
(130,516,o),
(138,511,o),
(138,442,cs),
(138,94,ls),
(138,24,o),
(133,20,o),
(61,20,c),
(31,20,l),
(31,0,l)
);
}
);
width = 280;
},
{
anchors = (
{
name = bottom;
pos = (130,0);
},
{
name = center;
pos = (133,268);
},
{
name = top;
pos = (130,536);
}
);
layerId = "A0CCC833-A561-4F2A-AF73-A35187C9FE5B";
shapes = (
{
closed = 1;
nodes = (
(249,0,l),
(249,41,l),
(239,41,ls),
(200,41,o),
(176,52,o),
(176,115,cs),
(176,536,l),
(22,536,l),
(22,495,l),
(32,495,ls),
(69,495,o),
(90,484,o),
(90,425,cs),
(90,110,ls),
(90,51,o),
(65,41,o),
(27,41,cs),
(17,41,l),
(17,0,l)
);
}
);
width = 260;
},
{
anchors = (
{
name = bottom;
pos = (145,0);
},
{
name = center;
pos = (143,268);
},
{
name = top;
pos = (145,536);
}
);
layerId = "BD18C76C-096B-4C52-83B4-518A374966BE";
shapes = (
{
closed = 1;
nodes = (
(275,0,l),
(275,49,l),
(266,49,ls),
(232,49,o),
(209,63,o),
(209,122,cs),
(209,536,l),
(12,536,l),
(12,487,l),
(25,487,ls),
(58,487,o),
(80,473,o),
(80,418,cs),
(80,121,ls),
(80,63,o),
(57,49,o),
(22,49,cs),
(13,49,l),
(13,0,l)
);
}
);
width = 290;
}
);
script = latin;
subCategory = Lowercase;
unicode = 305;
}
{
category = Letter;
glyphname = kgreenlandic;
kernLeft = n;
kernRight = k;
layers = (
{
anchors = (
{
name = bottom;
pos = (337,0);
},
{
name = center;
pos = (344,268);
},
{
name = top;
pos = (337,536);
}
);
layerId = "E17BEC9D-CAAD-449F-91D9-03766E30097E";
shapes = (
{
closed = 1;
nodes = (
(370,0,l),
(370,61,l),
(351,61,ls),
(334,61,o),
(289,69,o),
(289,125,c),
(289,199,l),
(304,211,l),
(384,83,ls),
(433,6,o),
(490,0,o),
(659,0,c),
(673,0,l),
(673,61,l),
(670,61,ls),
(647,61,o),
(606,83,o),
(571,136,cs),
(438,334,l),
(496,401,l),
(548,460,o),
(591,480,o),
(637,480,c),
(637,536,l),
(362,536,l),
(362,480,l),
(395,480,o),
(416,465,o),
(416,448,c),
(416,445,o),
(416,438,o),
(410,430,c),
(283,286,l),
(283,286,o),
(289,338,o),
(289,374,cs),
(289,536,l),
(16,536,l),
(16,475,l),
(31,475,ls),
(47,475,o),
(94,468,o),
(94,419,cs),
(94,121,ls),
(94,68,o),
(48,61,o),
(31,61,cs),
(16,61,l),
(16,0,l)
);
}
);
width = 674;
},
{
anchors = (
{
name = bottom;
pos = (293,0);
},
{
name = center;
pos = (302,268);
},
{
name = top;
pos = (293,536);
}
);
layerId = UUID0;
shapes = (
{
closed = 1;
nodes = (
(287,0,l),
(287,42,l),
(284,42,ls),
(240,42,o),
(202,50,o),
(202,109,c),
(202,199,l),
(276,254,l),
(376,97,ls),
(432,9,o),
(456,0,o),
(572,0,c),
(586,0,l),
(586,42,l),
(583,42,ls),
(538,42,o),
(507,71,o),
(472,124,cs),
(339,322,l),
(409,401,l),
(461,460,o),
(504,494,o),
(550,494,c),
(550,536,l),
(329,536,l),
(329,494,l),
(362,494,o),
(378,491,o),
(378,474,c),
(378,455,o),
(366,433,o),
(323,385,c),
(198,248,l),
(198,248,o),
(202,338,o),
(202,374,cs),
(202,536,l),
(18,536,l),
(18,494,l),
(26,494,ls),
(70,494,o),
(108,485,o),
(108,426,cs),
(108,114,ls),
(108,51,o),
(71,42,o),
(26,42,cs),
(18,42,l),
(18,0,l)
);
}
);
width = 585;
},
{
anchors = (
{
name = bottom;
pos = (318,0);
},
{
name = center;
pos = (326,268);
},
{
name = top;
pos = (318,536);
}
);
layerId = "58AAA307-6DE9-4107-B80A-C255AE991657";
shapes = (
{
closed = 1;
nodes = (
(335,0,l),
(335,53,l),
(323,53,ls),
(294,53,o),
(252,61,o),
(252,118,c),
(252,199,l),
(292,229,l),
(381,89,ls),
(433,7,o),
(476,0,o),
(622,0,cs),
(636,0,l),
(636,53,l),
(633,53,ls),
(601,53,o),
(564,78,o),
(529,131,cs),
(396,329,l),
(459,401,l),
(511,460,o),
(554,486,o),
(600,486,c),
(600,536,l),
(348,536,l),
(348,486,l),
(381,486,o),
(400,476,o),
(400,459,cs),
(400,449,o),
(395,436,o),
(373,411,cs),
(247,270,l),
(247,270,o),
(252,338,o),
(252,374,cs),
(252,536,l),
(17,536,l),
(17,483,l),
(29,483,ls),
(57,483,o),
(100,475,o),
(100,422,cs),
(100,118,ls),
(100,61,o),
(58,53,o),
(29,53,cs),
(17,53,l),
(17,0,l)
);
}
);
width = 636;
},
{
anchors = (
{
name = bottom;
pos = (281,0);
},
{
name = center;
pos = (287,268);
},
{
name = top;
pos = (281,536);
}
);
layerId = "75A83886-EED5-4C31-9670-660514D8A4F6";
shapes = (
{
closed = 1;
nodes = (
(309,0,l),
(309,56,l),
(293,56,ls),
(279,56,o),
(242,64,o),
(242,121,cs),
(242,197,l),
(253,224,l),
(321,87,ls),
(360,6,o),
(409,0,o),
(550,0,cs),
(561,0,l),
(561,56,l),
(559,56,ls),
(540,56,o),
(506,80,o),
(477,133,cs),
(366,332,l),
(415,401,ls),
(456,460,o),
(493,484,o),
(531,484,c),
(531,536,l),
(302,536,l),
(302,484,l),
(329,484,o),
(347,471,o),
(347,454,cs),
(347,448,o),
(350,436,o),
(337,421,cs),
(237,276,l),
(237,276,o),
(242,338,o),
(242,374,cs),
(242,536,l),
(13,536,l),
(13,480,l),
(26,480,ls),
(39,480,o),
(78,473,o),
(78,421,cs),
(78,119,ls),
(78,63,o),
(40,56,o),
(26,56,cs),
(13,56,l),
(13,0,l)
);
}
);
width = 562;
},
{
anchors = (
{
name = bottom;
pos = (203,0);
},
{
name = center;
pos = (211,268);
},
{
name = top;
pos = (203,536);
}
);
layerId = "C91144B6-58F5-45F2-9CE4-7ED6CE127FD4";
shapes = (
{
closed = 1;
nodes = (
(181,0,l),
(181,20,l),
(178,20,ls),
(122,20,o),
(116,26,o),
(116,96,cs),
(116,188,l),
(192,295,l),
(287,101,ls),
(331,10,o),
(348,0,o),
(402,0,cs),
(408,0,l),
(408,20,l),
(401,20,ls),
(359,20,o),
(343,43,o),
(311,114,cs),
(210,322,l),
(268,403,ls),
(336,500,o),
(343,516,o),
(379,516,c),
(379,536,l),
(243,536,l),
(243,516,l),
(285,516,o),
(295,512,o),
(295,496,cs),
(295,481,o),
(277,454,o),
(211,362,cs),
(112,222,l),
(117,266,o),
(116,336,o),
(116,373,cs),
(116,536,l),
(14,536,l),
(14,516,l),
(21,516,ls),
(82,516,o),
(88,510,o),
(88,440,cs),
(88,96,ls),
(88,26,o),
(82,20,o),
(21,20,cs),
(14,20,l),
(14,0,l)
);
}
);
width = 405;
},
{
anchors = (
{
name = bottom;
pos = (261,0);
},
{
name = center;
pos = (272,268);
},
{
name = top;
pos = (261,536);
}
);
layerId = "1D4F67F9-897D-45AD-B7F0-CA61A6862C03";
shapes = (
{
closed = 1;
nodes = (
(233,0,l),
(233,20,l),
(218,20,ls),
(151,20,o),
(146,24,o),
(146,94,cs),
(146,181,l),
(255,298,l),
(371,110,ls),
(434,9,o),
(445,0,o),
(510,0,cs),
(524,0,l),
(524,20,l),
(520,20,ls),
(477,20,o),
(448,40,o),
(400,116,cs),
(274,318,l),
(379,430,ls),
(441,497,o),
(442,516,o),
(494,516,c),
(494,536,l),
(325,536,l),
(325,516,l),
(385,516,o),
(395,514,o),
(395,498,cs),
(395,473,o),
(346,427,o),
(272,350,cs),
(144,215,l),
(145,272,o),
(146,322,o),
(146,374,cs),
(146,536,l),
(20,536,l),
(20,516,l),
(53,516,ls),
(111,516,o),
(118,511,o),
(118,442,cs),
(118,94,ls),
(118,24,o),
(114,20,o),
(42,20,cs),
(20,20,l),
(20,0,l)
);
}
);
width = 521;
},
{
anchors = (
{
name = bottom;
pos = (237,0);
},
{
name = center;
pos = (244,268);
},
{
name = top;
pos = (237,536);
}
);
layerId = "A0CCC833-A561-4F2A-AF73-A35187C9FE5B";
shapes = (
{
closed = 1;
nodes = (
(237,0,l),
(237,41,l),
(233,41,ls),
(202,41,o),
(171,49,o),
(171,108,cs),
(171,192,l),
(219,261,l),
(299,98,ls),
(342,8,o),
(365,0,o),
(463,0,cs),
(475,0,l),
(475,41,l),
(472,41,ls),
(439,41,o),
(413,71,o),
(386,124,cs),
(281,325,l),
(335,401,ls),
(376,460,o),
(408,495,o),
(446,495,c),
(446,536,l),
(269,536,l),
(269,495,l),
(295,495,o),
(308,488,o),
(308,471,cs),
(308,456,o),
(300,432,o),
(266,385,cs),
(167,245,l),
(167,245,o),
(171,338,o),
(171,374,cs),
(171,536,l),
(14,536,l),
(14,495,l),
(22,495,ls),
(53,495,o),
(84,486,o),
(84,427,cs),
(84,113,ls),
(84,50,o),
(54,41,o),
(22,41,cs),
(14,41,l),
(14,0,l)
);
}
);
width = 474;
},
{
anchors = (
{
name = bottom;
pos = (262,0);
},
{
name = center;
pos = (268,268);
},
{
name = top;
pos = (262,536);
}
);
layerId = "BD18C76C-096B-4C52-83B4-518A374966BE";
shapes = (
{
closed = 1;
nodes = (
(278,0,l),
(278,49,l),
(267,49,ls),
(245,49,o),
(211,57,o),
(211,115,cs),
(211,195,l),
(238,240,l),
(311,92,ls),
(352,7,o),
(390,0,o),
(512,0,cs),
(524,0,l),
(524,49,l),
(521,49,ls),
(496,49,o),
(466,76,o),
(437,129,cs),
(329,329,l),
(380,401,ls),
(421,460,o),
(456,489,o),
(494,489,c),
(494,536,l),
(288,536,l),
(288,489,l),
(314,489,o),
(330,478,o),
(330,461,cs),
(330,451,o),
(328,434,o),
(306,405,cs),
(207,263,l),
(207,263,o),
(211,338,o),
(211,374,cs),
(211,536,l),
(13,536,l),
(13,487,l),
(24,487,ls),
(45,487,o),
(81,479,o),
(81,424,cs),
(81,116,ls),
(81,57,o),
(46,49,o),
(24,49,cs),
(13,49,l),
(13,0,l)
);
}
);
width = 524;
}
);
script = latin;
subCategory = Lowercase;
unicode = 312;
}
{
category = Letter;
glyphname = Eng;
kernLeft = B;
kernRight = J;
layers = (
{
anchors = (
{
name = bottom;
pos = (403,-240);
},
{
name = center;
pos = (409,237);
},
{
name = top;
pos = (403,714);
}
);
layerId = "E17BEC9D-CAAD-449F-91D9-03766E30097E";
shapes = (
{
closed = 1;
nodes = (
(532,-240,ls),
(643,-240,o),
(706,-179,o),
(706,0,cs),
(706,593,ls),
(706,636,o),
(725,653,o),
(755,653,cs),
(798,653,l),
(798,714,l),
(530,714,l),
(530,653,l),
(573,653,ls),
(600,653,o),
(621,639,o),
(621,597,cs),
(621,255,l),
(272,714,l),
(21,714,l),
(21,653,l),
(63,653,ls),
(89,653,o),
(113,646,o),
(113,597,cs),
(113,121,ls),
(113,68,o),
(90,61,o),
(54,61,cs),
(21,61,l),
(21,0,l),
(289,0,l),
(289,61,l),
(246,61,ls),
(211,61,o),
(198,68,o),
(198,121,cs),
(198,533,l),
(621,0,l),
(621,-9,ls),
(621,-119,o),
(564,-174,o),
(501,-174,cs),
(480,-174,l),
(480,-240,l)
);
}
);
width = 806;
},
{
anchors = (
{
name = bottom;
pos = (382,-240);
},
{
name = center;
pos = (386,237);
},
{
name = top;
pos = (382,714);
}
);
layerId = UUID0;
shapes = (
{
closed = 1;
nodes = (
(488,-240,ls),
(589,-240,o),
(640,-187,o),
(640,-8,cs),
(640,600,l),
(640,663,o),
(677,672,o),
(722,672,cs),
(735,672,l),
(735,714,l),
(484,714,l),
(484,672,l),
(497,672,ls),
(541,672,o),
(579,663,o),
(579,604,cs),
(579,175,l),
(221,714,l),
(38,714,l),
(38,672,l),
(51,672,ls),
(95,672,o),
(133,663,o),
(133,604,cs),
(133,114,ls),
(133,51,o),
(96,42,o),
(51,42,cs),
(38,42,l),
(38,0,l),
(289,0,l),
(289,42,l),
(276,42,ls),
(231,42,o),
(194,51,o),
(194,114,cs),
(194,576,l),
(579,0,l),
(579,-9,ls),
(579,-150,o),
(543,-193,o),
(479,-193,cs),
(465,-193,l),
(465,-240,l)
);
}
);
width = 763;
},
{
anchors = (
{
name = bottom;
pos = (394,-240);
},
{
name = center;
pos = (399,237);
},
{
name = top;
pos = (394,714);
}
);
layerId = "58AAA307-6DE9-4107-B80A-C255AE991657";
shapes = (
{
closed = 1;
nodes = (
(512,-240,ls),
(613,-240,o),
(678,-187,o),
(678,-8,cs),
(678,596,ls),
(678,653,o),
(701,661,o),
(729,661,cs),
(771,661,l),
(771,714,l),
(510,714,l),
(510,661,l),
(552,661,ls),
(579,661,o),
(603,653,o),
(603,600,cs),
(603,237,l),
(250,714,l),
(28,714,l),
(28,661,l),
(70,661,ls),
(97,661,o),
(121,653,o),
(121,600,cs),
(121,118,ls),
(121,61,o),
(98,53,o),
(70,53,cs),
(28,53,l),
(28,0,l),
(289,0,l),
(289,53,l),
(247,53,ls),
(219,53,o),
(196,61,o),
(196,118,cs),
(196,551,l),
(603,0,l),
(603,-9,ls),
(603,-132,o),
(555,-182,o),
(503,-182,cs),
(479,-182,l),
(479,-240,l)
);
}
);
width = 788;
},
{
anchors = (
{
name = bottom;
pos = (336,-240);
},
{
name = center;
pos = (341,237);
},
{
name = top;
pos = (336,714);
}
);
layerId = "75A83886-EED5-4C31-9670-660514D8A4F6";
shapes = (
{
closed = 1;
nodes = (
(444,-240,ls),
(537,-240,o),
(589,-180,o),
(589,-2,cs),
(589,595,ls),
(589,643,o),
(605,658,o),
(630,658,cs),
(665,658,l),
(665,714,l),
(442,714,l),
(442,658,l),
(478,658,ls),
(500,658,o),
(518,645,o),
(518,599,cs),
(518,228,l),
(227,714,l),
(18,714,l),
(18,658,l),
(53,658,ls),
(74,658,o),
(94,651,o),
(94,599,cs),
(94,119,ls),
(94,63,o),
(75,56,o),
(45,56,cs),
(18,56,l),
(18,0,l),
(241,0,l),
(241,56,l),
(205,56,ls),
(176,56,o),
(165,63,o),
(165,119,cs),
(165,549,l),
(518,1,l),
(518,-9,ls),
(518,-127,o),
(470,-179,o),
(418,-179,cs),
(400,-179,l),
(400,-240,l)
);
}
);
width = 672;
},
{
anchors = (
{
name = bottom;
pos = (280,-240);
},
{
name = center;
pos = (283,237);
},
{
name = top;
pos = (280,714);
}
);
layerId = "C91144B6-58F5-45F2-9CE4-7ED6CE127FD4";
shapes = (
{
closed = 1;
nodes = (
(341,-240,ls),
(423,-240,o),
(457,-186,o),
(457,-12,cs),
(457,606,ls),
(457,683,o),
(463,694,o),
(513,694,cs),
(531,694,l),
(531,714,l),
(348,714,l),
(348,694,l),
(376,694,ls),
(426,694,o),
(432,683,o),
(432,606,cs),
(432,67,l),
(131,714,l),
(36,714,l),
(36,694,l),
(54,694,ls),
(104,694,o),
(110,683,o),
(110,606,cs),
(110,108,ls),
(110,31,o),
(104,20,o),
(54,20,cs),
(36,20,l),
(36,0,l),
(219,0,l),
(219,20,l),
(191,20,ls),
(141,20,o),
(135,31,o),
(135,108,cs),
(135,639,l),
(432,0,l),
(432,-10,ls),
(432,-175,o),
(400,-215,o),
(342,-215,cs),
(338,-215,l),
(338,-240,l)
);
}
);
width = 559;
},
{
anchors = (
{
name = bottom;
pos = (366,-240);
},
{
name = center;
pos = (369,237);
},
{
name = top;
pos = (366,714);
}
);
layerId = "1D4F67F9-897D-45AD-B7F0-CA61A6862C03";
shapes = (
{
closed = 1;
nodes = (
(460,-240,ls),
(538,-240,o),
(592,-187,o),
(592,-8,cs),
(592,606,ls),
(592,683,o),
(597,694,o),
(651,694,cs),
(689,694,l),
(689,714,l),
(470,714,l),
(470,694,l),
(512,694,ls),
(562,694,o),
(567,683,o),
(567,605,cs),
(567,55,l),
(170,714,l),
(50,714,l),
(50,694,l),
(97,694,ls),
(142,694,o),
(149,683,o),
(149,607,cs),
(149,108,ls),
(149,31,o),
(142,20,o),
(95,20,cs),
(50,20,l),
(50,0,l),
(271,0,l),
(271,20,l),
(219,20,ls),
(184,20,o),
(174,31,o),
(174,108,cs),
(174,653,l),
(566,1,l),
(566,-8,ls),
(566,-165,o),
(523,-215,o),
(455,-215,cs),
(444,-215,l),
(444,-240,l)
);
}
);
width = 731;
},
{
anchors = (
{
name = bottom;
pos = (305,-240);
},
{
name = center;
pos = (308,237);
},
{
name = top;
pos = (305,714);
}
);
layerId = "A0CCC833-A561-4F2A-AF73-A35187C9FE5B";
shapes = (
{
closed = 1;
nodes = (
(384,-240,ls),
(473,-240,o),
(514,-184,o),
(514,-8,cs),
(514,601,ls),
(514,662,o),
(538,673,o),
(574,673,cs),
(589,673,l),
(589,714,l),
(389,714,l),
(389,673,l),
(403,673,ls),
(439,673,o),
(463,663,o),
(463,605,cs),
(463,150,l),
(179,714,l),
(28,714,l),
(28,673,l),
(43,673,ls),
(78,673,o),
(103,664,o),
(103,605,cs),
(103,113,ls),
(103,50,o),
(79,41,o),
(40,41,cs),
(28,41,l),
(28,0,l),
(229,0,l),
(229,41,l),
(213,41,ls),
(176,41,o),
(154,50,o),
(154,113,cs),
(154,594,l),
(463,5,l),
(463,-10,ls),
(463,-150,o),
(431,-194,o),
(375,-194,cs),
(365,-194,l),
(365,-240,l)
);
}
);
width = 608;
},
{
anchors = (
{
name = bottom;
pos = (322,-240);
},
{
name = center;
pos = (327,237);
},
{
name = top;
pos = (322,714);
}
);
layerId = "BD18C76C-096B-4C52-83B4-518A374966BE";
shapes = (
{
closed = 1;
nodes = (
(418,-240,ls),
(509,-240,o),
(557,-182,o),
(557,-5,cs),
(557,598,ls),
(557,651,o),
(576,665,o),
(606,665,cs),
(632,665,l),
(632,714,l),
(419,714,l),
(419,665,l),
(446,665,ls),
(473,665,o),
(494,653,o),
(494,602,cs),
(494,194,l),
(206,714,l),
(22,714,l),
(22,665,l),
(49,665,ls),
(76,665,o),
(98,657,o),
(98,602,cs),
(98,116,ls),
(98,57,o),
(77,49,o),
(43,49,cs),
(22,49,l),
(22,0,l),
(236,0,l),
(236,49,l),
(208,49,ls),
(176,49,o),
(160,57,o),
(160,116,cs),
(160,569,l),
(494,3,l),
(494,-9,ls),
(494,-137,o),
(453,-186,o),
(399,-186,cs),
(385,-186,l),
(385,-240,l)
);
}
);
width = 644;
}
);
script = latin;
subCategory = Uppercase;
unicode = 330;
}
{
category = Letter;
glyphname = OE;
kernLeft = O;
kernRight = E;
layers = (
{
anchors = (
{
name = bottom;
pos = (532,0);
},
{
name = center;
pos = (546,357);
},
{
name = top;
pos = (532,714);
}
);
layerId = "E17BEC9D-CAAD-449F-91D9-03766E30097E";
shapes = (
{
closed = 1;
nodes = (
(445,-10,o),
(485,-6,o),
(515,0,c),
(1031,0,l),
(1038,191,l),
(956,191,l),
(948,141,ls),
(941,97,o),
(921,69,o),
(878,69,cs),
(699,69,l),
(699,339,l),
(935,339,l),
(935,407,l),
(699,407,l),
(699,645,l),
(849,645,ls),
(896,645,o),
(911,626,o),
(916,573,cs),
(921,523,l),
(1004,523,l),
(1001,714,l),
(520,714,l),
(489,721,o),
(447,725,o),
(412,725,cs),
(171,725,o),
(54,580,o),
(54,359,cs),
(54,137,o),
(171,-10,o),
(411,-10,cs)
);
},
{
closed = 1;
nodes = (
(304,63,o),
(264,172,o),
(264,358,cs),
(264,544,o),
(304,652,o),
(412,652,cs),
(452,652,o),
(481,638,o),
(500,620,c),
(500,95,l),
(476,75,o),
(450,63,o),
(411,63,cs)
);
}
);
width = 1063;
},
{
anchors = (
{
name = bottom;
pos = (480,0);
},
{
name = center;
pos = (486,357);
},
{
name = top;
pos = (480,714);
}
);
layerId = UUID0;
shapes = (
{
closed = 1;
nodes = (
(402,-10,o),
(447,-6,o),
(474,0,c),
(910,0,l),
(917,175,l),
(865,175,l),
(858,132,ls),
(851,88,o),
(826,50,o),
(763,50,cs),
(570,50,l),
(570,349,l),
(811,349,l),
(811,398,l),
(570,398,l),
(570,664,l),
(738,664,ls),
(798,664,o),
(821,626,o),
(826,582,cs),
(831,539,l),
(883,539,l),
(878,714,l),
(475,714,l),
(448,721,o),
(404,725,o),
(372,725,cs),
(159,725,o),
(56,580,o),
(56,359,cs),
(56,137,o),
(159,-10,o),
(371,-10,cs)
);
},
{
closed = 1;
nodes = (
(223,44,o),
(167,160,o),
(167,358,cs),
(167,556,o),
(223,671,o),
(372,671,cs),
(411,671,o),
(443,665,o),
(469,654,c),
(469,59,l),
(443,50,o),
(410,44,o),
(371,44,cs)
);
}
);
width = 959;
},
{
anchors = (
{
name = bottom;
pos = (510,0);
},
{
name = center;
pos = (521,357);
},
{
name = top;
pos = (510,714);
}
);
layerId = "58AAA307-6DE9-4107-B80A-C255AE991657";
shapes = (
{
closed = 1;
nodes = (
(427,-10,o),
(469,-6,o),
(498,0,c),
(980,0,l),
(987,184,l),
(918,184,l),
(910,137,ls),
(903,93,o),
(886,61,o),
(846,61,cs),
(646,61,l),
(646,343,l),
(883,343,l),
(883,403,l),
(646,403,l),
(646,653,l),
(814,653,ls),
(855,653,o),
(873,626,o),
(878,577,cs),
(883,530,l),
(953,530,l),
(949,714,l),
(501,714,l),
(472,721,o),
(429,725,o),
(395,725,cs),
(166,725,o),
(55,580,o),
(55,359,cs),
(55,137,o),
(166,-10,o),
(394,-10,cs)
);
},
{
closed = 1;
nodes = (
(270,55,o),
(223,167,o),
(223,358,cs),
(223,549,o),
(270,660,o),
(395,660,cs),
(432,660,o),
(465,647,o),
(487,630,c),
(487,84,l),
(462,65,o),
(432,55,o),
(394,55,cs)
);
}
);
width = 1019;
},
{
anchors = (
{
name = bottom;
pos = (444,0);
},
{
name = center;
pos = (455,357);
},
{
name = top;
pos = (444,714);
}
);
layerId = "75A83886-EED5-4C31-9670-660514D8A4F6";
shapes = (
{
closed = 1;
nodes = (
(371,-10,o),
(405,-6,o),
(430,0,c),
(860,0,l),
(866,187,l),
(797,187,l),
(791,139,ls),
(785,94,o),
(768,64,o),
(733,64,cs),
(583,64,l),
(583,342,l),
(780,342,l),
(780,405,l),
(583,405,l),
(583,650,l),
(708,650,ls),
(747,650,o),
(761,626,o),
(764,575,cs),
(768,527,l),
(838,527,l),
(835,714,l),
(434,714,l),
(408,721,o),
(373,725,o),
(344,725,cs),
(142,725,o),
(45,580,o),
(45,359,cs),
(45,137,o),
(142,-10,o),
(343,-10,cs)
);
},
{
closed = 1;
nodes = (
(254,58,o),
(221,169,o),
(221,358,cs),
(221,547,o),
(254,657,o),
(344,657,cs),
(377,657,o),
(401,646,o),
(417,630,c),
(417,85,l),
(397,68,o),
(376,58,o),
(343,58,cs)
);
}
);
width = 887;
},
{
anchors = (
{
name = bottom;
pos = (342,0);
},
{
name = center;
pos = (343,357);
},
{
name = top;
pos = (342,714);
}
);
layerId = "C91144B6-58F5-45F2-9CE4-7ED6CE127FD4";
shapes = (
{
closed = 1;
nodes = (
(293,-10,o),
(319,-7,o),
(342,0,c),
(639,0,l),
(643,164,l),
(623,164,l),
(619,94,ls),
(615,33,o),
(612,25,o),
(547,25,cs),
(368,25,l),
(370,362,l),
(560,362,l),
(560,387,l),
(370,387,l),
(370,689,l),
(520,689,ls),
(588,689,o),
(592,682,o),
(596,600,cs),
(598,550,l),
(618,550,l),
(613,714,l),
(342,714,l),
(320,721,o),
(295,725,o),
(265,725,cs),
(118,725,o),
(44,596,o),
(44,359,cs),
(44,137,o),
(116,-10,o),
(264,-10,cs)
);
},
{
closed = 1;
nodes = (
(137,15,o),
(72,153,o),
(72,358,cs),
(72,574,o),
(131,700,o),
(265,700,cs),
(295,700,o),
(321,695,o),
(342,687,c),
(342,27,l),
(320,20,o),
(295,15,o),
(264,15,cs)
);
}
);
width = 683;
},
{
anchors = (
{
name = bottom;
pos = (442,0);
},
{
name = center;
pos = (443,357);
},
{
name = top;
pos = (442,714);
}
);
layerId = "1D4F67F9-897D-45AD-B7F0-CA61A6862C03";
shapes = (
{
closed = 1;
nodes = (
(374,-7,o),
(412,-4,o),
(444,0,c),
(822,0,l),
(829,163,l),
(809,163,l),
(804,82,ls),
(801,28,o),
(783,25,o),
(736,25,cs),
(474,25,l),
(474,362,l),
(719,362,l),
(719,387,l),
(474,387,l),
(474,689,l),
(703,689,ls),
(756,689,o),
(767,683,o),
(770,627,cs),
(775,551,l),
(795,551,l),
(788,714,l),
(443,714,l),
(412,720,o),
(375,722,o),
(343,722,cs),
(156,722,o),
(58,592,o),
(58,359,cs),
(58,125,o),
(152,-7,o),
(342,-7,cs)
);
},
{
closed = 1;
nodes = (
(171,18,o),
(86,143,o),
(86,358,cs),
(86,573,o),
(171,697,o),
(343,697,cs),
(376,697,o),
(414,695,o),
(447,689,c),
(447,25,ls),
(423,21,o),
(397,18,o),
(342,18,cs)
);
}
);
width = 883;
},
{
anchors = (
{
name = bottom;
pos = (386,0);
},
{
name = center;
pos = (392,357);
},
{
name = top;
pos = (386,714);
}
);
layerId = "A0CCC833-A561-4F2A-AF73-A35187C9FE5B";
shapes = (
{
closed = 1;
nodes = (
(324,-10,o),
(357,-6,o),
(380,0,c),
(735,0,l),
(740,174,l),
(695,174,l),
(690,132,ls),
(684,87,o),
(664,49,o),
(612,49,cs),
(466,49,l),
(466,350,l),
(657,350,l),
(657,398,l),
(466,398,l),
(466,665,l),
(594,665,ls),
(643,665,o),
(661,627,o),
(664,582,cs),
(668,540,l),
(714,540,l),
(709,714,l),
(382,714,l),
(360,721,o),
(326,725,o),
(299,725,cs),
(127,725,o),
(44,580,o),
(44,359,cs),
(44,137,o),
(127,-10,o),
(298,-10,cs)
);
},
{
closed = 1;
nodes = (
(190,43,o),
(144,160,o),
(144,358,cs),
(144,557,o),
(190,672,o),
(299,672,cs),
(331,672,o),
(355,668,o),
(375,659,c),
(375,54,l),
(355,48,o),
(330,43,o),
(298,43,cs)
);
}
);
width = 772;
},
{
anchors = (
{
name = bottom;
pos = (419,0);
},
{
name = center;
pos = (428,357);
},
{
name = top;
pos = (419,714);
}
);
layerId = "BD18C76C-096B-4C52-83B4-518A374966BE";
shapes = (
{
closed = 1;
nodes = (
(350,-10,o),
(384,-6,o),
(408,0,c),
(806,0,l),
(811,181,l),
(753,181,l),
(747,136,ls),
(741,91,o),
(723,57,o),
(681,57,cs),
(532,57,l),
(532,345,l),
(726,345,l),
(726,402,l),
(532,402,l),
(532,657,l),
(658,657,ls),
(702,657,o),
(718,626,o),
(721,578,cs),
(725,533,l),
(784,533,l),
(780,714,l),
(411,714,l),
(387,721,o),
(352,725,o),
(325,725,cs),
(136,725,o),
(45,580,o),
(45,359,cs),
(45,137,o),
(136,-10,o),
(324,-10,cs)
);
},
{
closed = 1;
nodes = (
(226,51,o),
(188,165,o),
(188,358,cs),
(188,551,o),
(226,664,o),
(325,664,cs),
(357,664,o),
(381,656,o),
(399,642,c),
(399,72,l),
(379,59,o),
(356,51,o),
(324,51,cs)
);
}
);
width = 837;
}
);
script = latin;
subCategory = Uppercase;
unicode = 338;
}
{
category = Letter;
glyphname = chook;
layers = (
{
anchors = (
{
name = bottom;
pos = (224,0);
},
{
name = center;
pos = (288,375);
},
{
name = top;
pos = (224,760);
}
);
layerId = "1D4F67F9-897D-45AD-B7F0-CA61A6862C03";
shapes = (
{
closed = 1;
nodes = (
(358,-10,o),
(412,53,o),
(412,86,cs),
(412,98,o),
(410,106,o),
(404,114,c),
(382,60,o),
(343,16,o),
(259,15,cs),
(169,14,o),
(92,103,o),
(92,264,cs),
(92,452,o),
(160,517,o),
(258,517,cs),
(343,517,o),
(379,462,o),
(379,406,c),
(394,407,o),
(404,417,o),
(404,433,cs),
(404,643,ls),
(404,706,o),
(416,733,o),
(454,733,cs),
(478,733,o),
(489,721,o),
(504,706,c),
(509,710,o),
(512,715,o),
(512,722,cs),
(512,741,o),
(489,760,o),
(457,760,cs),
(383,760,o),
(376,705,o),
(376,651,cs),
(376,501,l),
(352,525,o),
(314,542,o),
(262,542,cs),
(148,542,o),
(64,475,o),
(64,263,cs),
(64,78,o),
(151,-10,o),
(259,-10,cs)
);
}
);
width = 448;
},
{
anchors = (
{
name = bottom;
pos = (246,0);
},
{
name = center;
pos = (317,375);
},
{
name = top;
pos = (246,760);
}
);
layerId = UUID0;
shapes = (
{
closed = 1;
nodes = (
(396,-10,o),
(453,40,o),
(453,86,cs),
(453,104,o),
(446,117,o),
(436,125,c),
(413,84,o),
(365,55,o),
(303,55,cs),
(196,55,o),
(152,124,o),
(152,266,cs),
(152,445,o),
(201,496,o),
(278,496,cs),
(345,496,o),
(363,444,o),
(363,381,c),
(422,381,o),
(452,398,o),
(452,444,cs),
(452,612,ls),
(452,667,o),
(479,684,o),
(512,684,cs),
(534,684,o),
(548,679,o),
(564,668,c),
(573,677,o),
(579,689,o),
(579,705,cs),
(579,741,o),
(550,760,o),
(503,760,cs),
(425,760,o),
(399,694,o),
(399,612,cs),
(399,519,l),
(365,537,o),
(320,546,o),
(278,546,cs),
(151,546,o),
(55,479,o),
(55,265,cs),
(55,69,o),
(150,-10,o),
(283,-10,cs)
);
}
);
width = 492;
},
{
anchors = (
{
name = bottom;
pos = (264,0);
},
{
name = center;
pos = (337,375);
},
{
name = top;
pos = (264,760);
}
);
layerId = "58AAA307-6DE9-4107-B80A-C255AE991657";
shapes = (
{
closed = 1;
nodes = (
(430,-10,o),
(489,50,o),
(489,100,cs),
(489,118,o),
(481,136,o),
(465,146,c),
(442,100,o),
(389,65,o),
(320,65,cs),
(236,65,o),
(201,132,o),
(201,267,cs),
(201,438,o),
(238,488,o),
(296,488,cs),
(346,488,o),
(361,428,o),
(361,359,c),
(465,359,o),
(490,401,o),
(490,444,cs),
(490,571,ls),
(490,646,o),
(516,664,o),
(553,664,cs),
(575,664,o),
(593,658,o),
(611,647,c),
(621,657,o),
(628,676,o),
(628,695,cs),
(628,734,o),
(593,760,o),
(540,760,cs),
(457,760,o),
(421,692,o),
(421,619,cs),
(421,527,l),
(389,541,o),
(345,549,o),
(292,549,cs),
(154,549,o),
(47,482,o),
(47,266,cs),
(47,61,o),
(148,-10,o),
(295,-10,cs)
);
}
);
width = 527;
},
{
anchors = (
{
name = bottom;
pos = (277,0);
},
{
name = center;
pos = (352,375);
},
{
name = top;
pos = (277,760);
}
);
layerId = "E17BEC9D-CAAD-449F-91D9-03766E30097E";
shapes = (
{
closed = 1;
nodes = (
(455,-10,o),
(515,57,o),
(515,110,cs),
(515,128,o),
(507,150,o),
(486,161,c),
(463,112,o),
(407,72,o),
(332,72,cs),
(265,72,o),
(237,138,o),
(237,268,cs),
(237,433,o),
(265,482,o),
(309,482,cs),
(347,482,o),
(359,416,o),
(359,343,c),
(497,343,o),
(518,403,o),
(518,444,cs),
(518,541,ls),
(518,631,o),
(546,654,o),
(590,654,cs),
(612,654,o),
(631,646,o),
(646,637,c),
(656,647,o),
(663,668,o),
(663,687,cs),
(663,728,o),
(637,760,o),
(577,760,cs),
(483,760,o),
(437,691,o),
(437,594,cs),
(437,533,l),
(407,544,o),
(363,551,o),
(302,551,cs),
(156,551,o),
(41,484,o),
(41,267,cs),
(41,55,o),
(146,-10,o),
(304,-10,cs)
);
}
);
width = 553;
},
{
anchors = (
{
name = bottom;
pos = (174,0);
},
{
name = center;
pos = (225,375);
},
{
name = top;
pos = (174,760);
}
);
layerId = "C91144B6-58F5-45F2-9CE4-7ED6CE127FD4";
shapes = (
{
closed = 1;
nodes = (
(276,-10,o),
(318,46,o),
(318,83,cs),
(318,98,o),
(315,105,o),
(310,110,c),
(295,65,o),
(262,15,o),
(203,15,cs),
(122,15,o),
(76,86,o),
(76,264,cs),
(76,462,o),
(125,517,o),
(200,517,cs),
(266,517,o),
(290,480,o),
(290,406,c),
(302,406,o),
(315,414,o),
(315,437,cs),
(315,635,ls),
(315,701,o),
(326,733,o),
(357,733,cs),
(377,733,o),
(391,716,o),
(391,686,c),
(397,693,o),
(402,700,o),
(402,715,cs),
(402,744,o),
(381,760,o),
(355,760,cs),
(305,760,o),
(287,714,o),
(287,635,cs),
(287,511,l),
(268,530,o),
(238,542,o),
(200,542,cs),
(108,542,o),
(48,479,o),
(48,263,cs),
(48,55,o),
(114,-10,o),
(203,-10,cs)
);
}
);
width = 347;
},
{
anchors = (
{
name = bottom;
pos = (199,0);
},
{
name = center;
pos = (254,375);
},
{
name = top;
pos = (199,760);
}
);
layerId = "A0CCC833-A561-4F2A-AF73-A35187C9FE5B";
shapes = (
{
closed = 1;
nodes = (
(324,-10,o),
(365,48,o),
(365,90,cs),
(365,108,o),
(361,120,o),
(351,128,c),
(333,85,o),
(294,45,o),
(235,45,cs),
(163,45,o),
(130,123,o),
(130,266,cs),
(130,445,o),
(167,497,o),
(224,497,cs),
(274,497,o),
(287,446,o),
(287,384,c),
(343,384,o),
(366,398,o),
(366,444,cs),
(366,601,ls),
(366,667,o),
(383,686,o),
(413,686,cs),
(431,686,o),
(443,679,o),
(454,670,c),
(461,678,o),
(466,689,o),
(466,705,cs),
(466,742,o),
(443,760,o),
(406,760,cs),
(344,760,o),
(319,696,o),
(319,613,cs),
(319,520,l),
(296,536,o),
(263,546,o),
(223,546,cs),
(121,546,o),
(42,479,o),
(42,265,cs),
(42,70,o),
(118,-10,o),
(227,-10,cs)
);
}
);
width = 397;
},
{
anchors = (
{
name = bottom;
pos = (217,0);
},
{
name = center;
pos = (276,375);
},
{
name = top;
pos = (217,760);
}
);
layerId = "BD18C76C-096B-4C52-83B4-518A374966BE";
shapes = (
{
closed = 1;
nodes = (
(356,-10,o),
(401,52,o),
(401,98,cs),
(401,116,o),
(396,132,o),
(382,142,c),
(363,96,o),
(320,56,o),
(259,56,cs),
(196,56,o),
(168,129,o),
(168,266,cs),
(168,440,o),
(198,491,o),
(243,491,cs),
(282,491,o),
(294,434,o),
(294,366,c),
(384,366,o),
(403,400,o),
(403,444,cs),
(403,575,ls),
(403,652,o),
(424,672,o),
(458,672,cs),
(476,672,o),
(490,665,o),
(502,656,c),
(510,665,o),
(515,680,o),
(515,698,cs),
(515,736,o),
(493,760,o),
(449,760,cs),
(377,760,o),
(345,694,o),
(345,605,cs),
(345,526,l),
(320,539,o),
(286,548,o),
(239,548,cs),
(126,548,o),
(37,481,o),
(37,265,cs),
(37,64,o),
(120,-10,o),
(242,-10,cs)
);
}
);
width = 434;
},
{
anchors = (
{
name = bottom;
pos = (231,0);
},
{
name = center;
pos = (293,375);
},
{
name = top;
pos = (231,760);
}
);
layerId = "75A83886-EED5-4C31-9670-660514D8A4F6";
shapes = (
{
closed = 1;
nodes = (
(380,-10,o),
(429,55,o),
(429,105,cs),
(429,123,o),
(423,142,o),
(405,153,c),
(386,105,o),
(339,65,o),
(277,65,cs),
(221,65,o),
(198,134,o),
(198,267,cs),
(198,436,o),
(221,486,o),
(257,486,cs),
(289,486,o),
(299,424,o),
(299,353,c),
(415,353,o),
(432,402,o),
(432,444,cs),
(432,556,ls),
(432,640,o),
(455,662,o),
(492,662,cs),
(511,662,o),
(526,654,o),
(539,645,c),
(547,655,o),
(553,673,o),
(553,692,cs),
(553,732,o),
(531,760,o),
(481,760,cs),
(403,760,o),
(364,692,o),
(364,599,cs),
(364,530,l),
(339,542,o),
(303,550,o),
(252,550,cs),
(130,550,o),
(34,483,o),
(34,266,cs),
(34,59,o),
(121,-10,o),
(254,-10,cs)
);
}
);
width = 462;
}
);
script = latin;
subCategory = Lowercase;
unicode = 392;
}
{
category = Letter;
glyphname = Ghook;
layers = (
{
anchors = (
{
name = bottom;
pos = (322,0);
},
{
name = center;
pos = (365,412);
},
{
name = top;
pos = (322,714);
}
);
layerId = "1D4F67F9-897D-45AD-B7F0-CA61A6862C03";
shapes = (
{
closed = 1;
nodes = (
(453,-10,o),
(509,1,o),
(562,26,c),
(562,236,ls),
(562,301,o),
(570,302,o),
(597,302,cs),
(637,302,l),
(637,322,l),
(445,322,l),
(445,302,l),
(489,302,ls),
(525,302,o),
(534,299,o),
(534,240,cs),
(534,41,l),
(499,24,o),
(439,15,o),
(383,15,cs),
(175,15,o),
(87,150,o),
(87,358,cs),
(87,602,o),
(194,699,o),
(375,699,cs),
(507,699,o),
(541,654,o),
(541,566,c),
(553,566,o),
(564,579,o),
(564,608,cs),
(564,724,ls),
(564,787,o),
(576,809,o),
(617,809,cs),
(638,809,o),
(649,799,o),
(664,786,c),
(668,790,o),
(672,797,o),
(672,804,cs),
(672,823,o),
(643,834,o),
(619,834,cs),
(543,834,o),
(536,783,o),
(536,729,cs),
(536,674,l),
(508,703,o),
(459,724,o),
(379,724,cs),
(193,724,o),
(59,632,o),
(59,358,cs),
(59,137,o),
(161,-10,o),
(373,-10,cs)
);
}
);
width = 644;
},
{
anchors = (
{
name = bottom;
pos = (357,0);
},
{
name = center;
pos = (404,424);
},
{
name = top;
pos = (357,714);
}
);
layerId = UUID0;
shapes = (
{
closed = 1;
nodes = (
(487,-10,o),
(555,5,o),
(622,36,c),
(622,216,ls),
(622,279,o),
(653,288,o),
(691,288,cs),
(695,288,l),
(695,330,l),
(435,330,l),
(435,288,l),
(439,288,ls),
(483,288,o),
(521,279,o),
(521,220,cs),
(521,59,l),
(493,51,o),
(455,47,o),
(417,47,cs),
(235,47,o),
(168,158,o),
(168,358,cs),
(168,558,o),
(233,671,o),
(403,671,cs),
(501,671,o),
(535,604,o),
(535,542,c),
(587,542,o),
(628,569,o),
(628,612,cs),
(628,710,ls),
(628,765,o),
(652,782,o),
(685,782,cs),
(707,782,o),
(721,777,o),
(737,766,c),
(746,775,o),
(752,787,o),
(752,803,cs),
(752,839,o),
(723,858,o),
(676,858,cs),
(603,858,o),
(572,791,o),
(572,710,cs),
(572,692,l),
(535,712,o),
(480,724,o),
(407,724,cs),
(177,724,o),
(57,574,o),
(57,358,cs),
(57,137,o),
(169,-10,o),
(401,-10,cs)
);
}
);
width = 714;
},
{
anchors = (
{
name = bottom;
pos = (385,0);
},
{
name = center;
pos = (435,432);
},
{
name = top;
pos = (385,714);
}
);
layerId = "58AAA307-6DE9-4107-B80A-C255AE991657";
shapes = (
{
closed = 1;
nodes = (
(514,-10,o),
(591,8,o),
(669,44,c),
(669,208,ls),
(669,265,o),
(687,283,o),
(728,283,cs),
(741,283,l),
(741,336,l),
(427,336,l),
(427,283,l),
(440,283,ls),
(487,283,o),
(511,265,o),
(511,212,cs),
(511,65,l),
(488,60,o),
(463,58,o),
(438,58,cs),
(281,58,o),
(223,165,o),
(223,358,cs),
(223,551,o),
(279,660,o),
(425,660,cs),
(510,660,o),
(549,604,o),
(549,523,c),
(633,523,o),
(678,561,o),
(678,608,cs),
(678,686,ls),
(678,761,o),
(704,779,o),
(741,779,cs),
(763,779,o),
(781,773,o),
(799,762,c),
(809,772,o),
(816,791,o),
(816,810,cs),
(816,849,o),
(781,875,o),
(728,875,cs),
(645,875,o),
(607,807,o),
(607,734,cs),
(607,694,l),
(565,713,o),
(505,724,o),
(428,724,cs),
(183,724,o),
(55,574,o),
(55,358,cs),
(55,137,o),
(175,-10,o),
(423,-10,cs)
);
}
);
width = 769;
},
{
anchors = (
{
name = bottom;
pos = (405,0);
},
{
name = center;
pos = (458,439);
},
{
name = top;
pos = (405,714);
}
);
layerId = "E17BEC9D-CAAD-449F-91D9-03766E30097E";
shapes = (
{
closed = 1;
nodes = (
(534,-10,o),
(618,10,o),
(704,50,c),
(704,202,ls),
(704,255,o),
(713,279,o),
(756,279,cs),
(765,279,l),
(765,340,l),
(422,340,l),
(422,279,l),
(441,279,ls),
(490,279,o),
(504,255,o),
(504,206,cs),
(504,69,l),
(485,67,o),
(469,66,o),
(454,66,cs),
(315,66,o),
(264,170,o),
(264,358,cs),
(264,546,o),
(313,652,o),
(442,652,cs),
(519,652,o),
(560,604,o),
(560,509,c),
(695,509,o),
(715,570,o),
(715,640,cs),
(715,672,ls),
(715,752,o),
(739,777,o),
(783,777,cs),
(805,777,o),
(825,770,o),
(844,759,c),
(855,770,o),
(862,792,o),
(862,813,cs),
(862,856,o),
(824,888,o),
(767,888,cs),
(676,888,o),
(632,825,o),
(632,742,cs),
(632,695,l),
(588,713,o),
(530,724,o),
(444,724,cs),
(188,724,o),
(54,574,o),
(54,358,cs),
(54,137,o),
(180,-10,o),
(440,-10,cs)
);
}
);
width = 810;
},
{
anchors = (
{
name = bottom;
pos = (250,0);
},
{
name = center;
pos = (284,413);
},
{
name = top;
pos = (250,714);
}
);
layerId = "C91144B6-58F5-45F2-9CE4-7ED6CE127FD4";
shapes = (
{
closed = 1;
nodes = (
(350,-10,o),
(393,1,o),
(436,27,c),
(436,225,ls),
(436,295,o),
(444,303,o),
(489,303,cs),
(493,303,l),
(493,323,l),
(335,323,l),
(335,303,l),
(346,303,ls),
(400,303,o),
(408,295,o),
(408,226,cs),
(408,40,l),
(383,23,o),
(339,15,o),
(288,15,cs),
(133,15,o),
(72,137,o),
(72,358,cs),
(72,582,o),
(149,699,o),
(293,699,cs),
(387,699,o),
(417,639,o),
(417,565,c),
(430,565,o),
(438,578,o),
(438,611,cs),
(438,711,ls),
(438,784,o),
(454,809,o),
(480,809,cs),
(500,809,o),
(513,792,o),
(513,766,c),
(519,772,o),
(525,781,o),
(525,793,cs),
(525,820,o),
(504,836,o),
(478,836,cs),
(429,836,o),
(410,789,o),
(410,711,cs),
(410,679,l),
(387,705,o),
(348,724,o),
(293,724,cs),
(137,724,o),
(44,608,o),
(44,358,cs),
(44,121,o),
(120,-10,o),
(288,-10,cs)
);
}
);
width = 499;
},
{
anchors = (
{
name = bottom;
pos = (288,0);
},
{
name = center;
pos = (326,422);
},
{
name = top;
pos = (288,714);
}
);
layerId = "A0CCC833-A561-4F2A-AF73-A35187C9FE5B";
shapes = (
{
closed = 1;
nodes = (
(391,-10,o),
(447,5,o),
(502,35,c),
(502,217,ls),
(502,281,o),
(518,288,o),
(549,288,cs),
(556,288,l),
(556,329,l),
(343,329,l),
(343,288,l),
(352,288,ls),
(388,288,o),
(410,281,o),
(410,221,cs),
(410,56,l),
(389,47,o),
(361,43,o),
(334,43,cs),
(196,43,o),
(145,155,o),
(145,358,cs),
(145,569,o),
(200,672,o),
(323,672,cs),
(401,672,o),
(432,604,o),
(432,544,c),
(488,544,o),
(507,573,o),
(507,620,cs),
(507,697,ls),
(507,761,o),
(523,780,o),
(553,780,cs),
(571,780,o),
(583,773,o),
(595,764,c),
(603,771,o),
(608,783,o),
(608,800,cs),
(608,837,o),
(583,855,o),
(546,855,cs),
(484,855,o),
(461,792,o),
(461,712,cs),
(461,687,l),
(430,709,o),
(386,724,o),
(326,724,cs),
(141,724,o),
(44,574,o),
(44,358,cs),
(44,137,o),
(135,-10,o),
(322,-10,cs)
);
}
);
width = 576;
},
{
anchors = (
{
name = bottom;
pos = (316,0);
},
{
name = center;
pos = (358,429);
},
{
name = top;
pos = (316,714);
}
);
layerId = "BD18C76C-096B-4C52-83B4-518A374966BE";
shapes = (
{
closed = 1;
nodes = (
(422,-10,o),
(486,7,o),
(550,41,c),
(550,211,ls),
(550,270,o),
(561,284,o),
(595,284,cs),
(602,284,l),
(602,334,l),
(348,334,l),
(348,284,l),
(361,284,ls),
(399,284,o),
(416,270,o),
(416,215,cs),
(416,62,l),
(397,56,o),
(377,53,o),
(360,53,cs),
(234,53,o),
(187,161,o),
(187,358,cs),
(187,559,o),
(235,664,o),
(349,664,cs),
(419,664,o),
(452,604,o),
(452,529,c),
(540,529,o),
(557,572,o),
(557,629,cs),
(557,686,ls),
(557,757,o),
(576,779,o),
(610,779,cs),
(628,779,o),
(642,772,o),
(657,762,c),
(665,771,o),
(671,787,o),
(671,806,cs),
(671,845,o),
(642,869,o),
(599,869,cs),
(529,869,o),
(498,806,o),
(498,724,cs),
(498,690,l),
(464,711,o),
(418,724,o),
(351,724,cs),
(150,724,o),
(45,574,o),
(45,358,cs),
(45,137,o),
(143,-10,o),
(348,-10,cs)
);
}
);
width = 632;
},
{
anchors = (
{
name = bottom;
pos = (338,0);
},
{
name = center;
pos = (382,435);
},
{
name = top;
pos = (338,714);
}
);
layerId = "75A83886-EED5-4C31-9670-660514D8A4F6";
shapes = (
{
closed = 1;
nodes = (
(445,-10,o),
(516,9,o),
(587,46,c),
(587,206,ls),
(587,262,o),
(594,281,o),
(630,281,cs),
(638,281,l),
(638,337,l),
(352,337,l),
(352,281,l),
(367,281,ls),
(408,281,o),
(420,262,o),
(420,210,cs),
(420,66,l),
(404,62,o),
(390,60,o),
(379,60,cs),
(263,60,o),
(220,166,o),
(220,358,cs),
(220,552,o),
(261,657,o),
(368,657,cs),
(432,657,o),
(467,604,o),
(467,518,c),
(580,518,o),
(596,571,o),
(596,635,cs),
(596,678,ls),
(596,754,o),
(617,778,o),
(653,778,cs),
(671,778,o),
(688,771,o),
(704,760,c),
(713,770,o),
(719,790,o),
(719,810,cs),
(719,851,o),
(687,880,o),
(640,880,cs),
(564,880,o),
(527,817,o),
(527,734,cs),
(527,693,l),
(490,712,o),
(442,724,o),
(370,724,cs),
(156,724,o),
(45,574,o),
(45,358,cs),
(45,137,o),
(150,-10,o),
(367,-10,cs)
);
}
);
width = 675;
}
);
script = latin;
subCategory = Uppercase;
unicode = 403;
}
{
category = Letter;
glyphname = "Iota-latin";
layers = (
{
anchors = (
{
name = bottom;
pos = (163,0);
},
{
name = center;
pos = (161,352);
},
{
name = top;
pos = (163,714);
}
);
layerId = "1D4F67F9-897D-45AD-B7F0-CA61A6862C03";
shapes = (
{
closed = 1;
nodes = (
(243,-10,o),
(256,-8,o),
(273,-5,c),
(273,21,l),
(260,18,o),
(246,15,o),
(226,15,cs),
(174,15,o),
(177,40,o),
(177,94,cs),
(177,605,ls),
(177,683,o),
(181,694,o),
(235,694,cs),
(273,694,l),
(273,714,l),
(50,714,l),
(50,694,l),
(94,694,ls),
(142,694,o),
(149,683,o),
(149,605,cs),
(149,79,ls),
(149,25,o),
(153,-10,o),
(219,-10,cs)
);
}
);
width = 325;
},
{
anchors = (
{
name = bottom;
pos = (184,0);
},
{
name = center;
pos = (183,352);
},
{
name = top;
pos = (184,714);
}
);
layerId = UUID0;
shapes = (
{
closed = 1;
nodes = (
(289,-10,o),
(318,-2,o),
(329,5,c),
(329,52,l),
(318,48,o),
(308,46,o),
(296,46,cs),
(254,46,o),
(234,74,o),
(234,130,cs),
(234,600,ls),
(234,663,o),
(271,672,o),
(316,672,cs),
(329,672,l),
(329,714,l),
(38,714,l),
(38,672,l),
(51,672,ls),
(96,672,o),
(133,663,o),
(133,600,cs),
(133,133,l),
(133,33,o),
(173,-10,o),
(267,-10,cs)
);
}
);
width = 367;
},
{
anchors = (
{
name = bottom;
pos = (201,0);
},
{
name = center;
pos = (200,352);
},
{
name = top;
pos = (201,714);
}
);
layerId = "58AAA307-6DE9-4107-B80A-C255AE991657";
shapes = (
{
closed = 1;
nodes = (
(323,-10,o),
(361,-1,o),
(373,6,c),
(373,64,l),
(361,59,o),
(349,57,o),
(335,57,cs),
(297,57,o),
(280,82,o),
(280,134,cs),
(280,596,ls),
(280,653,o),
(302,661,o),
(331,661,cs),
(373,661,l),
(373,714,l),
(28,714,l),
(28,661,l),
(70,661,ls),
(99,661,o),
(121,653,o),
(121,596,cs),
(121,175,ls),
(121,39,o),
(174,-10,o),
(281,-10,cs)
);
}
);
width = 401;
},
{
anchors = (
{
name = bottom;
pos = (213,0);
},
{
name = center;
pos = (205,352);
},
{
name = top;
pos = (213,714);
}
);
layerId = "E17BEC9D-CAAD-449F-91D9-03766E30097E";
shapes = (
{
closed = 1;
nodes = (
(339,-10,o),
(379,1,o),
(397,7,c),
(397,73,l),
(384,69,o),
(371,67,o),
(355,67,cs),
(320,67,o),
(305,90,o),
(305,139,cs),
(305,593,ls),
(305,646,o),
(331,653,o),
(353,653,cs),
(397,653,l),
(397,714,l),
(14,714,l),
(14,653,l),
(61,653,ls),
(84,653,o),
(105,646,o),
(105,593,cs),
(105,196,ls),
(105,43,o),
(163,-10,o),
(280,-10,cs)
);
}
);
width = 426;
},
{
anchors = (
{
name = bottom;
pos = (126,0);
},
{
name = center;
pos = (126,352);
},
{
name = top;
pos = (126,714);
}
);
layerId = "C91144B6-58F5-45F2-9CE4-7ED6CE127FD4";
shapes = (
{
closed = 1;
nodes = (
(195,-10,o),
(207,-6,o),
(217,-2,c),
(217,21,l),
(207,18,o),
(196,15,o),
(184,15,cs),
(146,15,o),
(140,43,o),
(140,100,cs),
(140,606,ls),
(140,683,o),
(146,694,o),
(196,694,cs),
(216,694,l),
(216,714,l),
(36,714,l),
(36,694,l),
(56,694,ls),
(106,694,o),
(112,683,o),
(112,606,cs),
(112,86,ls),
(112,26,o),
(124,-10,o),
(179,-10,cs)
);
}
);
width = 252;
},
{
anchors = (
{
name = bottom;
pos = (149,0);
},
{
name = center;
pos = (146,352);
},
{
name = top;
pos = (149,714);
}
);
layerId = "A0CCC833-A561-4F2A-AF73-A35187C9FE5B";
shapes = (
{
closed = 1;
nodes = (
(233,-10,o),
(255,-4,o),
(267,2,c),
(267,44,l),
(257,41,o),
(247,38,o),
(235,38,cs),
(201,38,o),
(192,64,o),
(192,118,cs),
(192,601,ls),
(192,664,o),
(218,673,o),
(252,673,cs),
(267,673,l),
(267,714,l),
(26,714,l),
(26,673,l),
(42,673,ls),
(76,673,o),
(101,664,o),
(101,601,cs),
(101,126,ls),
(101,32,o),
(129,-10,o),
(203,-10,cs)
);
}
);
width = 298;
},
{
anchors = (
{
name = bottom;
pos = (165,0);
},
{
name = center;
pos = (160,352);
},
{
name = top;
pos = (165,714);
}
);
layerId = "BD18C76C-096B-4C52-83B4-518A374966BE";
shapes = (
{
closed = 1;
nodes = (
(261,-10,o),
(289,-2,o),
(303,4,c),
(303,56,l),
(293,53,o),
(283,50,o),
(270,50,cs),
(238,50,o),
(228,75,o),
(228,127,cs),
(228,598,ls),
(228,657,o),
(251,665,o),
(276,665,cs),
(303,665,l),
(303,714,l),
(18,714,l),
(18,665,l),
(47,665,ls),
(73,665,o),
(94,657,o),
(94,598,cs),
(94,155,ls),
(94,37,o),
(133,-10,o),
(221,-10,cs)
);
}
);
width = 331;
},
{
anchors = (
{
name = bottom;
pos = (178,0);
},
{
name = center;
pos = (171,352);
},
{
name = top;
pos = (178,714);
}
);
layerId = "75A83886-EED5-4C31-9670-660514D8A4F6";
shapes = (
{
closed = 1;
nodes = (
(283,-10,o),
(316,0,o),
(331,6,c),
(331,66,l),
(321,62,o),
(310,60,o),
(297,60,cs),
(267,60,o),
(255,83,o),
(255,134,cs),
(255,595,ls),
(255,651,o),
(277,658,o),
(295,658,cs),
(331,658,l),
(331,714,l),
(12,714,l),
(12,658,l),
(51,658,ls),
(70,658,o),
(88,651,o),
(88,595,cs),
(88,178,ls),
(88,40,o),
(136,-10,o),
(234,-10,cs)
);
}
);
width = 356;
}
);
script = latin;
subCategory = Uppercase;
unicode = 406;
}
{
category = Letter;
glyphname = Istroke;
layers = (
{
anchors = (
{
name = bottom;
pos = (163,0);
},
{
name = center;
pos = (161,357);
},
{
name = top;
pos = (163,714);
}
);
layerId = "1D4F67F9-897D-45AD-B7F0-CA61A6862C03";
shapes = (
{
closed = 1;
nodes = (
(273,0,l),
(273,20,l),
(235,20,ls),
(182,20,o),
(177,31,o),
(177,108,cs),
(177,361,l),
(269,361,l),
(269,386,l),
(177,386,l),
(177,605,ls),
(177,683,o),
(181,694,o),
(236,694,cs),
(273,694,l),
(273,714,l),
(50,714,l),
(50,694,l),
(95,694,ls),
(142,694,o),
(149,683,o),
(149,605,cs),
(149,386,l),
(56,386,l),
(56,361,l),
(149,361,l),
(149,108,ls),
(149,31,o),
(144,20,o),
(92,20,cs),
(50,20,l),
(50,0,l)
);
}
);
width = 325;
},
{
anchors = (
{
name = bottom;
pos = (184,0);
},
{
name = center;
pos = (183,357);
},
{
name = top;
pos = (184,714);
}
);
layerId = UUID0;
shapes = (
{
closed = 1;
nodes = (
(329,0,l),
(329,42,l),
(316,42,ls),
(271,42,o),
(234,51,o),
(234,114,cs),
(234,349,l),
(347,349,l),
(347,398,l),
(234,398,l),
(234,600,ls),
(234,663,o),
(271,672,o),
(316,672,cs),
(329,672,l),
(329,714,l),
(38,714,l),
(38,672,l),
(51,672,ls),
(96,672,o),
(133,663,o),
(133,600,cs),
(133,398,l),
(20,398,l),
(20,349,l),
(133,349,l),
(133,114,ls),
(133,51,o),
(96,42,o),
(51,42,cs),
(38,42,l),
(38,0,l)
);
}
);
width = 367;
},
{
anchors = (
{
name = bottom;
pos = (201,0);
},
{
name = center;
pos = (200,357);
},
{
name = top;
pos = (201,714);
}
);
layerId = "58AAA307-6DE9-4107-B80A-C255AE991657";
shapes = (
{
closed = 1;
nodes = (
(373,0,l),
(373,53,l),
(331,53,ls),
(302,53,o),
(280,61,o),
(280,118,cs),
(280,342,l),
(386,342,l),
(386,403,l),
(280,403,l),
(280,596,ls),
(280,653,o),
(302,661,o),
(331,661,cs),
(373,661,l),
(373,714,l),
(28,714,l),
(28,661,l),
(70,661,ls),
(99,661,o),
(121,653,o),
(121,596,cs),
(121,403,l),
(15,403,l),
(15,342,l),
(121,342,l),
(121,118,ls),
(121,61,o),
(99,53,o),
(70,53,cs),
(28,53,l),
(28,0,l)
);
}
);
width = 401;
},
{
anchors = (
{
name = bottom;
pos = (213,0);
},
{
name = center;
pos = (212,357);
},
{
name = top;
pos = (213,714);
}
);
layerId = "E17BEC9D-CAAD-449F-91D9-03766E30097E";
shapes = (
{
closed = 1;
nodes = (
(406,0,l),
(406,61,l),
(351,61,ls),
(331,61,o),
(313,81,o),
(313,110,cs),
(313,337,l),
(414,337,l),
(414,407,l),
(313,407,l),
(313,599,ls),
(313,636,o),
(327,653,o),
(351,653,cs),
(406,653,l),
(406,714,l),
(21,714,l),
(21,653,l),
(74,653,ls),
(92,653,o),
(113,636,o),
(113,600,cs),
(113,407,l),
(11,407,l),
(11,337,l),
(113,337,l),
(113,108,ls),
(113,78,o),
(92,61,o),
(74,61,cs),
(21,61,l),
(21,0,l)
);
}
);
width = 426;
},
{
anchors = (
{
name = bottom;
pos = (127,0);
},
{
name = center;
pos = (126,357);
},
{
name = top;
pos = (127,714);
}
);
layerId = "C91144B6-58F5-45F2-9CE4-7ED6CE127FD4";
shapes = (
{
closed = 1;
nodes = (
(216,0,l),
(216,20,l),
(196,20,ls),
(146,20,o),
(140,31,o),
(140,108,cs),
(140,362,l),
(243,362,l),
(243,387,l),
(140,387,l),
(140,606,ls),
(140,683,o),
(146,694,o),
(196,694,cs),
(216,694,l),
(216,714,l),
(36,714,l),
(36,694,l),
(56,694,ls),
(106,694,o),
(112,683,o),
(112,606,cs),
(112,387,l),
(10,387,l),
(10,362,l),
(112,362,l),
(112,108,ls),
(112,31,o),
(106,20,o),
(56,20,cs),
(36,20,l),
(36,0,l)
);
}
);
width = 253;
},
{
anchors = (
{
name = bottom;
pos = (149,0);
},
{
name = center;
pos = (148,357);
},
{
name = top;
pos = (149,714);
}
);
layerId = "A0CCC833-A561-4F2A-AF73-A35187C9FE5B";
shapes = (
{
closed = 1;
nodes = (
(270,0,l),
(270,41,l),
(251,41,ls),
(218,41,o),
(195,53,o),
(195,111,cs),
(195,349,l),
(288,349,l),
(288,398,l),
(195,398,l),
(195,602,ls),
(195,662,o),
(217,673,o),
(251,673,cs),
(270,673,l),
(270,714,l),
(28,714,l),
(28,673,l),
(47,673,ls),
(78,673,o),
(103,662,o),
(103,602,cs),
(103,398,l),
(9,398,l),
(9,349,l),
(103,349,l),
(103,110,ls),
(103,52,o),
(78,41,o),
(47,41,cs),
(28,41,l),
(28,0,l)
);
}
);
width = 297;
},
{
anchors = (
{
name = bottom;
pos = (165,0);
},
{
name = center;
pos = (165,357);
},
{
name = top;
pos = (165,714);
}
);
layerId = "BD18C76C-096B-4C52-83B4-518A374966BE";
shapes = (
{
closed = 1;
nodes = (
(309,0,l),
(309,49,l),
(275,49,ls),
(251,49,o),
(232,65,o),
(232,110,cs),
(232,342,l),
(320,342,l),
(320,403,l),
(232,403,l),
(232,601,ls),
(232,651,o),
(249,665,o),
(275,665,cs),
(309,665,l),
(309,714,l),
(22,714,l),
(22,665,l),
(55,665,ls),
(77,665,o),
(98,651,o),
(98,602,cs),
(98,403,l),
(10,403,l),
(10,342,l),
(98,342,l),
(98,110,ls),
(98,63,o),
(77,49,o),
(55,49,cs),
(22,49,l),
(22,0,l)
);
}
);
width = 330;
},
{
anchors = (
{
name = bottom;
pos = (178,0);
},
{
name = center;
pos = (177,357);
},
{
name = top;
pos = (178,714);
}
);
layerId = "75A83886-EED5-4C31-9670-660514D8A4F6";
shapes = (
{
closed = 1;
nodes = (
(339,0,l),
(339,56,l),
(293,56,ls),
(277,56,o),
(261,74,o),
(261,110,cs),
(261,337,l),
(344,337,l),
(344,407,l),
(261,407,l),
(261,600,ls),
(261,643,o),
(273,658,o),
(293,658,cs),
(339,658,l),
(339,714,l),
(18,714,l),
(18,658,l),
(62,658,ls),
(76,658,o),
(94,643,o),
(94,601,cs),
(94,407,l),
(11,407,l),
(11,337,l),
(94,337,l),
(94,109,ls),
(94,71,o),
(76,56,o),
(62,56,cs),
(18,56,l),
(18,0,l)
);
}
);
width = 355;
}
);
script = latin;
subCategory = Uppercase;
unicode = 407;
}
{
category = Letter;
glyphname = Khook;
layers = (
{
anchors = (
{
name = bottom;
pos = (329,0);
},
{
name = center;
pos = (368,360);
},
{
name = top;
pos = (329,714);
}
);
layerId = "1D4F67F9-897D-45AD-B7F0-CA61A6862C03";
shapes = (
{
closed = 1;
nodes = (
(278,0,l),
(278,20,l),
(234,20,ls),
(182,20,o),
(177,31,o),
(177,108,cs),
(177,222,l),
(308,383,l),
(545,104,ls),
(618,16,o),
(637,0,o),
(680,0,cs),
(686,0,l),
(686,25,l),
(684,25,ls),
(658,25,o),
(636,39,o),
(580,106,cs),
(327,406,l),
(484,607,ls),
(533,669,o),
(555,691,o),
(584,691,cs),
(600,691,o),
(618,683,o),
(624,648,c),
(635,648,o),
(645,658,o),
(645,672,cs),
(645,697,o),
(628,721,o),
(585,721,cs),
(537,721,o),
(517,695,o),
(479,647,cs),
(177,260,l),
(177,605,ls),
(177,683,o),
(182,694,o),
(236,694,cs),
(276,694,l),
(276,714,l),
(50,714,l),
(50,694,l),
(92,694,ls),
(144,694,o),
(149,683,o),
(149,605,cs),
(149,108,ls),
(149,31,o),
(143,20,o),
(91,20,cs),
(50,20,l),
(50,0,l)
);
}
);
width = 658;
},
{
anchors = (
{
name = bottom;
pos = (350,0);
},
{
name = center;
pos = (375,360);
},
{
name = top;
pos = (350,714);
}
);
layerId = UUID0;
shapes = (
{
closed = 1;
nodes = (
(329,0,l),
(329,42,l),
(316,42,ls),
(271,42,o),
(234,51,o),
(234,114,cs),
(234,283,l),
(311,350,l),
(491,90,ls),
(541,18,o),
(567,0,o),
(701,0,cs),
(712,0,l),
(712,42,l),
(710,42,ls),
(673,42,o),
(638,70,o),
(600,122,cs),
(381,429,l),
(531,599,l),
(554,625,o),
(572,640,o),
(595,640,cs),
(626,640,o),
(640,617,o),
(646,588,c),
(669,588,o),
(692,614,o),
(692,652,cs),
(692,693,o),
(666,721,o),
(625,721,cs),
(573,721,o),
(540,703,o),
(446,589,cs),
(234,333,l),
(234,600,ls),
(234,663,o),
(271,672,o),
(316,672,cs),
(329,672,l),
(329,714,l),
(38,714,l),
(38,672,l),
(51,672,ls),
(95,672,o),
(133,663,o),
(133,604,cs),
(133,109,ls),
(133,50,o),
(95,42,o),
(51,42,cs),
(38,42,l),
(38,0,l)
);
}
);
width = 700;
},
{
anchors = (
{
name = bottom;
pos = (367,0);
},
{
name = center;
pos = (381,360);
},
{
name = top;
pos = (367,714);
}
);
layerId = "58AAA307-6DE9-4107-B80A-C255AE991657";
shapes = (
{
closed = 1;
nodes = (
(373,0,l),
(373,53,l),
(331,53,ls),
(302,53,o),
(279,61,o),
(279,118,cs),
(279,287,l),
(323,322,l),
(458,92,ls),
(495,29,o),
(527,0,o),
(680,0,cs),
(734,0,l),
(734,53,l),
(730,53,ls),
(686,53,o),
(656,72,o),
(616,134,c),
(427,434,l),
(550,581,ls),
(575,611,o),
(597,628,o),
(623,628,cs),
(659,628,o),
(675,601,o),
(682,568,c),
(708,568,o),
(735,598,o),
(735,642,cs),
(735,690,o),
(705,721,o),
(644,721,cs),
(590,721,o),
(560,701,o),
(512,645,cs),
(279,363,l),
(279,596,ls),
(279,653,o),
(302,661,o),
(331,661,cs),
(373,661,l),
(373,714,l),
(28,714,l),
(28,661,l),
(70,661,ls),
(98,661,o),
(121,653,o),
(121,600,cs),
(121,113,ls),
(121,60,o),
(98,53,o),
(70,53,cs),
(28,53,l),
(28,0,l)
);
}
);
width = 734;
},
{
anchors = (
{
name = bottom;
pos = (380,0);
},
{
name = center;
pos = (401,360);
},
{
name = top;
pos = (380,714);
}
);
layerId = "E17BEC9D-CAAD-449F-91D9-03766E30097E";
shapes = (
{
closed = 1;
nodes = (
(386,0,l),
(386,61,l),
(362,61,ls),
(335,61,o),
(313,78,o),
(313,109,cs),
(313,291,l),
(335,305,l),
(441,131,ls),
(503,30,o),
(541,0,o),
(685,0,cs),
(781,0,l),
(781,61,l),
(775,61,ls),
(729,61,o),
(709,81,o),
(662,149,cs),
(462,443,l),
(558,557,ls),
(595,601,o),
(619,612,o),
(647,612,cs),
(687,612,o),
(698,585,o),
(706,549,c),
(735,549,o),
(778,574,o),
(778,629,cs),
(778,680,o),
(748,721,o),
(672,721,cs),
(607,721,o),
(568,689,o),
(517,625,cs),
(313,371,l),
(313,605,ls),
(313,636,o),
(328,653,o),
(352,653,cs),
(386,653,l),
(386,714,l),
(21,714,l),
(21,653,l),
(70,653,ls),
(95,653,o),
(113,636,o),
(113,606,cs),
(113,111,ls),
(113,77,o),
(91,61,o),
(64,61,cs),
(21,61,l),
(21,0,l)
);
}
);
width = 759;
},
{
anchors = (
{
name = bottom;
pos = (253,0);
},
{
name = center;
pos = (278,360);
},
{
name = top;
pos = (253,714);
}
);
layerId = "C91144B6-58F5-45F2-9CE4-7ED6CE127FD4";
shapes = (
{
closed = 1;
nodes = (
(219,0,l),
(219,20,l),
(194,20,ls),
(143,20,o),
(138,31,o),
(138,112,cs),
(138,249,l),
(232,393,l),
(410,89,ls),
(456,11,o),
(471,0,o),
(514,0,cs),
(520,0,l),
(520,20,l),
(515,20,ls),
(486,20,o),
(474,37,o),
(433,106,cs),
(250,418,l),
(373,606,ls),
(412,666,o),
(436,695,o),
(463,695,cs),
(481,695,o),
(491,683,o),
(491,642,c),
(499,645,o),
(509,654,o),
(509,674,cs),
(509,701,o),
(493,720,o),
(464,720,cs),
(413,720,o),
(388,673,o),
(342,604,cs),
(138,293,l),
(138,607,ls),
(138,683,o),
(144,694,o),
(194,694,cs),
(219,694,l),
(219,714,l),
(36,714,l),
(36,694,l),
(54,694,ls),
(104,694,o),
(110,683,o),
(110,607,cs),
(110,108,ls),
(110,31,o),
(104,20,o),
(54,20,cs),
(36,20,l),
(36,0,l)
);
}
);
width = 506;
},
{
anchors = (
{
name = bottom;
pos = (281,0);
},
{
name = center;
pos = (302,360);
},
{
name = top;
pos = (281,714);
}
);
layerId = "A0CCC833-A561-4F2A-AF73-A35187C9FE5B";
shapes = (
{
closed = 1;
nodes = (
(264,0,l),
(264,41,l),
(255,41,ls),
(219,41,o),
(196,52,o),
(196,110,cs),
(196,274,l),
(254,354,l),
(392,99,ls),
(435,17,o),
(460,0,o),
(546,0,cs),
(577,0,l),
(577,41,l),
(574,41,ls),
(545,41,o),
(521,68,o),
(489,122,cs),
(312,425,l),
(421,598,l),
(443,628,o),
(458,640,o),
(477,640,cs),
(503,640,o),
(513,622,o),
(518,594,c),
(538,594,o),
(561,615,o),
(561,651,cs),
(561,691,o),
(541,721,o),
(499,721,cs),
(448,721,o),
(425,679,o),
(369,594,cs),
(196,326,l),
(196,604,ls),
(196,662,o),
(217,673,o),
(252,673,cs),
(264,673,l),
(264,714,l),
(28,714,l),
(28,673,l),
(45,673,ls),
(79,673,o),
(103,662,o),
(103,607,cs),
(103,107,ls),
(103,51,o),
(78,41,o),
(44,41,cs),
(28,41,l),
(28,0,l)
);
}
);
width = 561;
},
{
anchors = (
{
name = bottom;
pos = (301,0);
},
{
name = center;
pos = (321,360);
},
{
name = top;
pos = (301,714);
}
);
layerId = "BD18C76C-096B-4C52-83B4-518A374966BE";
shapes = (
{
closed = 1;
nodes = (
(297,0,l),
(297,49,l),
(281,49,ls),
(254,49,o),
(233,63,o),
(233,110,cs),
(233,281,l),
(269,333,l),
(381,113,ls),
(424,22,o),
(455,0,o),
(560,0,cs),
(620,0,l),
(620,49,l),
(615,49,ls),
(581,49,o),
(560,73,o),
(526,134,cs),
(354,432,l),
(446,581,l),
(473,617,o),
(491,628,o),
(513,628,cs),
(543,628,o),
(552,606,o),
(558,575,c),
(580,575,o),
(611,598,o),
(611,642,cs),
(611,686,o),
(588,721,o),
(534,721,cs),
(481,721,o),
(453,683,o),
(404,608,cs),
(233,345,l),
(233,604,ls),
(233,651,o),
(249,665,o),
(276,665,cs),
(297,665,l),
(297,714,l),
(22,714,l),
(22,665,l),
(52,665,ls),
(79,665,o),
(98,651,o),
(98,606,cs),
(98,109,ls),
(98,62,o),
(77,49,o),
(50,49,cs),
(22,49,l),
(22,0,l)
);
}
);
width = 602;
},
{
anchors = (
{
name = bottom;
pos = (317,0);
},
{
name = center;
pos = (335,360);
},
{
name = top;
pos = (317,714);
}
);
layerId = "75A83886-EED5-4C31-9670-660514D8A4F6";
shapes = (
{
closed = 1;
nodes = (
(322,0,l),
(322,56,l),
(302,56,ls),
(280,56,o),
(262,71,o),
(262,109,cs),
(262,287,l),
(280,317,l),
(372,124,ls),
(415,26,o),
(451,0,o),
(571,0,cs),
(652,0,l),
(652,56,l),
(646,56,ls),
(608,56,o),
(590,77,o),
(554,143,cs),
(386,438,l),
(465,567,l),
(496,608,o),
(516,619,o),
(540,619,cs),
(573,619,o),
(582,594,o),
(589,560,c),
(613,560,o),
(649,584,o),
(649,635,cs),
(649,683,o),
(624,721,o),
(561,721,cs),
(506,721,o),
(475,686,o),
(430,618,cs),
(262,360,l),
(262,605,ls),
(262,643,o),
(274,658,o),
(294,658,cs),
(322,658,l),
(322,714,l),
(18,714,l),
(18,658,l),
(58,658,ls),
(79,658,o),
(94,643,o),
(94,606,cs),
(94,110,ls),
(94,70,o),
(76,56,o),
(54,56,cs),
(18,56,l),
(18,0,l)
);
}
);
width = 633;
}
);
script = latin;
subCategory = Uppercase;
unicode = 408;
}
{
category = Letter;
glyphname = lambdastroke;
layers = (
{
anchors = (
{
name = bottom;
pos = (246,0);
},
{
name = center;
pos = (252,385);
},
{
name = top;
pos = (246,770);
}
);
layerId = "1D4F67F9-897D-45AD-B7F0-CA61A6862C03";
shapes = (
{
closed = 1;
nodes = (
(17,0,l),
(49,0,l),
(191,295,ls),
(216,347,o),
(246,411,o),
(266,449,c),
(269,449,l),
(295,340,o),
(320,231,o),
(346,122,cs),
(363,46,o),
(383,0,o),
(470,0,cs),
(488,0,l),
(488,25,l),
(483,25,ls),
(426,25,o),
(394,42,o),
(372,138,cs),
(272,566,ls),
(266,591,o),
(260,613,o),
(253,632,c),
(347,687,l),
(347,718,l),
(245,658,l),
(205,761,o),
(160,770,o),
(112,770,cs),
(61,770,o),
(30,739,o),
(30,715,cs),
(30,701,o),
(38,695,o),
(46,692,c),
(57,725,o),
(81,747,o),
(119,745,cs),
(159,743,o),
(189,718,o),
(218,642,c),
(127,589,l),
(127,559,l),
(227,617,l),
(238,584,o),
(248,543,o),
(260,493,c)
);
}
);
width = 491;
},
{
anchors = (
{
name = bottom;
pos = (268,0);
},
{
name = center;
pos = (270,385);
},
{
name = top;
pos = (268,770);
}
);
layerId = UUID0;
shapes = (
{
closed = 1;
nodes = (
(8,0,l),
(111,0,l),
(238,258,ls),
(260,302,o),
(290,381,o),
(296,414,c),
(300,414,l),
(302,392,o),
(323,270,o),
(358,150,cs),
(396,20,o),
(426,0,o),
(509,0,cs),
(532,0,l),
(532,42,l),
(527,42,ls),
(486,42,o),
(434,98,o),
(399,236,cs),
(310,586,ls),
(306,603,o),
(301,616,o),
(296,631,c),
(397,688,l),
(397,745,l),
(280,678,l),
(248,745,o),
(204,770,o),
(146,770,cs),
(78,770,o),
(46,740,o),
(46,705,cs),
(46,687,o),
(52,672,o),
(63,664,c),
(79,684,o),
(108,704,o),
(145,704,cs),
(176,704,o),
(204,693,o),
(228,650,c),
(124,590,l),
(124,534,l),
(247,604,l),
(256,580,o),
(264,550,o),
(273,514,c)
);
}
);
width = 535;
},
{
anchors = (
{
name = bottom;
pos = (285,0);
},
{
name = center;
pos = (283,385);
},
{
name = top;
pos = (285,770);
}
);
layerId = "58AAA307-6DE9-4107-B80A-C255AE991657";
shapes = (
{
closed = 1;
nodes = (
(0,0,l),
(160,0,l),
(272,225,ls),
(294,269,o),
(321,337,o),
(327,370,c),
(330,370,l),
(332,348,o),
(351,269,o),
(382,150,cs),
(416,19,o),
(461,0,o),
(544,0,cs),
(567,0,l),
(567,53,l),
(562,53,ls),
(521,53,o),
(479,90,o),
(440,227,cs),
(348,554,ls),
(340,582,o),
(331,607,o),
(322,630,c),
(428,692,l),
(428,760,l),
(297,684,l),
(264,747,o),
(218,770,o),
(159,770,cs),
(97,770,o),
(58,746,o),
(58,703,cs),
(58,679,o),
(67,662,o),
(77,650,c),
(93,670,o),
(119,693,o),
(161,693,cs),
(191,693,o),
(215,680,o),
(236,648,c),
(133,589,l),
(133,521,l),
(262,596,l),
(269,579,o),
(275,561,o),
(281,540,c)
);
}
);
width = 570;
},
{
anchors = (
{
name = bottom;
pos = (298,0);
},
{
name = center;
pos = (293,390);
},
{
name = top;
pos = (298,781);
}
);
layerId = "E17BEC9D-CAAD-449F-91D9-03766E30097E";
shapes = (
{
closed = 1;
nodes = (
(-6,0,l),
(196,0,l),
(292,201,ls),
(313,245,o),
(342,316,o),
(348,344,c),
(352,344,l),
(355,321,o),
(366,269,o),
(400,150,cs),
(439,13,o),
(482,0,o),
(565,0,cs),
(593,0,l),
(593,61,l),
(588,61,ls),
(554,61,o),
(511,80,o),
(465,232,cs),
(376,530,ls),
(364,570,o),
(351,607,o),
(336,639,c),
(448,705,l),
(448,781,l),
(303,696,l),
(269,743,o),
(224,770,o),
(158,770,cs),
(113,770,o),
(68,750,o),
(68,702,cs),
(68,673,o),
(80,655,o),
(89,640,c),
(105,660,o),
(129,685,o),
(174,685,cs),
(199,685,o),
(219,675,o),
(236,656,c),
(137,598,l),
(137,521,l),
(271,600,l),
(276,588,o),
(282,574,o),
(287,559,c)
);
}
);
width = 596;
},
{
anchors = (
{
name = bottom;
pos = (190,0);
},
{
name = center;
pos = (195,385);
},
{
name = top;
pos = (190,770);
}
);
layerId = "C91144B6-58F5-45F2-9CE4-7ED6CE127FD4";
shapes = (
{
closed = 1;
nodes = (
(12,0,l),
(42,0,l),
(159,296,ls),
(175,337,o),
(196,390,o),
(210,433,c),
(213,433,l),
(222,369,o),
(261,142,o),
(276,87,c),
(292,38,o),
(306,0,o),
(374,0,cs),
(378,0,l),
(378,20,l),
(374,20,ls),
(328,20,o),
(304,47,o),
(283,172,cs),
(214,566,ls),
(210,591,o),
(205,613,o),
(200,633,c),
(274,687,l),
(274,718,l),
(192,658,l),
(164,750,o),
(127,770,o),
(90,770,cs),
(41,770,o),
(25,736,o),
(25,709,cs),
(25,699,o),
(28,686,o),
(35,681,c),
(38,712,o),
(51,745,o),
(88,745,cs),
(117,745,o),
(146,731,o),
(172,643,c),
(96,588,l),
(96,557,l),
(179,617,l),
(187,583,o),
(195,539,o),
(203,484,c)
);
}
);
width = 379;
},
{
anchors = (
{
name = bottom;
pos = (215,0);
},
{
name = center;
pos = (216,385);
},
{
name = top;
pos = (215,770);
}
);
layerId = "A0CCC833-A561-4F2A-AF73-A35187C9FE5B";
shapes = (
{
closed = 1;
nodes = (
(5,0,l),
(98,0,l),
(195,261,ls),
(212,306,o),
(235,374,o),
(243,406,c),
(246,406,l),
(252,360,o),
(277,191,o),
(298,110,cs),
(321,29,o),
(348,0,o),
(416,0,cs),
(428,0,l),
(428,41,l),
(424,41,ls),
(387,41,o),
(354,89,o),
(322,240,cs),
(260,549,ls),
(254,581,o),
(245,610,o),
(236,635,c),
(317,693,l),
(317,741,l),
(218,672,l),
(190,744,o),
(153,770,o),
(109,770,cs),
(63,770,o),
(39,741,o),
(39,707,cs),
(39,689,o),
(45,675,o),
(52,666,c),
(62,686,o),
(84,705,o),
(114,705,cs),
(138,705,o),
(160,694,o),
(180,647,c),
(104,592,l),
(104,544,l),
(198,609,l),
(205,584,o),
(212,552,o),
(219,511,c)
);
}
);
width = 431;
},
{
anchors = (
{
name = bottom;
pos = (234,0);
},
{
name = center;
pos = (232,385);
},
{
name = top;
pos = (234,771);
}
);
layerId = "BD18C76C-096B-4C52-83B4-518A374966BE";
shapes = (
{
closed = 1;
nodes = (
(-1,0,l),
(135,0,l),
(223,236,ls),
(239,280,o),
(263,350,o),
(269,380,c),
(272,380,l),
(277,344,o),
(293,224,o),
(318,127,cs),
(347,22,o),
(379,0,o),
(447,0,cs),
(465,0,l),
(465,49,l),
(461,49,ls),
(430,49,o),
(395,85,o),
(359,237,cs),
(291,541,ls),
(282,576,o),
(272,609,o),
(261,637,c),
(349,698,l),
(349,758,l),
(237,682,l),
(209,743,o),
(172,770,o),
(122,770,cs),
(81,770,o),
(49,745,o),
(49,705,cs),
(49,682,o),
(57,666,o),
(64,655,c),
(77,675,o),
(98,697,o),
(131,697,cs),
(154,697,o),
(172,686,o),
(190,651,c),
(110,594,l),
(110,534,l),
(214,605,l),
(219,586,o),
(225,561,o),
(230,531,c)
);
}
);
width = 468;
},
{
anchors = (
{
name = bottom;
pos = (249,0);
},
{
name = center;
pos = (244,385);
},
{
name = top;
pos = (249,771);
}
);
layerId = "75A83886-EED5-4C31-9670-660514D8A4F6";
shapes = (
{
closed = 1;
nodes = (
(-5,0,l),
(163,0,l),
(244,216,ls),
(260,261,o),
(285,331,o),
(290,360,c),
(293,360,l),
(296,331,o),
(305,249,o),
(334,140,cs),
(366,17,o),
(402,0,o),
(471,0,cs),
(494,0,l),
(494,56,l),
(490,56,ls),
(462,56,o),
(426,82,o),
(388,234,cs),
(314,535,ls),
(304,573,o),
(293,608,o),
(280,638,c),
(373,702,l),
(373,771,l),
(252,690,l),
(224,743,o),
(187,770,o),
(132,770,cs),
(94,770,o),
(57,748,o),
(57,703,cs),
(57,677,o),
(67,660,o),
(74,647,c),
(88,667,o),
(108,690,o),
(145,690,cs),
(166,690,o),
(182,680,o),
(197,654,c),
(114,596,l),
(114,527,l),
(226,602,l),
(230,587,o),
(235,568,o),
(239,547,c)
);
}
);
width = 497;
}
);
script = latin;
subCategory = Lowercase;
unicode = 411;
}
{
category = Letter;
glyphname = Nhookleft;
layers = (
{
anchors = (
{
name = bottom;
pos = (366,-240);
},
{
name = center;
pos = (342,237);
},
{
name = top;
pos = (366,714);
}
);
layerId = "1D4F67F9-897D-45AD-B7F0-CA61A6862C03";
shapes = (
{
closed = 1;
nodes = (
(3,-240,ls),
(115,-240,o),
(174,-204,o),
(174,-27,cs),
(174,653,l),
(567,0,l),
(592,0,l),
(592,605,ls),
(592,683,o),
(598,694,o),
(649,694,cs),
(689,694,l),
(689,714,l),
(470,714,l),
(470,694,l),
(501,694,ls),
(566,694,o),
(567,683,o),
(567,605,cs),
(567,55,l),
(170,714,l),
(50,714,l),
(50,694,l),
(97,694,ls),
(142,694,o),
(149,683,o),
(149,605,cs),
(149,-13,ls),
(149,-166,o),
(117,-215,o),
(3,-215,cs),
(-5,-215,l),
(-5,-240,l)
);
}
);
width = 731;
},
{
anchors = (
{
name = bottom;
pos = (382,-240);
},
{
name = center;
pos = (377,237);
},
{
name = top;
pos = (382,714);
}
);
layerId = UUID0;
shapes = (
{
closed = 1;
nodes = (
(42,-240,ls),
(143,-240,o),
(194,-187,o),
(194,-8,cs),
(194,576,l),
(569,0,l),
(640,0,l),
(640,600,ls),
(640,663,o),
(677,672,o),
(722,672,cs),
(735,672,l),
(735,714,l),
(484,714,l),
(484,672,l),
(497,672,ls),
(541,672,o),
(579,663,o),
(579,604,c),
(579,161,l),
(221,714,l),
(38,714,l),
(38,672,l),
(51,672,ls),
(95,672,o),
(133,663,o),
(133,604,cs),
(133,-9,l),
(133,-150,o),
(97,-193,o),
(33,-193,cs),
(19,-193,l),
(19,-240,l)
);
}
);
width = 763;
},
{
anchors = (
{
name = bottom;
pos = (394,-240);
},
{
name = center;
pos = (399,237);
},
{
name = top;
pos = (394,714);
}
);
layerId = "58AAA307-6DE9-4107-B80A-C255AE991657";
shapes = (
{
closed = 1;
nodes = (
(54,-240,ls),
(145,-240,o),
(196,-202,o),
(196,-31,cs),
(196,551,l),
(586,0,l),
(678,0,l),
(678,596,l),
(678,653,o),
(701,661,o),
(729,661,c),
(771,661,l),
(771,714,l),
(510,714,l),
(510,661,l),
(552,661,l),
(579,661,o),
(603,653,o),
(603,600,c),
(603,215,l),
(250,714,l),
(28,714,l),
(28,661,l),
(70,661,l),
(97,661,o),
(121,653,o),
(121,600,cs),
(121,-28,l),
(121,-149,o),
(97,-178,o),
(37,-178,cs),
(28,-178,l),
(28,-240,l)
);
}
);
width = 788;
},
{
anchors = (
{
name = bottom;
pos = (403,-240);
},
{
name = center;
pos = (396,237);
},
{
name = top;
pos = (403,714);
}
);
layerId = "E17BEC9D-CAAD-449F-91D9-03766E30097E";
shapes = (
{
closed = 1;
nodes = (
(53,-240,ls),
(147,-240,o),
(198,-208,o),
(198,-43,cs),
(198,533,l),
(599,0,l),
(706,0,l),
(706,593,ls),
(706,636,o),
(725,653,o),
(755,653,cs),
(798,653,l),
(798,714,l),
(530,714,l),
(530,653,l),
(573,653,ls),
(600,653,o),
(621,639,o),
(621,597,cs),
(621,255,l),
(272,714,l),
(21,714,l),
(21,653,l),
(63,653,ls),
(89,653,o),
(113,646,o),
(113,597,cs),
(113,-12,ls),
(113,-128,o),
(74,-167,o),
(7,-167,cs),
(-5,-167,l),
(-5,-240,l)
);
}
);
width = 806;
},
{
anchors = (
{
name = bottom;
pos = (276,-240);
},
{
name = center;
pos = (260,237);
},
{
name = top;
pos = (276,714);
}
);
layerId = "C91144B6-58F5-45F2-9CE4-7ED6CE127FD4";
shapes = (
{
closed = 1;
nodes = (
(-8,-240,ls),
(90,-240,o),
(135,-178,o),
(135,-16,cs),
(135,639,l),
(432,0,l),
(457,0,l),
(457,606,ls),
(457,683,o),
(463,694,o),
(513,694,cs),
(531,694,l),
(531,714,l),
(348,714,l),
(348,694,l),
(376,694,ls),
(426,694,o),
(432,683,o),
(432,606,cs),
(432,67,l),
(131,714,l),
(36,714,l),
(36,694,l),
(54,694,ls),
(104,694,o),
(110,683,o),
(110,606,cs),
(110,-16,ls),
(110,-174,o),
(67,-215,o),
(-6,-215,cs),
(-11,-215,l),
(-11,-240,l)
);
}
);
width = 552;
},
{
anchors = (
{
name = bottom;
pos = (302,-240);
},
{
name = center;
pos = (288,237);
},
{
name = top;
pos = (302,714);
}
);
layerId = "A0CCC833-A561-4F2A-AF73-A35187C9FE5B";
shapes = (
{
closed = 1;
nodes = (
(14,-240,ls),
(98,-240,o),
(149,-198,o),
(149,-31,cs),
(149,594,l),
(454,0,l),
(509,0,l),
(509,601,ls),
(509,662,o),
(533,673,o),
(569,673,cs),
(584,673,l),
(584,714,l),
(384,714,l),
(384,673,l),
(399,673,ls),
(434,673,o),
(458,663,o),
(458,605,cs),
(458,150,l),
(174,714,l),
(23,714,l),
(23,673,l),
(37,673,ls),
(73,673,o),
(98,664,o),
(98,605,cs),
(98,-13,ls),
(98,-152,o),
(65,-193,o),
(-1,-193,cs),
(-8,-193,l),
(-8,-240,l)
);
}
);
width = 604;
},
{
anchors = (
{
name = bottom;
pos = (321,-240);
},
{
name = center;
pos = (312,237);
},
{
name = top;
pos = (321,714);
}
);
layerId = "BD18C76C-096B-4C52-83B4-518A374966BE";
shapes = (
{
closed = 1;
nodes = (
(30.99,-240,ls),
(112,-240,o),
(158,-202,o),
(158,-36,cs),
(158,569,l),
(479,0,l),
(554,0,l),
(554,598,ls),
(554,651,o),
(574,665,o),
(604,665,cs),
(630,665,l),
(630,714,l),
(417,714,l),
(417,665,l),
(444,665,ls),
(471,665,o),
(491,653,o),
(491,602,cs),
(491,194,l),
(204,714,l),
(20,714,l),
(20,665,l),
(46,665,ls),
(73,665,o),
(96,657,o),
(96,602,cs),
(96,-12,ls),
(96,-142,o),
(63,-182,o),
(3,-182,cs),
(-6,-182,l),
(-6,-240,l)
);
}
);
width = 642;
},
{
anchors = (
{
name = bottom;
pos = (336,-240);
},
{
name = center;
pos = (330,237);
},
{
name = top;
pos = (336,714);
}
);
layerId = "75A83886-EED5-4C31-9670-660514D8A4F6";
shapes = (
{
closed = 1;
nodes = (
(44,-240,ls),
(122,-240,o),
(165,-205,o),
(165,-40,cs),
(165,549,l),
(499,0,l),
(589,0,l),
(589,595,ls),
(589,643,o),
(605,658,o),
(630,658,cs),
(665,658,l),
(665,714,l),
(442,714,l),
(442,658,l),
(478,658,ls),
(500,658,o),
(517,645,o),
(517,599,cs),
(517,228,l),
(227,714,l),
(17,714,l),
(17,658,l),
(52,658,ls),
(74,658,o),
(94,651,o),
(94,599,cs),
(94,-12,ls),
(94,-134,o),
(61,-174,o),
(6,-174,cs),
(-4,-174,l),
(-4,-240,l)
);
}
);
width = 672;
}
);
script = latin;
subCategory = Uppercase;
unicode = 413;
}
{
category = Letter;
glyphname = Ohorn;
kernLeft = O;
kernRight = Ohorn;
layers = (
{
anchors = (
{
name = bottom;
pos = (438,0);
},
{
name = center;
pos = (474,380);
},
{
name = top;
pos = (438,714);
}
);
layerId = "E17BEC9D-CAAD-449F-91D9-03766E30097E";
shapes = (
{
closed = 1;
nodes = (
(639,-10,o),
(766,137,o),
(766,358,cs),
(766,405,o),
(760,448,o),
(749,487,c),
(827,513,o),
(895,575,o),
(895,662,cs),
(895,736,o),
(856,770,o),
(806,770,cs),
(764,770,o),
(731,743,o),
(731,703,cs),
(731,644,o),
(785,644,o),
(785,603,cs),
(785,569,o),
(761,548,o),
(731,537,c),
(679,655,o),
(570,725,o),
(412,725,cs),
(171,725,o),
(54,580,o),
(54,359,cs),
(54,137,o),
(171,-10,o),
(411,-10,cs)
);
},
{
closed = 1;
nodes = (
(304,63,o),
(264,172,o),
(264,358,cs),
(264,544,o),
(304,652,o),
(412,652,cs),
(518,652,o),
(556,544,o),
(556,358,cs),
(556,172,o),
(518,63,o),
(411,63,cs)
);
}
);
width = 875;
},
{
anchors = (
{
name = bottom;
pos = (389,0);
},
{
name = center;
pos = (412,380);
},
{
name = top;
pos = (389,714);
}
);
layerId = UUID0;
shapes = (
{
closed = 1;
nodes = (
(573,-10,o),
(685,137,o),
(685,358,cs),
(685,433,o),
(672,500,o),
(647,555,c),
(737,588,o),
(768,645,o),
(768,707,cs),
(768,747,o),
(745,770,o),
(707,770,cs),
(670,770,o),
(650,748,o),
(650,720,cs),
(650,676,o),
(693,680,o),
(693,651,cs),
(693,623,o),
(676,601,o),
(630,588,c),
(578,674,o),
(490,725,o),
(372,725,cs),
(159,725,o),
(56,580,o),
(56,359,cs),
(56,137,o),
(159,-10,o),
(371,-10,cs)
);
},
{
closed = 1;
nodes = (
(223,44,o),
(167,160,o),
(167,358,cs),
(167,556,o),
(223,671,o),
(372,671,cs),
(520,671,o),
(574,556,o),
(574,358,cs),
(574,160,o),
(520,44,o),
(371,44,cs)
);
}
);
width = 778;
},
{
anchors = (
{
name = bottom;
pos = (422,0);
},
{
name = center;
pos = (449,380);
},
{
name = top;
pos = (422,714);
}
);
layerId = "58AAA307-6DE9-4107-B80A-C255AE991657";
shapes = (
{
closed = 1;
nodes = (
(611,-10,o),
(732,137,o),
(732,358,cs),
(732,414,o),
(724,465,o),
(709,510,c),
(802,546,o),
(843,608,o),
(843,674,cs),
(843,734,o),
(811,770,o),
(766,770,cs),
(726,770,o),
(699,745,o),
(699,710,cs),
(699,647,o),
(754,656,o),
(754,614,cs),
(754,588,o),
(730,569,o),
(691,553,c),
(639,661,o),
(538,725,o),
(395,725,cs),
(166,725,o),
(55,580,o),
(55,359,cs),
(55,137,o),
(166,-10,o),
(394,-10,cs)
);
},
{
closed = 1;
nodes = (
(270,55,o),
(223,167,o),
(223,358,cs),
(223,549,o),
(270,660,o),
(395,660,cs),
(519,660,o),
(564,549,o),
(564,358,cs),
(564,167,o),
(519,55,o),
(394,55,cs)
);
}
);
width = 843;
},
{
anchors = (
{
name = bottom;
pos = (365,0);
},
{
name = center;
pos = (396,380);
},
{
name = top;
pos = (365,714);
}
);
layerId = "75A83886-EED5-4C31-9670-660514D8A4F6";
shapes = (
{
closed = 1;
nodes = (
(533,-10,o),
(639,137,o),
(639,358,cs),
(639,411,o),
(634,459,o),
(625,501,c),
(690,526,o),
(747,585,o),
(747,671,cs),
(747,738,o),
(714,770,o),
(672,770,cs),
(637,770,o),
(610,745,o),
(610,708,cs),
(610,654,o),
(654,653,o),
(654,614,cs),
(654,580,o),
(635,559,o),
(610,547,c),
(566,659,o),
(475,725,o),
(344,725,cs),
(142,725,o),
(45,580,o),
(45,359,cs),
(45,137,o),
(142,-10,o),
(343,-10,cs)
);
},
{
closed = 1;
nodes = (
(254,58,o),
(221,169,o),
(221,358,cs),
(221,547,o),
(254,657,o),
(344,657,cs),
(432,657,o),
(464,547,o),
(464,358,cs),
(464,169,o),
(432,58,o),
(343,58,cs)
);
}
);
width = 730;
},
{
anchors = (
{
name = bottom;
pos = (277,0);
},
{
name = center;
pos = (293,380);
},
{
name = top;
pos = (277,714);
}
);
layerId = "C91144B6-58F5-45F2-9CE4-7ED6CE127FD4";
shapes = (
{
closed = 1;
nodes = (
(404,-10,o),
(485,125,o),
(485,358,cs),
(485,448,o),
(476,521,o),
(457,577,c),
(507,595,o),
(542,635,o),
(542,720,cs),
(542,750,o),
(529,770,o),
(511,770,cs),
(494,770,o),
(482,758,o),
(482,735,cs),
(482,708,o),
(504,698,o),
(504,674,cs),
(504,641,o),
(488,617,o),
(448,603,c),
(412,686,o),
(352,725,o),
(265,725,cs),
(118,725,o),
(44,596,o),
(44,359,cs),
(44,137,o),
(116,-10,o),
(264,-10,cs)
);
},
{
closed = 1;
nodes = (
(137,15,o),
(72,153,o),
(72,358,cs),
(72,574,o),
(131,700,o),
(265,700,cs),
(406,700,o),
(457,574,o),
(457,358,cs),
(457,146,o),
(392,15,o),
(264,15,cs)
);
}
);
width = 553;
},
{
anchors = (
{
name = bottom;
pos = (363,0);
},
{
name = center;
pos = (382,380);
},
{
name = top;
pos = (363,714);
}
);
layerId = "1D4F67F9-897D-45AD-B7F0-CA61A6862C03";
shapes = (
{
closed = 1;
nodes = (
(545,-10,o),
(627,135,o),
(627,358,cs),
(627,440,o),
(617,511,o),
(594,567,c),
(653,575,o),
(706,619,o),
(706,711,cs),
(706,747,o),
(693,770,o),
(673,770,cs),
(660,770,o),
(646,762,o),
(646,743,cs),
(646,709,o),
(677,708,o),
(677,677,cs),
(677,633,o),
(633,591,o),
(585,589,c),
(542,677,o),
(465,725,o),
(344,725,cs),
(157,725,o),
(58,592,o),
(58,359,cs),
(58,125,o),
(153,-10,o),
(343,-10,cs)
);
},
{
closed = 1;
nodes = (
(172,15,o),
(86,143,o),
(86,358,cs),
(86,573,o),
(172,700,o),
(344,700,cs),
(530,700,o),
(599,573,o),
(599,358,cs),
(599,145,o),
(524,15,o),
(343,15,cs)
);
}
);
width = 726;
},
{
anchors = (
{
name = bottom;
pos = (315,0);
},
{
name = center;
pos = (337,380);
},
{
name = top;
pos = (315,714);
}
);
layerId = "A0CCC833-A561-4F2A-AF73-A35187C9FE5B";
shapes = (
{
closed = 1;
nodes = (
(461,-10,o),
(552,137,o),
(552,358,cs),
(552,429,o),
(544,492,o),
(529,543,c),
(586,565,o),
(631,614,o),
(631,699,cs),
(631,745,o),
(610,770,o),
(581,770,cs),
(556,770,o),
(538,752,o),
(538,723,cs),
(538,685,o),
(569,679,o),
(569,648,cs),
(569,614,o),
(552,592,o),
(516,578,c),
(475,670,o),
(403,725,o),
(299,725,cs),
(127,725,o),
(44,580,o),
(44,359,cs),
(44,137,o),
(127,-10,o),
(298,-10,cs)
);
},
{
closed = 1;
nodes = (
(190,43,o),
(144,160,o),
(144,358,cs),
(144,557,o),
(190,672,o),
(299,672,cs),
(412,672,o),
(452,557,o),
(452,358,cs),
(452,160,o),
(412,43,o),
(298,43,cs)
);
}
);
width = 630;
},
{
anchors = (
{
name = bottom;
pos = (343,0);
},
{
name = center;
pos = (371,380);
},
{
name = top;
pos = (343,714);
}
);
layerId = "BD18C76C-096B-4C52-83B4-518A374966BE";
shapes = (
{
closed = 1;
nodes = (
(502,-10,o),
(601,137,o),
(601,358,cs),
(601,419,o),
(595,473,o),
(583,519,c),
(645,543,o),
(697,597,o),
(697,683,cs),
(697,741,o),
(669,770,o),
(632,770,cs),
(602,770,o),
(579,748,o),
(579,715,cs),
(579,667,o),
(617,664,o),
(617,629,cs),
(617,595,o),
(599,573,o),
(569,560,c),
(527,664,o),
(444,725,o),
(325,725,cs),
(136,725,o),
(45,580,o),
(45,359,cs),
(45,137,o),
(136,-10,o),
(324,-10,cs)
);
},
{
closed = 1;
nodes = (
(226,51,o),
(188,165,o),
(188,358,cs),
(188,551,o),
(226,664,o),
(325,664,cs),
(423,664,o),
(459,551,o),
(459,358,cs),
(459,165,o),
(423,51,o),
(324,51,cs)
);
}
);
width = 687;
}
);
script = latin;
subCategory = Uppercase;
unicode = 416;
}
